<svg width="1448" height="139" viewBox="0 0 1448 139" fill="none" xmlns="http://www.w3.org/2000/svg">
<g clip-path="url(#clip0_268_312)">
<path d="M1448 69.5L1387.67 64.8336C1327.33 60.5643 1206.67 50.6357 1086 53.3164C965.333 55.6 844.667 69.5 724 69.5C603.333 69.5 482.667 55.6 362 43.9836C241.333 32.7643 120.667 22.8357 6.48499e-05 37.0336C-120.667 50.6357 -241.333 88.3643 -362 106.534C-482.667 125.1 -603.333 125.1 -724 120.434C-844.667 116.164 -965.333 106.236 -1086 104.25C-1206.67 102.264 -1327.33 106.236 -1448 92.6336C-1568.67 78.4357 -1689.33 46.6643 -1810 43.9836C-1930.67 41.7 -2051.33 69.5 -2172 71.7836C-2292.67 74.4643 -2413.33 50.6357 -2534 37.0336C-2654.67 22.8357 -2775.33 18.8643 -2896 16.1836C-3016.67 13.9 -3137.33 13.9 -3258 25.5164C-3378.67 36.7357 -3499.33 60.5643 -3620 76.45C-3740.67 92.3357 -3861.33 102.264 -3982 97.3C-4102.67 92.3357 -4223.33 74.4643 -4344 69.5C-4464.67 64.5357 -4585.33 74.4643 -4706 69.5C-4826.67 64.5357 -4947.33 46.6643 -5068 46.3664C-5188.67 46.6643 -5309.33 64.5357 -5430 74.1664C-5550.67 83.4 -5671.33 83.4 -5792 83.4C-5912.67 83.4 -6033.33 83.4 -6154 71.7836C-6274.67 60.5643 -6395.33 36.7357 -6516 30.0836C-6636.67 22.8357 -6757.33 32.7643 -6878 30.0836C-6998.67 27.8 -7119.33 13.9 -7179.67 6.95L-7240 0V139H-7179.67C-7119.33 139 -6998.67 139 -6878 139C-6757.33 139 -6636.67 139 -6516 139C-6395.33 139 -6274.67 139 -6154 139C-6033.33 139 -5912.67 139 -5792 139C-5671.33 139 -5550.67 139 -5430 139C-5309.33 139 -5188.67 139 -5068 139C-4947.33 139 -4826.67 139 -4706 139C-4585.33 139 -4464.67 139 -4344 139C-4223.33 139 -4102.67 139 -3982 139C-3861.33 139 -3740.67 139 -3620 139C-3499.33 139 -3378.67 139 -3258 139C-3137.33 139 -3016.67 139 -2896 139C-2775.33 139 -2654.67 139 -2534 139C-2413.33 139 -2292.67 139 -2172 139C-2051.33 139 -1930.67 139 -1810 139C-1689.33 139 -1568.67 139 -1448 139C-1327.33 139 -1206.67 139 -1086 139C-965.333 139 -844.667 139 -724 139C-603.333 139 -482.667 139 -362 139C-241.333 139 -120.667 139 6.48499e-05 139C120.667 139 241.333 139 362 139C482.667 139 603.333 139 724 139C844.667 139 965.333 139 1086 139C1206.67 139 1327.33 139 1387.67 139H1448V69.5Z" fill="black"/>
<path opacity="0.9" d="M1448 69.5L1387.67 74.1664C1327.33 78.4357 1206.67 88.3643 1086 83.4C965.333 78.4357 844.667 60.5643 724 48.65C603.333 36.7357 482.667 32.7643 362 37.0335C241.333 41.7 120.667 55.6 6.48499e-05 53.3164C-120.667 50.6357 -241.333 32.7643 -362 32.4664C-482.667 32.7643 -603.333 50.6357 -724 50.9335C-844.667 50.6357 -965.333 32.7643 -1086 20.85C-1206.67 8.93569 -1327.33 4.96426 -1448 18.5664C-1568.67 32.7643 -1689.33 64.5357 -1810 69.5C-1930.67 74.4643 -2051.33 50.6357 -2172 50.9335C-2292.67 50.6357 -2413.33 74.4643 -2534 78.7336C-2654.67 83.4 -2775.33 69.5 -2896 53.3164C-3016.67 36.7357 -3137.33 18.8643 -3258 16.1835C-3378.67 13.9 -3499.33 27.8 -3620 48.65C-3740.67 69.5 -3861.33 97.3 -3982 101.966C-4102.67 106.236 -4223.33 88.3643 -4344 74.1664C-4464.67 60.5643 -4585.33 50.6357 -4706 57.8836C-4826.67 64.5357 -4947.33 88.3643 -5068 92.6336C-5188.67 97.3 -5309.33 83.4 -5430 67.2164C-5550.67 50.6357 -5671.33 32.7643 -5792 23.1335C-5912.67 13.9 -6033.33 13.9 -6154 20.85C-6274.67 27.8 -6395.33 41.7 -6516 46.3664C-6636.67 50.6357 -6757.33 46.6643 -6878 55.6C-6998.67 64.5357 -7119.33 88.3643 -7179.67 99.5836L-7240 111.2V139H-7179.67C-7119.33 139 -6998.67 139 -6878 139C-6757.33 139 -6636.67 139 -6516 139C-6395.33 139 -6274.67 139 -6154 139C-6033.33 139 -5912.67 139 -5792 139C-5671.33 139 -5550.67 139 -5430 139C-5309.33 139 -5188.67 139 -5068 139C-4947.33 139 -4826.67 139 -4706 139C-4585.33 139 -4464.67 139 -4344 139C-4223.33 139 -4102.67 139 -3982 139C-3861.33 139 -3740.67 139 -3620 139C-3499.33 139 -3378.67 139 -3258 139C-3137.33 139 -3016.67 139 -2896 139C-2775.33 139 -2654.67 139 -2534 139C-2413.33 139 -2292.67 139 -2172 139C-2051.33 139 -1930.67 139 -1810 139C-1689.33 139 -1568.67 139 -1448 139C-1327.33 139 -1206.67 139 -1086 139C-965.333 139 -844.667 139 -724 139C-603.333 139 -482.667 139 -362 139C-241.333 139 -120.667 139 6.48499e-05 139C120.667 139 241.333 139 362 139C482.667 139 603.333 139 724 139C844.667 139 965.333 139 1086 139C1206.67 139 1327.33 139 1387.67 139H1448V69.5Z" fill="black" fill-opacity="0.5"/>
</g>
<defs>
<clipPath id="clip0_268_312">
<rect width="1448" height="139" fill="white" transform="matrix(-1 0 0 1 1448 0)"/>
</clipPath>
</defs>
</svg>
