<svg width="390" height="64" viewBox="0 0 390 64" fill="none" xmlns="http://www.w3.org/2000/svg">
<g clip-path="url(#clip0_299_185)">
<path d="M390 32L373.75 29.8514C357.5 27.8857 325 23.3143 292.5 24.5486C260 25.6 227.5 32 195 32C162.5 32 130 25.6 97.5 20.2514C65 15.0857 32.5 10.5143 -1.43051e-05 17.0514C-32.5 23.3143 -65 40.6857 -97.5 49.0514C-130 57.6 -162.5 57.6 -195 55.4514C-227.5 53.4857 -260 48.9143 -292.5 48C-325 47.0857 -357.5 48.9143 -390 42.6514C-422.5 36.1143 -455 21.4857 -487.5 20.2514C-520 19.2 -552.5 32 -585 33.0514C-617.5 34.2857 -650 23.3143 -682.5 17.0514C-715 10.5143 -747.5 8.68571 -780 7.45143C-812.5 6.4 -845 6.4 -877.5 11.7486C-910 16.9143 -942.5 27.8857 -975 35.2C-1007.5 42.5143 -1040 47.0857 -1072.5 44.8C-1105 42.5143 -1137.5 34.2857 -1170 32C-1202.5 29.7143 -1235 34.2857 -1267.5 32C-1300 29.7143 -1332.5 21.4857 -1365 21.3486C-1397.5 21.4857 -1430 29.7143 -1462.5 34.1486C-1495 38.4 -1527.5 38.4 -1560 38.4C-1592.5 38.4 -1625 38.4 -1657.5 33.0514C-1690 27.8857 -1722.5 16.9143 -1755 13.8514C-1787.5 10.5143 -1820 15.0857 -1852.5 13.8514C-1885 12.8 -1917.5 6.4 -1933.75 3.2L-1950 0V64H-1933.75C-1917.5 64 -1885 64 -1852.5 64C-1820 64 -1787.5 64 -1755 64C-1722.5 64 -1690 64 -1657.5 64C-1625 64 -1592.5 64 -1560 64C-1527.5 64 -1495 64 -1462.5 64C-1430 64 -1397.5 64 -1365 64C-1332.5 64 -1300 64 -1267.5 64C-1235 64 -1202.5 64 -1170 64C-1137.5 64 -1105 64 -1072.5 64C-1040 64 -1007.5 64 -975 64C-942.5 64 -910 64 -877.5 64C-845 64 -812.5 64 -780 64C-747.5 64 -715 64 -682.5 64C-650 64 -617.5 64 -585 64C-552.5 64 -520 64 -487.5 64C-455 64 -422.5 64 -390 64C-357.5 64 -325 64 -292.5 64C-260 64 -227.5 64 -195 64C-162.5 64 -130 64 -97.5 64C-65 64 -32.5 64 -1.43051e-05 64C32.5 64 65 64 97.5 64C130 64 162.5 64 195 64C227.5 64 260 64 292.5 64C325 64 357.5 64 373.75 64H390V32Z" fill="black"/>
<path opacity="0.9" d="M390 24.6332L373.75 26.7818C357.5 28.7475 325 33.3189 292.5 31.0332C260 28.7475 227.5 20.5189 195 15.0332C162.5 9.54749 130 7.71892 97.5 9.68463C65 11.8332 32.5 18.2332 -1.43051e-05 17.1818C-32.5 15.9475 -65 7.71892 -97.5 7.58177C-130 7.71892 -162.5 15.9475 -195 16.0846C-227.5 15.9475 -260 7.71892 -292.5 2.2332C-325 -3.25251 -357.5 -5.08108 -390 1.18177C-422.5 7.71892 -455 22.3475 -487.5 24.6332C-520 26.9189 -552.5 15.9475 -585 16.0846C-617.5 15.9475 -650 26.9189 -682.5 28.8846C-715 31.0332 -747.5 24.6332 -780 17.1818C-812.5 9.54749 -845 1.31891 -877.5 0.0846289C-910 -0.9668 -942.5 5.4332 -975 15.0332C-1007.5 24.6332 -1040 37.4332 -1072.5 39.5818C-1105 41.5475 -1137.5 33.3189 -1170 26.7818C-1202.5 20.5189 -1235 15.9475 -1267.5 19.2846C-1300 22.3475 -1332.5 33.3189 -1365 35.2846C-1397.5 37.4332 -1430 31.0332 -1462.5 23.5818C-1495 15.9475 -1527.5 7.71892 -1560 3.28463C-1592.5 -0.9668 -1625 -0.966799 -1657.5 2.2332C-1690 5.4332 -1722.5 11.8332 -1755 13.9818C-1787.5 15.9475 -1820 14.1189 -1852.5 18.2332C-1885 22.3475 -1917.5 33.3189 -1933.75 38.4846L-1950 43.8332V56.6332H-1933.75C-1917.5 56.6332 -1885 56.6332 -1852.5 56.6332C-1820 56.6332 -1787.5 56.6332 -1755 56.6332C-1722.5 56.6332 -1690 56.6332 -1657.5 56.6332C-1625 56.6332 -1592.5 56.6332 -1560 56.6332C-1527.5 56.6332 -1495 56.6332 -1462.5 56.6332C-1430 56.6332 -1397.5 56.6332 -1365 56.6332C-1332.5 56.6332 -1300 56.6332 -1267.5 56.6332C-1235 56.6332 -1202.5 56.6332 -1170 56.6332C-1137.5 56.6332 -1105 56.6332 -1072.5 56.6332C-1040 56.6332 -1007.5 56.6332 -975 56.6332C-942.5 56.6332 -910 56.6332 -877.5 56.6332C-845 56.6332 -812.5 56.6332 -780 56.6332C-747.5 56.6332 -715 56.6332 -682.5 56.6332C-650 56.6332 -617.5 56.6332 -585 56.6332C-552.5 56.6332 -520 56.6332 -487.5 56.6332C-455 56.6332 -422.5 56.6332 -390 56.6332C-357.5 56.6332 -325 56.6332 -292.5 56.6332C-260 56.6332 -227.5 56.6332 -195 56.6332C-162.5 56.6332 -130 56.6332 -97.5 56.6332C-65 56.6332 -32.5 56.6332 -1.43051e-05 56.6332C32.5 56.6332 65 56.6332 97.5 56.6332C130 56.6332 162.5 56.6332 195 56.6332C227.5 56.6332 260 56.6332 292.5 56.6332C325 56.6332 357.5 56.6332 373.75 56.6332H390V24.6332Z" fill="black" fill-opacity="0.5"/>
</g>
<defs>
<clipPath id="clip0_299_185">
<rect width="390" height="64" fill="white" transform="matrix(-1 0 0 1 390 0)"/>
</clipPath>
</defs>
</svg>
