<svg width="368" height="505" viewBox="0 0 368 505" fill="none" xmlns="http://www.w3.org/2000/svg">
<g filter="url(#filter0_i_123_182)">
<path d="M102.859 2.71106C97.3564 7.99769 101.307 17.6221 109.067 17.6221C112.876 17.6221 118.379 11.9288 118.379 7.99769C118.379 4.33772 113.299 -3.11434e-05 109.208 -3.11434e-05C107.233 -3.11434e-05 104.411 1.21996 102.859 2.71106Z" fill="#FF9B50" fill-opacity="0.2"/>
</g>
<g filter="url(#filter1_i_123_182)">
<path d="M255.234 1.7618C252.694 2.98179 251.566 4.744 251.283 7.99731C250.296 17.0795 260.595 21.1461 266.38 14.0973C270.189 9.48841 270.048 7.31954 265.816 3.38846C262.006 -0.407075 260.313 -0.678184 255.234 1.7618Z" fill="#FF9B50" fill-opacity="0.2"/>
</g>
<g filter="url(#filter2_i_123_182)">
<path d="M176.929 4.33736C169.311 8.53956 168.323 16.9439 174.672 23.1795C179.046 27.3817 182.996 28.0594 187.934 25.4839C192.731 23.0439 194.424 20.1973 194.565 14.504C194.565 5.28625 185.112 -0.135938 176.929 4.33736Z" fill="#FF9B50" fill-opacity="0.2"/>
</g>
<g filter="url(#filter3_i_123_182)">
<path d="M129.806 17.6217C99.8953 23.5861 83.3879 52.8659 92.9819 82.959C99.3309 102.886 106.244 115.628 133.192 157.514L144.338 174.729L148.712 171.476C154.92 166.461 162.256 163.072 170.016 161.174C173.826 160.225 177.212 159.412 177.353 159.141C177.635 159.005 171.004 148.839 162.539 136.639C133.474 94.6167 121.623 66.0147 129.101 55.8481C133.051 50.4259 142.504 52.3237 146.455 59.237C148.43 63.0325 146.878 66.2858 141.516 70.0813L137.989 72.6569L148.148 88.7879C161.551 110.341 160.704 109.528 166.348 104.241C179.469 91.499 184.69 56.797 176.224 38.226C169.17 22.7728 148.994 13.8262 129.806 17.6217Z" fill="#FF9B50" fill-opacity="0.2"/>
</g>
<g filter="url(#filter4_i_123_182)">
<path d="M219.258 18.1642C203.456 21.9597 194.708 29.4152 190.335 42.8351C186.807 54.2217 186.666 66.9638 190.194 80.3837C193.721 93.1259 197.389 100.31 203.174 104.919L207.689 108.579L212.909 100.717C215.731 96.3792 220.81 88.3815 224.055 82.8237L230.122 72.9282L225.748 68.9972C219.54 63.575 219.822 57.7461 226.594 54.3573C231.391 51.9173 236.471 52.595 238.869 55.8484C247.052 66.9638 232.52 100.175 200.352 144.501C195.555 151.008 191.746 157.108 191.746 158.057C191.746 158.87 194.708 160.361 198.236 161.174C206.278 163.208 213.896 166.868 219.681 171.476L223.914 174.865L234.213 159.005C262.149 115.628 267.228 106.275 273.577 88.2459C278.515 74.2838 279.221 58.5595 275.693 48.7995C270.614 34.8374 255.941 22.2308 240.421 18.2997C230.686 15.9953 228.711 15.8598 219.258 18.1642Z" fill="#FF9B50" fill-opacity="0.2"/>
</g>
<g filter="url(#filter5_i_123_182)">
<path d="M77.8856 18.9774C67.8683 22.9085 71.5366 37.9551 82.5415 37.9551C92.2766 37.9551 96.5093 27.6529 89.4549 21.0108C85.9276 17.4863 83.1059 16.9441 77.8856 18.9774Z" fill="#FF9B50" fill-opacity="0.2"/>
</g>
<g filter="url(#filter6_i_123_182)">
<path d="M277.95 22.5017C273.999 27.3816 274.282 30.6349 279.079 35.3794C284.158 40.1238 287.685 40.3949 292.764 36.1927C300.524 29.8216 296.009 18.9772 285.569 18.9772C282.183 18.9772 280.066 19.9261 277.95 22.5017Z" fill="#FF9B50" fill-opacity="0.2"/>
</g>
<g filter="url(#filter7_i_123_182)">
<path d="M68.5751 53.9501C63.7781 59.1012 66.4588 66.8278 73.5132 68.4544C76.4761 69.1322 78.1691 68.59 80.8498 65.8789C82.9661 63.9811 84.5181 61.2701 84.5181 59.6434C84.5181 52.8657 73.3721 48.799 68.5751 53.9501Z" fill="#FF9B50" fill-opacity="0.2"/>
</g>
<g filter="url(#filter8_i_123_182)">
<path d="M287.967 53.6793C281.195 58.1526 285.568 69.1326 294.175 69.1326C297.42 69.1326 303.204 63.4393 303.204 60.3215C303.204 57.2038 297.42 51.5105 294.175 51.5105C292.482 51.5105 289.66 52.4593 287.967 53.6793Z" fill="#FF9B50" fill-opacity="0.2"/>
</g>
<g filter="url(#filter9_i_123_182)">
<path d="M75.4867 87.5679C70.2664 92.5834 75.3456 101.53 82.4001 99.7678C84.3753 99.2256 86.7738 97.4634 87.6203 95.5657C90.8654 88.5168 81.1303 82.0102 75.4867 87.5679Z" fill="#FF9B50" fill-opacity="0.2"/>
</g>
<g filter="url(#filter10_i_123_182)">
<path d="M282.324 88.3813C281.336 89.3301 280.631 91.6346 280.631 93.5323C280.631 98.0056 283.029 100.31 287.685 100.31C292.341 100.31 294.739 98.0056 294.739 93.5323C294.739 89.059 292.341 86.7546 287.685 86.7546C285.71 86.7546 283.311 87.4324 282.324 88.3813Z" fill="#FF9B50" fill-opacity="0.2"/>
</g>
<g filter="url(#filter11_i_123_182)">
<path d="M57.7101 112.375C42.1904 117.255 34.7127 127.286 34.8538 143.281C34.9949 163.614 52.9131 183.541 79.5789 193.165C89.7373 196.825 109.349 201.163 122.047 202.383L129.101 203.196L130.794 197.503C131.641 194.385 134.603 188.285 137.284 183.812C140.106 179.474 142.363 175.679 142.363 175.543C142.363 174.323 130.935 171.748 112.594 168.765C86.9155 164.699 79.1556 162.394 71.5368 156.837C63.6359 151.008 61.8017 146.263 65.7522 141.248C71.6779 133.657 83.1061 136.503 85.9279 146.399C87.1977 151.008 88.4675 152.363 94.3932 155.21C103.282 159.548 113.299 161.039 116.403 158.463C121.482 154.532 113.158 139.892 98.2026 126.608C84.9402 114.815 68.4329 108.986 57.7101 112.375Z" fill="#FF9B50" fill-opacity="0.2"/>
</g>
<g filter="url(#filter12_i_123_182)">
<path d="M290.928 113.73C277.948 117.932 265.814 128.099 255.373 143.281C248.883 152.634 249.871 159.954 257.631 159.954C261.581 159.954 276.396 154.803 279.359 152.363C280.628 151.279 282.321 148.025 283.309 145.043C285.143 138.943 288.106 136.91 295.16 136.91C306.73 136.91 308.423 149.381 297.7 156.43C290.081 161.581 278.512 164.834 253.68 168.765C233.364 172.019 227.015 173.781 227.015 175.95C227.015 176.627 228.567 179.203 230.542 181.643C232.517 184.218 235.48 189.912 237.173 194.114C239.995 201.841 240.136 201.976 245.638 201.976C254.245 201.976 278.653 196.825 289.799 192.623C316.042 182.863 332.408 165.105 333.96 144.772C334.524 136.91 334.101 134.605 330.856 128.234C323.237 113.188 308.423 107.901 290.928 113.73Z" fill="#FF9B50" fill-opacity="0.2"/>
</g>
<g filter="url(#filter13_i_123_182)">
<path d="M171.99 171.612C166.911 175.001 158.164 179.881 152.661 182.321C147.018 184.896 142.362 187.201 142.362 187.472C142.362 187.878 146.594 190.047 151.674 192.352C156.753 194.656 164.936 199.129 169.733 202.383C174.389 205.5 179.045 208.618 179.75 209.025C180.738 209.567 181.161 202.112 181.161 187.607C181.161 175.407 181.161 165.376 181.161 165.512C181.161 165.512 177.07 168.359 171.99 171.612Z" fill="#FF9B50" fill-opacity="0.2"/>
</g>
<g filter="url(#filter14_i_123_182)">
<path d="M188.077 187.743L187.936 209.838L195.131 204.552C199.082 201.569 207.97 196.554 214.883 193.301L227.299 187.201L218.129 183.134C213.049 180.965 204.161 176.221 198.517 172.561L188.077 165.783V187.743Z" fill="#FF9B50" fill-opacity="0.2"/>
</g>
<g filter="url(#filter15_i_123_182)">
<path d="M22.4377 193.165C-2.67603 200.756 -7.89631 230.849 12.8437 248.742C21.7323 256.604 29.7744 259.451 42.1902 259.316C54.7471 259.316 64.2 257.011 91.5712 247.793C128.96 235.187 132.064 233.154 129.665 222.987C128.96 220.005 128.254 214.989 128.254 212.007C128.254 201.976 122.47 202.112 98.9078 212.685C65.6109 227.596 51.3609 231.934 42.8956 229.9C34.5714 227.867 30.762 218.514 36.2644 213.769C39.7917 210.787 41.2025 210.923 48.9624 214.854C54.3238 217.565 57.5688 218.243 65.8931 218.243C75.9103 218.243 84.5168 215.938 86.6331 212.82C87.1974 212.007 86.492 210.109 85.2222 208.754C81.8361 205.094 61.3782 195.198 52.9129 193.029C43.7421 190.725 30.6209 190.725 22.4377 193.165Z" fill="#FF9B50" fill-opacity="0.2"/>
</g>
<g filter="url(#filter16_i_123_182)">
<path d="M140.246 196.012C141.375 202.383 141.516 228.003 140.246 231.798C138.977 235.594 140.105 235.323 151.11 228.274C156.613 224.885 165.078 220.276 170.016 218.243C174.954 216.074 179.046 213.905 179.046 213.634C179.046 213.227 173.826 210.381 167.477 207.263C160.987 204.145 152.944 199.672 149.417 197.367C138.695 190.047 138.977 190.047 140.246 196.012Z" fill="#FF9B50" fill-opacity="0.2"/>
</g>
<g filter="url(#filter17_i_123_182)">
<path d="M221.372 195.876C217.845 198.452 209.097 203.332 201.902 206.856C194.706 210.38 189.204 213.498 189.486 213.769C189.768 214.176 198.516 219.056 208.956 224.749L227.721 235.187L227.862 213.227C227.862 201.027 227.862 191.132 227.862 191.267C227.721 191.267 224.899 193.436 221.372 195.876Z" fill="#FF9B50" fill-opacity="0.2"/>
</g>
<g filter="url(#filter18_i_123_182)">
<path d="M314.631 193.301C305.743 195.605 286.273 205.094 282.745 208.754C277.666 214.04 286.696 218.243 303.203 218.243C310.258 218.243 313.926 217.429 319.005 214.854C326.906 210.787 328.881 210.652 331.844 213.905C335.089 217.294 334.807 223.123 331.562 226.24C324.225 233.289 306.166 229.9 275.55 215.396C243.664 200.349 240.137 200.892 239.431 220.14C239.008 231.527 239.149 232.205 242.535 234.645C246.486 237.491 283.451 250.776 301.792 255.791C317.876 260.264 333.819 260.536 342.849 256.605C368.809 245.353 376.428 215.396 357.381 199.4C348.352 191.674 330.574 189.098 314.631 193.301Z" fill="#FF9B50" fill-opacity="0.2"/>
</g>
<g filter="url(#filter19_i_123_182)">
<path d="M171.285 222.987C166.629 226.24 158.305 230.985 152.661 233.425C147.018 235.865 142.503 238.305 142.362 238.711C142.362 239.253 145.607 240.88 149.557 242.507C153.649 243.998 162.114 248.742 168.604 252.809C174.953 256.876 180.456 260.264 180.738 260.264C180.879 260.264 181.161 250.504 181.161 238.576C181.161 226.647 180.879 216.887 180.456 217.022C180.032 217.022 175.941 219.734 171.285 222.987Z" fill="#FF9B50" fill-opacity="0.2"/>
</g>
<g filter="url(#filter20_i_123_182)">
<path d="M188.077 238.711C188.218 250.504 188.359 260.264 188.5 260.264C188.782 260.264 195.695 256.333 204.02 251.589C212.485 246.844 221.091 242.1 223.349 241.016L227.299 238.982L216.294 233.967C210.369 231.256 201.48 226.376 196.683 222.987L187.936 217.022L188.077 238.711Z" fill="#FF9B50" fill-opacity="0.2"/>
</g>
<g filter="url(#filter21_i_123_182)">
<path d="M120.634 259.18C114.567 270.567 108.36 281.547 106.808 283.716C103.28 288.46 97.2135 291.442 91.2878 291.442C85.7853 291.442 84.0923 290.493 81.8349 286.291C80.424 283.716 80.424 282.496 82.3992 279.784C84.5155 276.667 85.221 276.396 92.1343 277.209C98.06 278.022 99.8942 277.751 101.446 275.853C105.397 271.38 116.966 252.809 116.966 251.182C116.966 247.522 110.617 246.167 101.164 247.929C82.117 251.454 58.6963 266.636 52.2062 279.784C45.2929 293.34 51.2186 310.555 65.0453 317.333C71.9586 320.722 83.1046 320.586 94.1096 317.062C119.647 308.793 153.649 276.938 153.649 261.485C153.649 258.773 152.238 256.605 148.57 254.029C145.889 251.996 141.656 247.658 139.399 244.405C137.001 241.151 134.32 238.576 133.473 238.576C132.486 238.576 126.701 247.929 120.634 259.18Z" fill="#FF9B50" fill-opacity="0.2"/>
</g>
<g filter="url(#filter22_i_123_182)">
<path d="M223.771 248.878C214.6 258.638 214.177 259.587 215.023 264.196C217.281 275.718 234.07 294.424 253.117 306.624C270.612 317.74 293.186 322.891 302.921 318.011C312.374 313.266 318.723 302.964 318.723 292.662C318.723 277.751 308.283 265.416 287.261 255.52C272.023 248.336 259.748 245.489 254.387 247.929C249.59 249.962 250.154 251.318 260.172 266.093L268.214 278.158L276.538 277.209C284.721 276.26 284.862 276.396 286.414 280.191C289.518 287.782 282.322 293.747 273.011 291.171C265.533 289.273 259.889 282.089 248.179 259.993C241.83 248.2 236.045 238.576 235.058 238.576C234.07 238.576 228.991 243.185 223.771 248.878Z" fill="#FF9B50" fill-opacity="0.2"/>
</g>
<g filter="url(#filter23_i_123_182)">
<path d="M160.282 264.873C159.858 265.958 151.675 278.564 142.222 292.798C129.948 311.233 125.01 319.909 125.01 322.755C125.01 326.008 126.985 328.855 135.027 336.582C141.658 342.953 145.608 345.799 146.455 344.986C147.302 344.173 154.356 330.211 162.116 313.809C182.997 269.753 183.279 269.211 184.69 270.567C185.395 271.244 194.002 288.324 203.596 308.386C213.331 328.448 221.937 345.122 222.784 345.393C224.9 346.071 242.395 328.313 243.383 324.382C244.371 320.722 244.229 320.586 223.772 289.002C214.319 274.769 205.994 262.976 205.007 262.976C204.16 262.976 200.633 263.924 197.388 265.009C189.769 267.584 180.034 267.584 171.146 265.009C162.539 262.569 161.269 262.433 160.282 264.873Z" fill="#FF9B50" fill-opacity="0.2"/>
</g>
<g filter="url(#filter24_i_123_182)">
<path d="M182.433 303.371C174.673 304.591 171.569 315.435 177.495 320.18C181.445 323.162 187.23 323.298 191.463 320.451C193.72 318.96 194.567 317.062 194.567 313.267C194.567 306.218 189.488 302.151 182.433 303.371Z" fill="#FF9B50" fill-opacity="0.2"/>
</g>
<g filter="url(#filter25_i_123_182)">
<path d="M164.656 324.788C156.755 328.855 158.307 337.802 167.336 339.835C172.133 340.919 172.698 341.462 173.121 345.799C173.685 351.764 169.029 357.593 159.576 363.286L153.368 366.946L158.448 367.895C169.876 369.928 180.316 358.677 182.715 341.733C184.831 326.551 176.366 318.688 164.656 324.788Z" fill="#FF9B50" fill-opacity="0.2"/>
</g>
<g filter="url(#filter26_i_123_182)">
<path d="M189.063 325.873C186.382 328.584 185.818 330.617 185.959 338.073C186.1 356.915 197.811 371.013 210.65 367.624L214.6 366.539L207.405 362.337C199.927 357.728 194.566 351.086 194.566 346.071C194.566 342.817 195.976 341.597 202.184 339.564C204.442 338.751 206.981 337.259 207.687 336.039C209.944 332.651 207.687 326.957 203.031 324.653C197.105 321.806 192.731 322.077 189.063 325.873Z" fill="#FF9B50" fill-opacity="0.2"/>
</g>
<g filter="url(#filter27_i_123_182)">
<path d="M112.17 336.311C108.643 340.919 105.68 345.393 105.68 346.342C105.68 348.104 118.943 360.575 120.777 360.575C121.905 360.575 132.205 349.459 134.321 346.07C135.309 344.579 124.445 331.159 120.636 329.126C119.225 328.313 116.685 330.482 112.17 336.311Z" fill="#FF9B50" fill-opacity="0.2"/>
</g>
<g filter="url(#filter28_i_123_182)">
<path d="M239.995 336.311L232.658 344.58L236.75 349.459C239.007 352.171 242.393 355.966 244.368 357.728L248.037 360.846L255.091 354.475C259.042 350.951 262.287 347.155 262.287 346.071C262.287 343.902 250.012 328.042 248.46 328.042C247.896 328.177 244.086 331.837 239.995 336.311Z" fill="#FF9B50" fill-opacity="0.2"/>
</g>
<g filter="url(#filter29_i_123_182)">
<path d="M127.69 358.406L121.058 364.37L123.034 369.115C124.162 371.69 129.806 380.366 135.308 388.499C141.093 396.632 149.558 411.543 154.637 422.117C164.231 442.721 169.311 450.312 171.85 448.008C173.826 446.11 181.868 423.337 181.868 419.541C181.868 418.05 177.071 409.781 171.145 401.241C165.36 392.701 155.625 378.197 149.84 368.979C142.927 358.542 138.13 352.442 136.719 352.442C135.308 352.442 131.358 355.153 127.69 358.406Z" fill="#FF9B50" fill-opacity="0.2"/>
</g>
<g filter="url(#filter30_i_123_182)">
<path d="M228.146 354.746C222.644 360.982 186.102 417.508 186.102 419.677C186.102 423.472 195.413 447.872 197.106 448.414C199.364 449.092 203.879 441.908 214.46 420.626C219.822 409.646 228.993 393.786 234.636 385.653C248.604 365.59 248.604 365.862 240.28 358.406C232.661 351.764 231.25 351.357 228.146 354.746Z" fill="#FF9B50" fill-opacity="0.2"/>
</g>
<g filter="url(#filter31_i_123_182)">
<path d="M92.5572 360.033C90.5819 361.93 91.5695 367.353 94.2502 368.708C98.2007 370.742 104.268 365.862 102.01 362.337C100.458 359.762 94.3913 358.406 92.5572 360.033Z" fill="#FF9B50" fill-opacity="0.2"/>
</g>
<g filter="url(#filter32_i_123_182)">
<path d="M263.842 362.473C261.02 365.726 264.406 370.335 269.062 369.793C272.307 369.522 272.871 368.709 272.871 365.32C272.871 361.931 272.307 361.117 269.203 360.846C267.228 360.575 264.829 361.389 263.842 362.473Z" fill="#FF9B50" fill-opacity="0.2"/>
</g>
<g filter="url(#filter33_i_123_182)">
<path d="M178.624 368.708C171.71 373.995 172.557 381.857 180.458 384.975C184.267 386.466 185.537 386.466 189.77 384.568C194.426 382.399 195.413 380.23 194.708 374.13C194.284 371.284 187.935 365.997 184.832 365.997C183.421 365.997 180.599 367.217 178.624 368.708Z" fill="#FF9B50" fill-opacity="0.2"/>
</g>
<g filter="url(#filter34_i_123_182)">
<path d="M109.911 380.231C106.243 384.568 111.745 391.211 116.683 388.228C120.069 386.06 120.493 382.128 117.53 379.96C114.285 377.655 112.027 377.791 109.911 380.231Z" fill="#FF9B50" fill-opacity="0.2"/>
</g>
<g filter="url(#filter35_i_123_182)">
<path d="M247.473 382.264C245.498 388.093 253.681 391.346 257.067 386.195C259.324 382.67 257.208 379.553 252.552 379.553C249.589 379.553 248.037 380.366 247.473 382.264Z" fill="#FF9B50" fill-opacity="0.2"/>
</g>
<g filter="url(#filter36_i_123_182)">
<path d="M124.023 405.308C121.907 409.239 127.127 414.119 131.219 412.086C135.028 410.052 136.016 407.07 133.899 404.63C131.36 401.783 125.857 402.055 124.023 405.308Z" fill="#FF9B50" fill-opacity="0.2"/>
</g>
<g filter="url(#filter37_i_123_182)">
<path d="M232.519 405.443C231.108 408.154 231.249 408.832 234.071 411.001C238.303 414.254 242.959 412.085 242.254 406.934C241.69 401.919 235.058 400.97 232.519 405.443Z" fill="#FF9B50" fill-opacity="0.2"/>
</g>
<g filter="url(#filter38_i_123_182)">
<path d="M139.543 432.419C138.414 434.452 138.697 435.672 140.813 437.705C144.058 440.823 148.996 440.145 150.125 436.214C152.1 430.521 142.506 426.997 139.543 432.419Z" fill="#FF9B50" fill-opacity="0.2"/>
</g>
<g filter="url(#filter39_i_123_182)">
<path d="M217.001 432.554C215.59 435.266 215.731 435.943 218.553 438.112C222.785 441.366 227.441 439.197 226.736 434.046C226.171 429.03 219.54 428.081 217.001 432.554Z" fill="#FF9B50" fill-opacity="0.2"/>
</g>
<g filter="url(#filter40_i_123_182)">
<path d="M178.482 447.059C175.66 455.734 173.403 464.139 173.403 465.63C173.403 468.883 182.714 502.907 183.843 503.992C185.254 505.347 185.959 503.721 191.039 485.827C195.836 469.425 196.118 467.799 194.566 460.885C192.167 450.719 186.242 432.69 184.831 431.877C184.266 431.47 181.445 438.383 178.482 447.059Z" fill="#FF9B50" fill-opacity="0.2"/>
</g>
<defs>
<filter id="filter0_i_123_182" x="100.295" y="0" width="23.0833" height="22.6221" filterUnits="userSpaceOnUse" color-interpolation-filters="sRGB">
<feFlood flood-opacity="0" result="BackgroundImageFix"/>
<feBlend mode="normal" in="SourceGraphic" in2="BackgroundImageFix" result="shape"/>
<feColorMatrix in="SourceAlpha" type="matrix" values="0 0 0 0 0 0 0 0 0 0 0 0 0 0 0 0 0 0 127 0" result="hardAlpha"/>
<feOffset dx="5" dy="5"/>
<feGaussianBlur stdDeviation="17.85"/>
<feComposite in2="hardAlpha" operator="arithmetic" k2="-1" k3="1"/>
<feColorMatrix type="matrix" values="0 0 0 0 0 0 0 0 0 0 0 0 0 0 0 0 0 0 0.05 0"/>
<feBlend mode="normal" in2="shape" result="effect1_innerShadow_123_182"/>
</filter>
<filter id="filter1_i_123_182" x="251.217" y="0.182251" width="22.9021" height="22.4929" filterUnits="userSpaceOnUse" color-interpolation-filters="sRGB">
<feFlood flood-opacity="0" result="BackgroundImageFix"/>
<feBlend mode="normal" in="SourceGraphic" in2="BackgroundImageFix" result="shape"/>
<feColorMatrix in="SourceAlpha" type="matrix" values="0 0 0 0 0 0 0 0 0 0 0 0 0 0 0 0 0 0 127 0" result="hardAlpha"/>
<feOffset dx="5" dy="5"/>
<feGaussianBlur stdDeviation="17.85"/>
<feComposite in2="hardAlpha" operator="arithmetic" k2="-1" k3="1"/>
<feColorMatrix type="matrix" values="0 0 0 0 0 0 0 0 0 0 0 0 0 0 0 0 0 0 0.05 0"/>
<feBlend mode="normal" in2="shape" result="effect1_innerShadow_123_182"/>
</filter>
<filter id="filter2_i_123_182" x="170.492" y="2.7417" width="29.0732" height="29.255" filterUnits="userSpaceOnUse" color-interpolation-filters="sRGB">
<feFlood flood-opacity="0" result="BackgroundImageFix"/>
<feBlend mode="normal" in="SourceGraphic" in2="BackgroundImageFix" result="shape"/>
<feColorMatrix in="SourceAlpha" type="matrix" values="0 0 0 0 0 0 0 0 0 0 0 0 0 0 0 0 0 0 127 0" result="hardAlpha"/>
<feOffset dx="5" dy="5"/>
<feGaussianBlur stdDeviation="17.85"/>
<feComposite in2="hardAlpha" operator="arithmetic" k2="-1" k3="1"/>
<feColorMatrix type="matrix" values="0 0 0 0 0 0 0 0 0 0 0 0 0 0 0 0 0 0 0.05 0"/>
<feBlend mode="normal" in2="shape" result="effect1_innerShadow_123_182"/>
</filter>
<filter id="filter3_i_123_182" x="90.2524" y="16.752" width="95.0896" height="162.978" filterUnits="userSpaceOnUse" color-interpolation-filters="sRGB">
<feFlood flood-opacity="0" result="BackgroundImageFix"/>
<feBlend mode="normal" in="SourceGraphic" in2="BackgroundImageFix" result="shape"/>
<feColorMatrix in="SourceAlpha" type="matrix" values="0 0 0 0 0 0 0 0 0 0 0 0 0 0 0 0 0 0 127 0" result="hardAlpha"/>
<feOffset dx="5" dy="5"/>
<feGaussianBlur stdDeviation="17.85"/>
<feComposite in2="hardAlpha" operator="arithmetic" k2="-1" k3="1"/>
<feColorMatrix type="matrix" values="0 0 0 0 0 0 0 0 0 0 0 0 0 0 0 0 0 0 0.05 0"/>
<feBlend mode="normal" in2="shape" result="effect1_innerShadow_123_182"/>
</filter>
<filter id="filter4_i_123_182" x="187.618" y="16.5022" width="95.2803" height="163.363" filterUnits="userSpaceOnUse" color-interpolation-filters="sRGB">
<feFlood flood-opacity="0" result="BackgroundImageFix"/>
<feBlend mode="normal" in="SourceGraphic" in2="BackgroundImageFix" result="shape"/>
<feColorMatrix in="SourceAlpha" type="matrix" values="0 0 0 0 0 0 0 0 0 0 0 0 0 0 0 0 0 0 127 0" result="hardAlpha"/>
<feOffset dx="5" dy="5"/>
<feGaussianBlur stdDeviation="17.85"/>
<feComposite in2="hardAlpha" operator="arithmetic" k2="-1" k3="1"/>
<feColorMatrix type="matrix" values="0 0 0 0 0 0 0 0 0 0 0 0 0 0 0 0 0 0 0.05 0"/>
<feBlend mode="normal" in2="shape" result="effect1_innerShadow_123_182"/>
</filter>
<filter id="filter5_i_123_182" x="72.0271" y="17.7974" width="25.9365" height="25.1577" filterUnits="userSpaceOnUse" color-interpolation-filters="sRGB">
<feFlood flood-opacity="0" result="BackgroundImageFix"/>
<feBlend mode="normal" in="SourceGraphic" in2="BackgroundImageFix" result="shape"/>
<feColorMatrix in="SourceAlpha" type="matrix" values="0 0 0 0 0 0 0 0 0 0 0 0 0 0 0 0 0 0 127 0" result="hardAlpha"/>
<feOffset dx="5" dy="5"/>
<feGaussianBlur stdDeviation="17.85"/>
<feComposite in2="hardAlpha" operator="arithmetic" k2="-1" k3="1"/>
<feColorMatrix type="matrix" values="0 0 0 0 0 0 0 0 0 0 0 0 0 0 0 0 0 0 0.05 0"/>
<feBlend mode="normal" in2="shape" result="effect1_innerShadow_123_182"/>
</filter>
<filter id="filter6_i_123_182" x="275.213" y="18.9773" width="26.4609" height="25.176" filterUnits="userSpaceOnUse" color-interpolation-filters="sRGB">
<feFlood flood-opacity="0" result="BackgroundImageFix"/>
<feBlend mode="normal" in="SourceGraphic" in2="BackgroundImageFix" result="shape"/>
<feColorMatrix in="SourceAlpha" type="matrix" values="0 0 0 0 0 0 0 0 0 0 0 0 0 0 0 0 0 0 127 0" result="hardAlpha"/>
<feOffset dx="5" dy="5"/>
<feGaussianBlur stdDeviation="17.85"/>
<feComposite in2="hardAlpha" operator="arithmetic" k2="-1" k3="1"/>
<feColorMatrix type="matrix" values="0 0 0 0 0 0 0 0 0 0 0 0 0 0 0 0 0 0 0.05 0"/>
<feBlend mode="normal" in2="shape" result="effect1_innerShadow_123_182"/>
</filter>
<filter id="filter7_i_123_182" x="66.1528" y="51.6229" width="23.3652" height="22.0964" filterUnits="userSpaceOnUse" color-interpolation-filters="sRGB">
<feFlood flood-opacity="0" result="BackgroundImageFix"/>
<feBlend mode="normal" in="SourceGraphic" in2="BackgroundImageFix" result="shape"/>
<feColorMatrix in="SourceAlpha" type="matrix" values="0 0 0 0 0 0 0 0 0 0 0 0 0 0 0 0 0 0 127 0" result="hardAlpha"/>
<feOffset dx="5" dy="5"/>
<feGaussianBlur stdDeviation="17.85"/>
<feComposite in2="hardAlpha" operator="arithmetic" k2="-1" k3="1"/>
<feColorMatrix type="matrix" values="0 0 0 0 0 0 0 0 0 0 0 0 0 0 0 0 0 0 0.05 0"/>
<feBlend mode="normal" in2="shape" result="effect1_innerShadow_123_182"/>
</filter>
<filter id="filter8_i_123_182" x="284.653" y="51.5104" width="23.5515" height="22.6221" filterUnits="userSpaceOnUse" color-interpolation-filters="sRGB">
<feFlood flood-opacity="0" result="BackgroundImageFix"/>
<feBlend mode="normal" in="SourceGraphic" in2="BackgroundImageFix" result="shape"/>
<feColorMatrix in="SourceAlpha" type="matrix" values="0 0 0 0 0 0 0 0 0 0 0 0 0 0 0 0 0 0 127 0" result="hardAlpha"/>
<feOffset dx="5" dy="5"/>
<feGaussianBlur stdDeviation="17.85"/>
<feComposite in2="hardAlpha" operator="arithmetic" k2="-1" k3="1"/>
<feColorMatrix type="matrix" values="0 0 0 0 0 0 0 0 0 0 0 0 0 0 0 0 0 0 0.05 0"/>
<feBlend mode="normal" in2="shape" result="effect1_innerShadow_123_182"/>
</filter>
<filter id="filter9_i_123_182" x="73.3403" y="85.4767" width="19.9268" height="19.5176" filterUnits="userSpaceOnUse" color-interpolation-filters="sRGB">
<feFlood flood-opacity="0" result="BackgroundImageFix"/>
<feBlend mode="normal" in="SourceGraphic" in2="BackgroundImageFix" result="shape"/>
<feColorMatrix in="SourceAlpha" type="matrix" values="0 0 0 0 0 0 0 0 0 0 0 0 0 0 0 0 0 0 127 0" result="hardAlpha"/>
<feOffset dx="5" dy="5"/>
<feGaussianBlur stdDeviation="17.85"/>
<feComposite in2="hardAlpha" operator="arithmetic" k2="-1" k3="1"/>
<feColorMatrix type="matrix" values="0 0 0 0 0 0 0 0 0 0 0 0 0 0 0 0 0 0 0.05 0"/>
<feBlend mode="normal" in2="shape" result="effect1_innerShadow_123_182"/>
</filter>
<filter id="filter10_i_123_182" x="280.631" y="86.7546" width="19.1089" height="18.5555" filterUnits="userSpaceOnUse" color-interpolation-filters="sRGB">
<feFlood flood-opacity="0" result="BackgroundImageFix"/>
<feBlend mode="normal" in="SourceGraphic" in2="BackgroundImageFix" result="shape"/>
<feColorMatrix in="SourceAlpha" type="matrix" values="0 0 0 0 0 0 0 0 0 0 0 0 0 0 0 0 0 0 127 0" result="hardAlpha"/>
<feOffset dx="5" dy="5"/>
<feGaussianBlur stdDeviation="17.85"/>
<feComposite in2="hardAlpha" operator="arithmetic" k2="-1" k3="1"/>
<feColorMatrix type="matrix" values="0 0 0 0 0 0 0 0 0 0 0 0 0 0 0 0 0 0 0.05 0"/>
<feBlend mode="normal" in2="shape" result="effect1_innerShadow_123_182"/>
</filter>
<filter id="filter11_i_123_182" x="34.8518" y="111.419" width="112.511" height="96.7773" filterUnits="userSpaceOnUse" color-interpolation-filters="sRGB">
<feFlood flood-opacity="0" result="BackgroundImageFix"/>
<feBlend mode="normal" in="SourceGraphic" in2="BackgroundImageFix" result="shape"/>
<feColorMatrix in="SourceAlpha" type="matrix" values="0 0 0 0 0 0 0 0 0 0 0 0 0 0 0 0 0 0 127 0" result="hardAlpha"/>
<feOffset dx="5" dy="5"/>
<feGaussianBlur stdDeviation="17.85"/>
<feComposite in2="hardAlpha" operator="arithmetic" k2="-1" k3="1"/>
<feColorMatrix type="matrix" values="0 0 0 0 0 0 0 0 0 0 0 0 0 0 0 0 0 0 0.05 0"/>
<feBlend mode="normal" in2="shape" result="effect1_innerShadow_123_182"/>
</filter>
<filter id="filter12_i_123_182" x="227.015" y="111.413" width="112.156" height="95.5635" filterUnits="userSpaceOnUse" color-interpolation-filters="sRGB">
<feFlood flood-opacity="0" result="BackgroundImageFix"/>
<feBlend mode="normal" in="SourceGraphic" in2="BackgroundImageFix" result="shape"/>
<feColorMatrix in="SourceAlpha" type="matrix" values="0 0 0 0 0 0 0 0 0 0 0 0 0 0 0 0 0 0 127 0" result="hardAlpha"/>
<feOffset dx="5" dy="5"/>
<feGaussianBlur stdDeviation="17.85"/>
<feComposite in2="hardAlpha" operator="arithmetic" k2="-1" k3="1"/>
<feColorMatrix type="matrix" values="0 0 0 0 0 0 0 0 0 0 0 0 0 0 0 0 0 0 0.05 0"/>
<feBlend mode="normal" in2="shape" result="effect1_innerShadow_123_182"/>
</filter>
<filter id="filter13_i_123_182" x="142.362" y="165.51" width="43.7993" height="48.542" filterUnits="userSpaceOnUse" color-interpolation-filters="sRGB">
<feFlood flood-opacity="0" result="BackgroundImageFix"/>
<feBlend mode="normal" in="SourceGraphic" in2="BackgroundImageFix" result="shape"/>
<feColorMatrix in="SourceAlpha" type="matrix" values="0 0 0 0 0 0 0 0 0 0 0 0 0 0 0 0 0 0 127 0" result="hardAlpha"/>
<feOffset dx="5" dy="5"/>
<feGaussianBlur stdDeviation="17.85"/>
<feComposite in2="hardAlpha" operator="arithmetic" k2="-1" k3="1"/>
<feColorMatrix type="matrix" values="0 0 0 0 0 0 0 0 0 0 0 0 0 0 0 0 0 0 0.05 0"/>
<feBlend mode="normal" in2="shape" result="effect1_innerShadow_123_182"/>
</filter>
<filter id="filter14_i_123_182" x="187.936" y="165.783" width="44.3638" height="49.0552" filterUnits="userSpaceOnUse" color-interpolation-filters="sRGB">
<feFlood flood-opacity="0" result="BackgroundImageFix"/>
<feBlend mode="normal" in="SourceGraphic" in2="BackgroundImageFix" result="shape"/>
<feColorMatrix in="SourceAlpha" type="matrix" values="0 0 0 0 0 0 0 0 0 0 0 0 0 0 0 0 0 0 127 0" result="hardAlpha"/>
<feOffset dx="5" dy="5"/>
<feGaussianBlur stdDeviation="17.85"/>
<feComposite in2="hardAlpha" operator="arithmetic" k2="-1" k3="1"/>
<feColorMatrix type="matrix" values="0 0 0 0 0 0 0 0 0 0 0 0 0 0 0 0 0 0 0.05 0"/>
<feBlend mode="normal" in2="shape" result="effect1_innerShadow_123_182"/>
</filter>
<filter id="filter15_i_123_182" x="0" y="191.318" width="135.277" height="73.0026" filterUnits="userSpaceOnUse" color-interpolation-filters="sRGB">
<feFlood flood-opacity="0" result="BackgroundImageFix"/>
<feBlend mode="normal" in="SourceGraphic" in2="BackgroundImageFix" result="shape"/>
<feColorMatrix in="SourceAlpha" type="matrix" values="0 0 0 0 0 0 0 0 0 0 0 0 0 0 0 0 0 0 127 0" result="hardAlpha"/>
<feOffset dx="5" dy="5"/>
<feGaussianBlur stdDeviation="17.85"/>
<feComposite in2="hardAlpha" operator="arithmetic" k2="-1" k3="1"/>
<feColorMatrix type="matrix" values="0 0 0 0 0 0 0 0 0 0 0 0 0 0 0 0 0 0 0.05 0"/>
<feBlend mode="normal" in2="shape" result="effect1_innerShadow_123_182"/>
</filter>
<filter id="filter16_i_123_182" x="139.631" y="191.695" width="44.4148" height="47.5341" filterUnits="userSpaceOnUse" color-interpolation-filters="sRGB">
<feFlood flood-opacity="0" result="BackgroundImageFix"/>
<feBlend mode="normal" in="SourceGraphic" in2="BackgroundImageFix" result="shape"/>
<feColorMatrix in="SourceAlpha" type="matrix" values="0 0 0 0 0 0 0 0 0 0 0 0 0 0 0 0 0 0 127 0" result="hardAlpha"/>
<feOffset dx="5" dy="5"/>
<feGaussianBlur stdDeviation="17.85"/>
<feComposite in2="hardAlpha" operator="arithmetic" k2="-1" k3="1"/>
<feColorMatrix type="matrix" values="0 0 0 0 0 0 0 0 0 0 0 0 0 0 0 0 0 0 0.05 0"/>
<feBlend mode="normal" in2="shape" result="effect1_innerShadow_123_182"/>
</filter>
<filter id="filter17_i_123_182" x="189.476" y="191.266" width="43.3865" height="48.9211" filterUnits="userSpaceOnUse" color-interpolation-filters="sRGB">
<feFlood flood-opacity="0" result="BackgroundImageFix"/>
<feBlend mode="normal" in="SourceGraphic" in2="BackgroundImageFix" result="shape"/>
<feColorMatrix in="SourceAlpha" type="matrix" values="0 0 0 0 0 0 0 0 0 0 0 0 0 0 0 0 0 0 127 0" result="hardAlpha"/>
<feOffset dx="5" dy="5"/>
<feGaussianBlur stdDeviation="17.85"/>
<feComposite in2="hardAlpha" operator="arithmetic" k2="-1" k3="1"/>
<feColorMatrix type="matrix" values="0 0 0 0 0 0 0 0 0 0 0 0 0 0 0 0 0 0 0.05 0"/>
<feBlend mode="normal" in2="shape" result="effect1_innerShadow_123_182"/>
</filter>
<filter id="filter18_i_123_182" x="239.261" y="191.295" width="133.739" height="73.0675" filterUnits="userSpaceOnUse" color-interpolation-filters="sRGB">
<feFlood flood-opacity="0" result="BackgroundImageFix"/>
<feBlend mode="normal" in="SourceGraphic" in2="BackgroundImageFix" result="shape"/>
<feColorMatrix in="SourceAlpha" type="matrix" values="0 0 0 0 0 0 0 0 0 0 0 0 0 0 0 0 0 0 127 0" result="hardAlpha"/>
<feOffset dx="5" dy="5"/>
<feGaussianBlur stdDeviation="17.85"/>
<feComposite in2="hardAlpha" operator="arithmetic" k2="-1" k3="1"/>
<feColorMatrix type="matrix" values="0 0 0 0 0 0 0 0 0 0 0 0 0 0 0 0 0 0 0.05 0"/>
<feBlend mode="normal" in2="shape" result="effect1_innerShadow_123_182"/>
</filter>
<filter id="filter19_i_123_182" x="142.362" y="217.021" width="43.7993" height="48.2433" filterUnits="userSpaceOnUse" color-interpolation-filters="sRGB">
<feFlood flood-opacity="0" result="BackgroundImageFix"/>
<feBlend mode="normal" in="SourceGraphic" in2="BackgroundImageFix" result="shape"/>
<feColorMatrix in="SourceAlpha" type="matrix" values="0 0 0 0 0 0 0 0 0 0 0 0 0 0 0 0 0 0 127 0" result="hardAlpha"/>
<feOffset dx="5" dy="5"/>
<feGaussianBlur stdDeviation="17.85"/>
<feComposite in2="hardAlpha" operator="arithmetic" k2="-1" k3="1"/>
<feColorMatrix type="matrix" values="0 0 0 0 0 0 0 0 0 0 0 0 0 0 0 0 0 0 0.05 0"/>
<feBlend mode="normal" in2="shape" result="effect1_innerShadow_123_182"/>
</filter>
<filter id="filter20_i_123_182" x="187.936" y="217.022" width="44.3638" height="48.2419" filterUnits="userSpaceOnUse" color-interpolation-filters="sRGB">
<feFlood flood-opacity="0" result="BackgroundImageFix"/>
<feBlend mode="normal" in="SourceGraphic" in2="BackgroundImageFix" result="shape"/>
<feColorMatrix in="SourceAlpha" type="matrix" values="0 0 0 0 0 0 0 0 0 0 0 0 0 0 0 0 0 0 127 0" result="hardAlpha"/>
<feOffset dx="5" dy="5"/>
<feGaussianBlur stdDeviation="17.85"/>
<feComposite in2="hardAlpha" operator="arithmetic" k2="-1" k3="1"/>
<feColorMatrix type="matrix" values="0 0 0 0 0 0 0 0 0 0 0 0 0 0 0 0 0 0 0.05 0"/>
<feBlend mode="normal" in2="shape" result="effect1_innerShadow_123_182"/>
</filter>
<filter id="filter21_i_123_182" x="49.3096" y="238.576" width="109.339" height="86.2164" filterUnits="userSpaceOnUse" color-interpolation-filters="sRGB">
<feFlood flood-opacity="0" result="BackgroundImageFix"/>
<feBlend mode="normal" in="SourceGraphic" in2="BackgroundImageFix" result="shape"/>
<feColorMatrix in="SourceAlpha" type="matrix" values="0 0 0 0 0 0 0 0 0 0 0 0 0 0 0 0 0 0 127 0" result="hardAlpha"/>
<feOffset dx="5" dy="5"/>
<feGaussianBlur stdDeviation="17.85"/>
<feComposite in2="hardAlpha" operator="arithmetic" k2="-1" k3="1"/>
<feColorMatrix type="matrix" values="0 0 0 0 0 0 0 0 0 0 0 0 0 0 0 0 0 0 0.05 0"/>
<feBlend mode="normal" in2="shape" result="effect1_innerShadow_123_182"/>
</filter>
<filter id="filter22_i_123_182" x="214.727" y="238.576" width="108.996" height="86.2789" filterUnits="userSpaceOnUse" color-interpolation-filters="sRGB">
<feFlood flood-opacity="0" result="BackgroundImageFix"/>
<feBlend mode="normal" in="SourceGraphic" in2="BackgroundImageFix" result="shape"/>
<feColorMatrix in="SourceAlpha" type="matrix" values="0 0 0 0 0 0 0 0 0 0 0 0 0 0 0 0 0 0 127 0" result="hardAlpha"/>
<feOffset dx="5" dy="5"/>
<feGaussianBlur stdDeviation="17.85"/>
<feComposite in2="hardAlpha" operator="arithmetic" k2="-1" k3="1"/>
<feColorMatrix type="matrix" values="0 0 0 0 0 0 0 0 0 0 0 0 0 0 0 0 0 0 0.05 0"/>
<feBlend mode="normal" in2="shape" result="effect1_innerShadow_123_182"/>
</filter>
<filter id="filter23_i_123_182" x="125.01" y="262.976" width="123.685" height="87.4361" filterUnits="userSpaceOnUse" color-interpolation-filters="sRGB">
<feFlood flood-opacity="0" result="BackgroundImageFix"/>
<feBlend mode="normal" in="SourceGraphic" in2="BackgroundImageFix" result="shape"/>
<feColorMatrix in="SourceAlpha" type="matrix" values="0 0 0 0 0 0 0 0 0 0 0 0 0 0 0 0 0 0 127 0" result="hardAlpha"/>
<feOffset dx="5" dy="5"/>
<feGaussianBlur stdDeviation="17.85"/>
<feComposite in2="hardAlpha" operator="arithmetic" k2="-1" k3="1"/>
<feColorMatrix type="matrix" values="0 0 0 0 0 0 0 0 0 0 0 0 0 0 0 0 0 0 0.05 0"/>
<feBlend mode="normal" in2="shape" result="effect1_innerShadow_123_182"/>
</filter>
<filter id="filter24_i_123_182" x="174.402" y="303.156" width="25.1648" height="24.3477" filterUnits="userSpaceOnUse" color-interpolation-filters="sRGB">
<feFlood flood-opacity="0" result="BackgroundImageFix"/>
<feBlend mode="normal" in="SourceGraphic" in2="BackgroundImageFix" result="shape"/>
<feColorMatrix in="SourceAlpha" type="matrix" values="0 0 0 0 0 0 0 0 0 0 0 0 0 0 0 0 0 0 127 0" result="hardAlpha"/>
<feOffset dx="5" dy="5"/>
<feGaussianBlur stdDeviation="17.85"/>
<feComposite in2="hardAlpha" operator="arithmetic" k2="-1" k3="1"/>
<feColorMatrix type="matrix" values="0 0 0 0 0 0 0 0 0 0 0 0 0 0 0 0 0 0 0.05 0"/>
<feBlend mode="normal" in2="shape" result="effect1_innerShadow_123_182"/>
</filter>
<filter id="filter25_i_123_182" x="153.368" y="322.714" width="34.6716" height="50.4174" filterUnits="userSpaceOnUse" color-interpolation-filters="sRGB">
<feFlood flood-opacity="0" result="BackgroundImageFix"/>
<feBlend mode="normal" in="SourceGraphic" in2="BackgroundImageFix" result="shape"/>
<feColorMatrix in="SourceAlpha" type="matrix" values="0 0 0 0 0 0 0 0 0 0 0 0 0 0 0 0 0 0 127 0" result="hardAlpha"/>
<feOffset dx="5" dy="5"/>
<feGaussianBlur stdDeviation="17.85"/>
<feComposite in2="hardAlpha" operator="arithmetic" k2="-1" k3="1"/>
<feColorMatrix type="matrix" values="0 0 0 0 0 0 0 0 0 0 0 0 0 0 0 0 0 0 0.05 0"/>
<feBlend mode="normal" in2="shape" result="effect1_innerShadow_123_182"/>
</filter>
<filter id="filter26_i_123_182" x="185.939" y="322.741" width="33.6609" height="50.3879" filterUnits="userSpaceOnUse" color-interpolation-filters="sRGB">
<feFlood flood-opacity="0" result="BackgroundImageFix"/>
<feBlend mode="normal" in="SourceGraphic" in2="BackgroundImageFix" result="shape"/>
<feColorMatrix in="SourceAlpha" type="matrix" values="0 0 0 0 0 0 0 0 0 0 0 0 0 0 0 0 0 0 127 0" result="hardAlpha"/>
<feOffset dx="5" dy="5"/>
<feGaussianBlur stdDeviation="17.85"/>
<feComposite in2="hardAlpha" operator="arithmetic" k2="-1" k3="1"/>
<feColorMatrix type="matrix" values="0 0 0 0 0 0 0 0 0 0 0 0 0 0 0 0 0 0 0.05 0"/>
<feBlend mode="normal" in2="shape" result="effect1_innerShadow_123_182"/>
</filter>
<filter id="filter27_i_123_182" x="105.68" y="328.961" width="33.7041" height="36.6133" filterUnits="userSpaceOnUse" color-interpolation-filters="sRGB">
<feFlood flood-opacity="0" result="BackgroundImageFix"/>
<feBlend mode="normal" in="SourceGraphic" in2="BackgroundImageFix" result="shape"/>
<feColorMatrix in="SourceAlpha" type="matrix" values="0 0 0 0 0 0 0 0 0 0 0 0 0 0 0 0 0 0 127 0" result="hardAlpha"/>
<feOffset dx="5" dy="5"/>
<feGaussianBlur stdDeviation="17.85"/>
<feComposite in2="hardAlpha" operator="arithmetic" k2="-1" k3="1"/>
<feColorMatrix type="matrix" values="0 0 0 0 0 0 0 0 0 0 0 0 0 0 0 0 0 0 0.05 0"/>
<feBlend mode="normal" in2="shape" result="effect1_innerShadow_123_182"/>
</filter>
<filter id="filter28_i_123_182" x="232.658" y="328.042" width="34.6287" height="37.8042" filterUnits="userSpaceOnUse" color-interpolation-filters="sRGB">
<feFlood flood-opacity="0" result="BackgroundImageFix"/>
<feBlend mode="normal" in="SourceGraphic" in2="BackgroundImageFix" result="shape"/>
<feColorMatrix in="SourceAlpha" type="matrix" values="0 0 0 0 0 0 0 0 0 0 0 0 0 0 0 0 0 0 127 0" result="hardAlpha"/>
<feOffset dx="5" dy="5"/>
<feGaussianBlur stdDeviation="17.85"/>
<feComposite in2="hardAlpha" operator="arithmetic" k2="-1" k3="1"/>
<feColorMatrix type="matrix" values="0 0 0 0 0 0 0 0 0 0 0 0 0 0 0 0 0 0 0.05 0"/>
<feBlend mode="normal" in2="shape" result="effect1_innerShadow_123_182"/>
</filter>
<filter id="filter29_i_123_182" x="121.058" y="352.442" width="65.8093" height="100.964" filterUnits="userSpaceOnUse" color-interpolation-filters="sRGB">
<feFlood flood-opacity="0" result="BackgroundImageFix"/>
<feBlend mode="normal" in="SourceGraphic" in2="BackgroundImageFix" result="shape"/>
<feColorMatrix in="SourceAlpha" type="matrix" values="0 0 0 0 0 0 0 0 0 0 0 0 0 0 0 0 0 0 127 0" result="hardAlpha"/>
<feOffset dx="5" dy="5"/>
<feGaussianBlur stdDeviation="17.85"/>
<feComposite in2="hardAlpha" operator="arithmetic" k2="-1" k3="1"/>
<feColorMatrix type="matrix" values="0 0 0 0 0 0 0 0 0 0 0 0 0 0 0 0 0 0 0.05 0"/>
<feBlend mode="normal" in2="shape" result="effect1_innerShadow_123_182"/>
</filter>
<filter id="filter30_i_123_182" x="186.102" y="352.657" width="64.8513" height="100.8" filterUnits="userSpaceOnUse" color-interpolation-filters="sRGB">
<feFlood flood-opacity="0" result="BackgroundImageFix"/>
<feBlend mode="normal" in="SourceGraphic" in2="BackgroundImageFix" result="shape"/>
<feColorMatrix in="SourceAlpha" type="matrix" values="0 0 0 0 0 0 0 0 0 0 0 0 0 0 0 0 0 0 127 0" result="hardAlpha"/>
<feOffset dx="5" dy="5"/>
<feGaussianBlur stdDeviation="17.85"/>
<feComposite in2="hardAlpha" operator="arithmetic" k2="-1" k3="1"/>
<feColorMatrix type="matrix" values="0 0 0 0 0 0 0 0 0 0 0 0 0 0 0 0 0 0 0.05 0"/>
<feBlend mode="normal" in2="shape" result="effect1_innerShadow_123_182"/>
</filter>
<filter id="filter31_i_123_182" x="91.5166" y="359.326" width="15.9827" height="14.861" filterUnits="userSpaceOnUse" color-interpolation-filters="sRGB">
<feFlood flood-opacity="0" result="BackgroundImageFix"/>
<feBlend mode="normal" in="SourceGraphic" in2="BackgroundImageFix" result="shape"/>
<feColorMatrix in="SourceAlpha" type="matrix" values="0 0 0 0 0 0 0 0 0 0 0 0 0 0 0 0 0 0 127 0" result="hardAlpha"/>
<feOffset dx="5" dy="5"/>
<feGaussianBlur stdDeviation="17.85"/>
<feComposite in2="hardAlpha" operator="arithmetic" k2="-1" k3="1"/>
<feColorMatrix type="matrix" values="0 0 0 0 0 0 0 0 0 0 0 0 0 0 0 0 0 0 0.05 0"/>
<feBlend mode="normal" in2="shape" result="effect1_innerShadow_123_182"/>
</filter>
<filter id="filter32_i_123_182" x="262.812" y="360.794" width="15.0593" height="14.043" filterUnits="userSpaceOnUse" color-interpolation-filters="sRGB">
<feFlood flood-opacity="0" result="BackgroundImageFix"/>
<feBlend mode="normal" in="SourceGraphic" in2="BackgroundImageFix" result="shape"/>
<feColorMatrix in="SourceAlpha" type="matrix" values="0 0 0 0 0 0 0 0 0 0 0 0 0 0 0 0 0 0 127 0" result="hardAlpha"/>
<feOffset dx="5" dy="5"/>
<feGaussianBlur stdDeviation="17.85"/>
<feComposite in2="hardAlpha" operator="arithmetic" k2="-1" k3="1"/>
<feColorMatrix type="matrix" values="0 0 0 0 0 0 0 0 0 0 0 0 0 0 0 0 0 0 0.05 0"/>
<feBlend mode="normal" in2="shape" result="effect1_innerShadow_123_182"/>
</filter>
<filter id="filter33_i_123_182" x="173.94" y="365.997" width="25.9731" height="25.0497" filterUnits="userSpaceOnUse" color-interpolation-filters="sRGB">
<feFlood flood-opacity="0" result="BackgroundImageFix"/>
<feBlend mode="normal" in="SourceGraphic" in2="BackgroundImageFix" result="shape"/>
<feColorMatrix in="SourceAlpha" type="matrix" values="0 0 0 0 0 0 0 0 0 0 0 0 0 0 0 0 0 0 127 0" result="hardAlpha"/>
<feOffset dx="5" dy="5"/>
<feGaussianBlur stdDeviation="17.85"/>
<feComposite in2="hardAlpha" operator="arithmetic" k2="-1" k3="1"/>
<feColorMatrix type="matrix" values="0 0 0 0 0 0 0 0 0 0 0 0 0 0 0 0 0 0 0.05 0"/>
<feBlend mode="normal" in2="shape" result="effect1_innerShadow_123_182"/>
</filter>
<filter id="filter34_i_123_182" x="108.717" y="378.313" width="15.7944" height="15.6611" filterUnits="userSpaceOnUse" color-interpolation-filters="sRGB">
<feFlood flood-opacity="0" result="BackgroundImageFix"/>
<feBlend mode="normal" in="SourceGraphic" in2="BackgroundImageFix" result="shape"/>
<feColorMatrix in="SourceAlpha" type="matrix" values="0 0 0 0 0 0 0 0 0 0 0 0 0 0 0 0 0 0 127 0" result="hardAlpha"/>
<feOffset dx="5" dy="5"/>
<feGaussianBlur stdDeviation="17.85"/>
<feComposite in2="hardAlpha" operator="arithmetic" k2="-1" k3="1"/>
<feColorMatrix type="matrix" values="0 0 0 0 0 0 0 0 0 0 0 0 0 0 0 0 0 0 0.05 0"/>
<feBlend mode="normal" in2="shape" result="effect1_innerShadow_123_182"/>
</filter>
<filter id="filter35_i_123_182" x="247.169" y="379.553" width="15.8059" height="14.2122" filterUnits="userSpaceOnUse" color-interpolation-filters="sRGB">
<feFlood flood-opacity="0" result="BackgroundImageFix"/>
<feBlend mode="normal" in="SourceGraphic" in2="BackgroundImageFix" result="shape"/>
<feColorMatrix in="SourceAlpha" type="matrix" values="0 0 0 0 0 0 0 0 0 0 0 0 0 0 0 0 0 0 127 0" result="hardAlpha"/>
<feOffset dx="5" dy="5"/>
<feGaussianBlur stdDeviation="17.85"/>
<feComposite in2="hardAlpha" operator="arithmetic" k2="-1" k3="1"/>
<feColorMatrix type="matrix" values="0 0 0 0 0 0 0 0 0 0 0 0 0 0 0 0 0 0 0.05 0"/>
<feBlend mode="normal" in2="shape" result="effect1_innerShadow_123_182"/>
</filter>
<filter id="filter36_i_123_182" x="123.536" y="402.668" width="16.457" height="14.8953" filterUnits="userSpaceOnUse" color-interpolation-filters="sRGB">
<feFlood flood-opacity="0" result="BackgroundImageFix"/>
<feBlend mode="normal" in="SourceGraphic" in2="BackgroundImageFix" result="shape"/>
<feColorMatrix in="SourceAlpha" type="matrix" values="0 0 0 0 0 0 0 0 0 0 0 0 0 0 0 0 0 0 127 0" result="hardAlpha"/>
<feOffset dx="5" dy="5"/>
<feGaussianBlur stdDeviation="17.85"/>
<feComposite in2="hardAlpha" operator="arithmetic" k2="-1" k3="1"/>
<feColorMatrix type="matrix" values="0 0 0 0 0 0 0 0 0 0 0 0 0 0 0 0 0 0 0.05 0"/>
<feBlend mode="normal" in2="shape" result="effect1_innerShadow_123_182"/>
</filter>
<filter id="filter37_i_123_182" x="231.643" y="402.572" width="15.6824" height="14.9666" filterUnits="userSpaceOnUse" color-interpolation-filters="sRGB">
<feFlood flood-opacity="0" result="BackgroundImageFix"/>
<feBlend mode="normal" in="SourceGraphic" in2="BackgroundImageFix" result="shape"/>
<feColorMatrix in="SourceAlpha" type="matrix" values="0 0 0 0 0 0 0 0 0 0 0 0 0 0 0 0 0 0 127 0" result="hardAlpha"/>
<feOffset dx="5" dy="5"/>
<feGaussianBlur stdDeviation="17.85"/>
<feComposite in2="hardAlpha" operator="arithmetic" k2="-1" k3="1"/>
<feColorMatrix type="matrix" values="0 0 0 0 0 0 0 0 0 0 0 0 0 0 0 0 0 0 0.05 0"/>
<feBlend mode="normal" in2="shape" result="effect1_innerShadow_123_182"/>
</filter>
<filter id="filter38_i_123_182" x="138.891" y="429.723" width="16.4995" height="14.9427" filterUnits="userSpaceOnUse" color-interpolation-filters="sRGB">
<feFlood flood-opacity="0" result="BackgroundImageFix"/>
<feBlend mode="normal" in="SourceGraphic" in2="BackgroundImageFix" result="shape"/>
<feColorMatrix in="SourceAlpha" type="matrix" values="0 0 0 0 0 0 0 0 0 0 0 0 0 0 0 0 0 0 127 0" result="hardAlpha"/>
<feOffset dx="5" dy="5"/>
<feGaussianBlur stdDeviation="17.85"/>
<feComposite in2="hardAlpha" operator="arithmetic" k2="-1" k3="1"/>
<feColorMatrix type="matrix" values="0 0 0 0 0 0 0 0 0 0 0 0 0 0 0 0 0 0 0.05 0"/>
<feBlend mode="normal" in2="shape" result="effect1_innerShadow_123_182"/>
</filter>
<filter id="filter39_i_123_182" x="216.125" y="429.683" width="15.6824" height="14.9666" filterUnits="userSpaceOnUse" color-interpolation-filters="sRGB">
<feFlood flood-opacity="0" result="BackgroundImageFix"/>
<feBlend mode="normal" in="SourceGraphic" in2="BackgroundImageFix" result="shape"/>
<feColorMatrix in="SourceAlpha" type="matrix" values="0 0 0 0 0 0 0 0 0 0 0 0 0 0 0 0 0 0 127 0" result="hardAlpha"/>
<feOffset dx="5" dy="5"/>
<feGaussianBlur stdDeviation="17.85"/>
<feComposite in2="hardAlpha" operator="arithmetic" k2="-1" k3="1"/>
<feColorMatrix type="matrix" values="0 0 0 0 0 0 0 0 0 0 0 0 0 0 0 0 0 0 0.05 0"/>
<feBlend mode="normal" in2="shape" result="effect1_innerShadow_123_182"/>
</filter>
<filter id="filter40_i_123_182" x="173.403" y="431.86" width="27.0049" height="77.4999" filterUnits="userSpaceOnUse" color-interpolation-filters="sRGB">
<feFlood flood-opacity="0" result="BackgroundImageFix"/>
<feBlend mode="normal" in="SourceGraphic" in2="BackgroundImageFix" result="shape"/>
<feColorMatrix in="SourceAlpha" type="matrix" values="0 0 0 0 0 0 0 0 0 0 0 0 0 0 0 0 0 0 127 0" result="hardAlpha"/>
<feOffset dx="5" dy="5"/>
<feGaussianBlur stdDeviation="17.85"/>
<feComposite in2="hardAlpha" operator="arithmetic" k2="-1" k3="1"/>
<feColorMatrix type="matrix" values="0 0 0 0 0 0 0 0 0 0 0 0 0 0 0 0 0 0 0.05 0"/>
<feBlend mode="normal" in2="shape" result="effect1_innerShadow_123_182"/>
</filter>
</defs>
</svg>
