<svg width="25" height="36" viewBox="0 0 25 36" fill="none" xmlns="http://www.w3.org/2000/svg">
<path d="M6.98762 0.192032C6.61382 0.566437 6.88219 1.24805 7.40935 1.24805C7.66814 1.24805 8.04195 0.844841 8.04195 0.566437C8.04195 0.307234 7.6969 2.92603e-05 7.41894 2.92603e-05C7.28475 2.92603e-05 7.09305 0.0864305 6.98762 0.192032Z" fill="#AEAEAE"/>
<path d="M17.3394 0.125438C17.1669 0.211839 17.0902 0.336641 17.071 0.567044C17.0039 1.21025 17.7036 1.49826 18.0966 0.99905C18.3554 0.672646 18.3458 0.519044 18.0583 0.24064C17.7995 -0.0281643 17.6845 -0.0473645 17.3394 0.125438Z" fill="#AEAEAE"/>
<path d="M12.0196 0.307349C11.502 0.604953 11.4349 1.20016 11.8662 1.64177C12.1634 1.93937 12.4317 1.98737 12.7672 1.80497C13.0931 1.63217 13.2081 1.43056 13.2177 1.02736C13.2177 0.37455 12.5755 -0.00945573 12.0196 0.307349Z" fill="#AEAEAE"/>
<path d="M5.29118 1.34446C4.61066 1.62286 4.85987 2.68848 5.60748 2.68848C6.26883 2.68848 6.55637 1.95887 6.07713 1.48846C5.83751 1.23886 5.64582 1.20046 5.29118 1.34446Z" fill="#AEAEAE"/>
<path d="M18.8824 1.59415C18.614 1.93975 18.6332 2.17016 18.959 2.50616C19.3041 2.84217 19.5437 2.86137 19.8888 2.56376C20.4159 2.11256 20.1092 1.34454 19.3999 1.34454C19.1699 1.34454 19.0261 1.41175 18.8824 1.59415Z" fill="#AEAEAE"/>
<path d="M8.81816 1.24747C6.78618 1.66987 5.66476 3.7435 6.31653 5.87473C6.74784 7.28595 7.2175 8.18836 9.04819 11.1548L9.80539 12.374L10.1025 12.1436C10.5242 11.7884 11.0227 11.5484 11.5498 11.414C11.8086 11.3468 12.0386 11.2892 12.0482 11.27C12.0674 11.2604 11.6169 10.5404 11.0418 9.67639C9.06736 6.70034 8.26224 4.67471 8.77023 3.9547C9.03861 3.5707 9.68079 3.7051 9.94916 4.19471C10.0833 4.46351 9.97791 4.69391 9.61369 4.96272L9.37407 5.14512L10.0642 6.28754C10.9747 7.81396 10.9172 7.75636 11.3006 7.38195C12.192 6.47954 12.5466 4.0219 11.9715 2.70669C11.4923 1.61227 10.1217 0.978661 8.81816 1.24747Z" fill="#AEAEAE"/>
<path d="M14.8949 1.28701C13.8214 1.55581 13.2272 2.08382 12.9301 3.03423C12.6904 3.84065 12.6809 4.74306 12.9205 5.69347C13.1601 6.59588 13.4093 7.10469 13.8023 7.4311L14.109 7.6903L14.4636 7.13349C14.6553 6.82629 15.0004 6.25988 15.2208 5.86627L15.633 5.16546L15.3358 4.88706C14.9141 4.50305 14.9333 4.09025 15.3933 3.85025C15.7192 3.67744 16.0643 3.72544 16.2272 3.95585C16.7831 4.74306 15.7959 7.09509 13.6106 10.2343C13.2847 10.6951 13.0259 11.1271 13.0259 11.1943C13.0259 11.2519 13.2272 11.3576 13.4668 11.4152C14.0131 11.5592 14.5307 11.8184 14.9237 12.1448L15.2112 12.3848L15.9109 11.2615C17.8087 8.18951 18.1538 7.5271 18.5851 6.25028C18.9205 5.26147 18.9685 4.14785 18.7289 3.45664C18.3838 2.46783 17.387 1.57501 16.3327 1.29661C15.6713 1.13341 15.5371 1.12381 14.8949 1.28701Z" fill="#AEAEAE"/>
<path d="M4.65857 3.82073C4.33269 4.18554 4.5148 4.73274 4.99404 4.84795C5.19532 4.89595 5.31034 4.85755 5.49245 4.66554C5.63622 4.53114 5.74165 4.33914 5.74165 4.22394C5.74165 3.74393 4.98446 3.45593 4.65857 3.82073Z" fill="#AEAEAE"/>
<path d="M19.5629 3.80109C19.1028 4.1179 19.4 4.89551 19.9846 4.89551C20.2051 4.89551 20.5981 4.4923 20.5981 4.2715C20.5981 4.0507 20.2051 3.64749 19.9846 3.64749C19.8696 3.64749 19.6779 3.71469 19.5629 3.80109Z" fill="#AEAEAE"/>
<path d="M5.12823 6.20101C4.7736 6.55621 5.11865 7.18982 5.59789 7.06502C5.73208 7.02662 5.89502 6.90182 5.95253 6.76742C6.17298 6.26821 5.51163 5.8074 5.12823 6.20101Z" fill="#AEAEAE"/>
<path d="M19.1795 6.25919C19.1124 6.32639 19.0645 6.4896 19.0645 6.624C19.0645 6.9408 19.2274 7.104 19.5437 7.104C19.86 7.104 20.0229 6.9408 20.0229 6.624C20.0229 6.30719 19.86 6.14399 19.5437 6.14399C19.4095 6.14399 19.2466 6.19199 19.1795 6.25919Z" fill="#AEAEAE"/>
<path d="M3.92042 7.95853C2.8661 8.30414 2.3581 9.01455 2.36769 10.1474C2.37727 11.5874 3.59454 12.9986 5.40606 13.6802C6.09617 13.9394 7.42845 14.2466 8.29108 14.333L8.77032 14.3906L8.88534 13.9874C8.94284 13.7666 9.14412 13.3346 9.32624 13.0178C9.51793 12.7106 9.67129 12.4418 9.67129 12.4322C9.67129 12.3458 8.89492 12.1634 7.6489 11.9522C5.90447 11.6642 5.37731 11.501 4.85973 11.1074C4.32298 10.6946 4.19838 10.3586 4.46675 10.0034C4.86931 9.46575 5.64568 9.66736 5.83738 10.3682C5.92364 10.6946 6.0099 10.7906 6.41246 10.9922C7.0163 11.2994 7.69682 11.405 7.90769 11.2226C8.25274 10.9442 7.68724 9.90736 6.67125 8.96655C5.77028 8.13134 4.64886 7.71853 3.92042 7.95853Z" fill="#AEAEAE"/>
<path d="M19.7641 8.05451C18.8823 8.35211 18.0581 9.07212 17.3488 10.1473C16.9079 10.8097 16.975 11.3282 17.5021 11.3282C17.7705 11.3282 18.7769 10.9634 18.9782 10.7905C19.0645 10.7137 19.1795 10.4833 19.2466 10.2721C19.3712 9.84014 19.5724 9.69613 20.0517 9.69613C20.8376 9.69613 20.9527 10.5793 20.2242 11.0786C19.7066 11.4434 18.9207 11.6738 17.2338 11.9522C15.8536 12.1826 15.4222 12.3074 15.4222 12.461C15.4222 12.509 15.5277 12.6914 15.6619 12.8642C15.796 13.0466 15.9973 13.4498 16.1123 13.7474C16.304 14.2946 16.3136 14.3042 16.6874 14.3042C17.2721 14.3042 18.9303 13.9394 19.6875 13.6418C21.4702 12.9506 22.5821 11.693 22.6875 10.2529C22.7258 9.69613 22.6971 9.53293 22.4766 9.08173C21.9591 8.01611 20.9527 7.6417 19.7641 8.05451Z" fill="#AEAEAE"/>
<path d="M11.6839 12.1531C11.3389 12.3931 10.7446 12.7387 10.3708 12.9115C9.98744 13.0939 9.67114 13.2571 9.67114 13.2763C9.67114 13.3051 9.95869 13.4587 10.3037 13.6219C10.6488 13.7851 11.2047 14.1019 11.5306 14.3323C11.8469 14.5531 12.1632 14.7739 12.2111 14.8027C12.2782 14.8411 12.307 14.3131 12.307 13.2859C12.307 12.4219 12.307 11.7115 12.307 11.7211C12.307 11.7211 12.029 11.9227 11.6839 12.1531Z" fill="#AEAEAE"/>
<path d="M12.7769 13.296L12.7673 14.8608L13.2562 14.4864C13.5245 14.2752 14.1284 13.92 14.598 13.6896L15.4415 13.2576L14.8185 12.9696C14.4734 12.816 13.8696 12.48 13.4862 12.2208L12.7769 11.7408V13.296Z" fill="#AEAEAE"/>
<path d="M1.5243 13.6796C-0.181795 14.2172 -0.536431 16.3484 0.872531 17.6156C1.47637 18.1724 2.0227 18.374 2.86616 18.3644C3.71921 18.3644 4.36139 18.2012 6.22084 17.5484C8.7608 16.6556 8.97167 16.5116 8.80873 15.7916C8.7608 15.5804 8.71288 15.2252 8.71288 15.014C8.71288 14.3036 8.3199 14.3132 6.71924 15.062C4.45724 16.118 3.48918 16.4252 2.91409 16.2812C2.34859 16.1372 2.0898 15.4748 2.4636 15.1388C2.70322 14.9276 2.79907 14.9372 3.32623 15.2156C3.69046 15.4076 3.91091 15.4556 4.47641 15.4556C5.15693 15.4556 5.7416 15.2924 5.88537 15.0716C5.92371 15.014 5.87578 14.8796 5.78952 14.7836C5.55949 14.5244 4.16969 13.8236 3.59461 13.67C2.9716 13.5068 2.08021 13.5068 1.5243 13.6796Z" fill="#AEAEAE"/>
<path d="M9.52777 13.8823C9.60445 14.3335 9.61403 16.1479 9.52777 16.4167C9.4415 16.6855 9.51818 16.6663 10.2658 16.1671C10.6396 15.9271 11.2147 15.6007 11.5502 15.4567C11.8856 15.3031 12.1636 15.1495 12.1636 15.1303C12.1636 15.1015 11.8089 14.8999 11.3776 14.6791C10.9367 14.4583 10.3904 14.1415 10.1508 13.9783C9.42233 13.4599 9.4415 13.4599 9.52777 13.8823Z" fill="#AEAEAE"/>
<path d="M15.0388 13.8717C14.7992 14.0541 14.2049 14.3997 13.7161 14.6493C13.2273 14.8989 12.8535 15.1197 12.8727 15.1389C12.8918 15.1677 13.4861 15.5133 14.1954 15.9166L15.4701 16.6558L15.4797 15.1005C15.4797 14.2365 15.4797 13.5357 15.4797 13.5453C15.4701 13.5453 15.2784 13.6989 15.0388 13.8717Z" fill="#AEAEAE"/>
<path d="M21.3745 13.6901C20.7707 13.8533 19.448 14.5253 19.2084 14.7845C18.8633 15.1589 19.4767 15.4565 20.5982 15.4565C21.0774 15.4565 21.3266 15.3989 21.6716 15.2165C22.2084 14.9285 22.3426 14.9189 22.5439 15.1493C22.7643 15.3893 22.7451 15.8021 22.5247 16.0229C22.0263 16.5221 20.7994 16.2821 18.7195 15.2549C16.5534 14.1893 16.3138 14.2277 16.2658 15.5909C16.2371 16.3973 16.2467 16.4453 16.4767 16.6181C16.7451 16.8197 19.2563 17.7605 20.5023 18.1157C21.595 18.4325 22.678 18.4517 23.2915 18.1733C25.0551 17.3765 25.5727 15.2549 24.2787 14.1221C23.6653 13.5749 22.4576 13.3925 21.3745 13.6901Z" fill="#AEAEAE"/>
<path d="M11.636 15.7921C11.3197 16.0225 10.7542 16.3585 10.3708 16.5313C9.98744 16.7041 9.68073 16.8769 9.67114 16.9057C9.67114 16.9441 9.89159 17.0593 10.16 17.1745C10.4379 17.2801 11.013 17.6161 11.4539 17.9041C11.8852 18.1921 12.259 18.4321 12.2782 18.4321C12.2878 18.4321 12.307 17.7409 12.307 16.8961C12.307 16.0513 12.2878 15.3601 12.259 15.3697C12.2303 15.3697 11.9523 15.5617 11.636 15.7921Z" fill="#AEAEAE"/>
<path d="M12.7769 16.9057C12.7865 17.7409 12.7961 18.4321 12.8057 18.4321C12.8248 18.4321 13.2945 18.1537 13.86 17.8177C14.4351 17.4817 15.0198 17.1457 15.1731 17.0689L15.4415 16.9249L14.6939 16.5697C14.2913 16.3777 13.6875 16.0321 13.3616 15.7921L12.7673 15.3697L12.7769 16.9057Z" fill="#AEAEAE"/>
<path d="M8.19525 18.3558C7.78311 19.1622 7.36138 19.9398 7.25595 20.0934C7.01633 20.4294 6.60418 20.6406 6.20162 20.6406C5.82781 20.6406 5.7128 20.5734 5.55944 20.2758C5.46359 20.0934 5.46359 20.007 5.59778 19.815C5.74155 19.5942 5.78947 19.575 6.25913 19.6326C6.66169 19.6902 6.78629 19.671 6.89172 19.5366C7.1601 19.2198 7.94605 17.9046 7.94605 17.7894C7.94605 17.5302 7.51473 17.4342 6.87255 17.559C5.57861 17.8086 3.98754 18.8838 3.54664 19.815C3.07698 20.7751 3.47954 21.9943 4.41885 22.4743C4.88851 22.7143 5.6457 22.7047 6.39332 22.4551C8.12816 21.8695 10.4381 19.6134 10.4381 18.519C10.4381 18.327 10.3422 18.1734 10.093 17.991C9.91093 17.847 9.62339 17.5398 9.47003 17.3094C9.30709 17.079 9.12498 16.8966 9.06747 16.8966C9.00038 16.8966 8.6074 17.559 8.19525 18.3558Z" fill="#AEAEAE"/>
<path d="M15.2019 17.6257C14.5789 18.3169 14.5501 18.3841 14.6076 18.7105C14.761 19.5265 15.9016 20.8513 17.1955 21.7153C18.384 22.5026 19.9176 22.8674 20.579 22.5218C21.2211 22.1858 21.6525 21.4561 21.6525 20.7265C21.6525 19.6705 20.9432 18.7969 19.515 18.0961C18.4799 17.5873 17.646 17.3857 17.2818 17.5585C16.9559 17.7025 16.9943 17.7985 17.6748 18.8449L18.2211 19.6993L18.7866 19.6321C19.3425 19.5649 19.3521 19.5745 19.4575 19.8433C19.6684 20.3809 19.1796 20.8033 18.547 20.6209C18.039 20.4865 17.6556 19.9777 16.8601 18.4129C16.4288 17.5777 16.0358 16.8961 15.9687 16.8961C15.9016 16.8961 15.5565 17.2225 15.2019 17.6257Z" fill="#AEAEAE"/>
<path d="M10.8886 18.7586C10.8599 18.8354 10.304 19.7282 9.66177 20.7362C8.8279 22.0418 8.49243 22.6562 8.49243 22.8578C8.49243 23.0882 8.62662 23.2898 9.17295 23.8371C9.62344 24.2883 9.89181 24.4899 9.94932 24.4323C10.0068 24.3747 10.4861 23.3858 11.0132 22.2242C12.4318 19.1042 12.4509 19.0658 12.5468 19.1618C12.5947 19.2098 13.1794 20.4194 13.8312 21.8402C14.4925 23.261 15.0772 24.4419 15.1347 24.4611C15.2785 24.5091 16.467 23.2514 16.5341 22.973C16.6012 22.7138 16.5916 22.7042 15.2018 20.4674C14.5596 19.4594 13.9941 18.6242 13.927 18.6242C13.8695 18.6242 13.6299 18.6914 13.4094 18.7682C12.8918 18.9506 12.2305 18.9506 11.6267 18.7682C11.042 18.5954 10.9557 18.5858 10.8886 18.7586Z" fill="#AEAEAE"/>
<path d="M12.3936 21.4848C11.8665 21.5712 11.6556 22.3392 12.0582 22.6753C12.3265 22.8865 12.7195 22.8961 13.007 22.6945C13.1604 22.5889 13.2179 22.4544 13.2179 22.1856C13.2179 21.6864 12.8729 21.3984 12.3936 21.4848Z" fill="#AEAEAE"/>
<path d="M11.1857 23.0017C10.649 23.2897 10.7544 23.9233 11.3678 24.0673C11.6937 24.1441 11.7321 24.1825 11.7608 24.4897C11.7992 24.9121 11.4829 25.3249 10.8407 25.7281L10.4189 25.9873L10.764 26.0545C11.5404 26.1985 12.2496 25.4017 12.4126 24.2017C12.5564 23.1265 11.9813 22.5697 11.1857 23.0017Z" fill="#AEAEAE"/>
<path d="M12.8437 23.0787C12.6616 23.2707 12.6232 23.4147 12.6328 23.9427C12.6424 25.2771 13.4379 26.2755 14.3102 26.0355L14.5785 25.9587L14.0897 25.6611C13.5817 25.3347 13.2175 24.8643 13.2175 24.5091C13.2175 24.2787 13.3133 24.1923 13.7351 24.0483C13.8884 23.9907 14.061 23.8851 14.1089 23.7987C14.2622 23.5587 14.1089 23.1555 13.7926 22.9923C13.39 22.7907 13.0929 22.8099 12.8437 23.0787Z" fill="#AEAEAE"/>
<path d="M7.62034 23.8182C7.38072 24.1446 7.17944 24.4614 7.17944 24.5286C7.17944 24.6534 8.08041 25.5366 8.20501 25.5366C8.28169 25.5366 8.98138 24.7494 9.12515 24.5094C9.19225 24.4038 8.45422 23.4534 8.19543 23.3094C8.09958 23.2518 7.92706 23.4054 7.62034 23.8182Z" fill="#AEAEAE"/>
<path d="M16.3041 23.8185L15.8057 24.4041L16.0836 24.7497C16.237 24.9417 16.467 25.2105 16.6012 25.3353L16.8504 25.5562L17.3296 25.1049C17.598 24.8553 17.8185 24.5865 17.8185 24.5097C17.8185 24.3561 16.9846 23.2329 16.8792 23.2329C16.8408 23.2425 16.582 23.5017 16.3041 23.8185Z" fill="#AEAEAE"/>
<path d="M8.67461 25.3835L8.22412 25.8059L8.35831 26.1419C8.43499 26.3243 8.81838 26.9387 9.19218 27.5147C9.58516 28.0907 10.1602 29.1467 10.5053 29.8955C11.1571 31.3548 11.5021 31.8924 11.6746 31.7292C11.8088 31.5948 12.3552 29.9819 12.3552 29.7131C12.3552 29.6075 12.0293 29.0219 11.6267 28.4171C11.2337 27.8123 10.5724 26.7851 10.1794 26.1323C9.70976 25.3931 9.38388 24.9611 9.28803 24.9611C9.19218 24.9611 8.92381 25.1531 8.67461 25.3835Z" fill="#AEAEAE"/>
<path d="M15.4987 25.1235C15.1249 25.5651 12.6425 29.5684 12.6425 29.722C12.6425 29.9908 13.2751 31.7188 13.3901 31.7572C13.5434 31.8052 13.8501 31.2964 14.569 29.7892C14.9332 29.0115 15.5562 27.8883 15.9396 27.3123C16.8885 25.8915 16.8885 25.9107 16.323 25.3827C15.8054 24.9123 15.7096 24.8835 15.4987 25.1235Z" fill="#AEAEAE"/>
<path d="M6.28797 25.4977C6.15379 25.6321 6.22088 26.0161 6.40299 26.1121C6.67137 26.2561 7.08351 25.9105 6.93015 25.6609C6.82472 25.4785 6.41258 25.3825 6.28797 25.4977Z" fill="#AEAEAE"/>
<path d="M17.9239 25.6704C17.7323 25.9008 17.9623 26.2272 18.2786 26.1888C18.499 26.1696 18.5374 26.112 18.5374 25.872C18.5374 25.632 18.499 25.5744 18.2882 25.5552C18.154 25.536 17.991 25.5936 17.9239 25.6704Z" fill="#AEAEAE"/>
<path d="M12.1347 26.1119C11.6651 26.4863 11.7226 27.0431 12.2593 27.2639C12.5181 27.3695 12.6044 27.3695 12.8919 27.2351C13.2082 27.0815 13.2753 26.9279 13.2274 26.4959C13.1986 26.2943 12.7673 25.9199 12.5564 25.9199C12.4606 25.9199 12.2689 26.0063 12.1347 26.1119Z" fill="#AEAEAE"/>
<path d="M7.46663 26.9282C7.21743 27.2354 7.59124 27.7058 7.9267 27.4946C8.15674 27.341 8.18549 27.0626 7.98421 26.909C7.76376 26.7458 7.6104 26.7554 7.46663 26.9282Z" fill="#AEAEAE"/>
<path d="M16.812 27.0718C16.6778 27.4846 17.2337 27.715 17.4638 27.3502C17.6171 27.1006 17.4734 26.8798 17.1571 26.8798C16.9558 26.8798 16.8503 26.9374 16.812 27.0718Z" fill="#AEAEAE"/>
<path d="M8.4253 28.7045C8.28153 28.9829 8.63617 29.3285 8.91413 29.1845C9.17291 29.0405 9.24001 28.8293 9.09624 28.6564C8.92371 28.4548 8.5499 28.474 8.4253 28.7045Z" fill="#AEAEAE"/>
<path d="M15.7961 28.7138C15.7002 28.9058 15.7098 28.9538 15.9015 29.1074C16.1891 29.3378 16.5054 29.1842 16.4574 28.8194C16.4191 28.4642 15.9686 28.397 15.7961 28.7138Z" fill="#AEAEAE"/>
<path d="M9.47937 30.6245C9.4027 30.7685 9.42186 30.8549 9.56564 30.9989C9.78609 31.2197 10.1216 31.1717 10.1982 30.8933C10.3324 30.4901 9.68065 30.2405 9.47937 30.6245Z" fill="#AEAEAE"/>
<path d="M14.7416 30.6337C14.6458 30.8257 14.6554 30.8737 14.8471 31.0273C15.1346 31.2577 15.4509 31.1041 15.403 30.7393C15.3646 30.3841 14.9142 30.3169 14.7416 30.6337Z" fill="#AEAEAE"/>
<path d="M12.125 31.6606C11.9333 32.2751 11.7799 32.8703 11.7799 32.9759C11.7799 33.2063 12.4125 35.6159 12.4892 35.6927C12.585 35.7887 12.633 35.6735 12.978 34.4063C13.3039 33.2447 13.3231 33.1295 13.2176 32.6399C13.0547 31.9199 12.6521 30.643 12.5563 30.5854C12.5179 30.5566 12.3262 31.0462 12.125 31.6606Z" fill="#AEAEAE"/>
</svg>
