<svg width="40" height="58" viewBox="0 0 40 58" fill="none" xmlns="http://www.w3.org/2000/svg">
<path d="M11.1802 0.307228C10.5822 0.906278 11.0116 1.99686 11.855 1.99686C12.2691 1.99686 12.8672 1.35173 12.8672 0.906278C12.8672 0.491551 12.3151 2.28398e-05 11.8704 2.28398e-05C11.6557 2.28398e-05 11.3489 0.138265 11.1802 0.307228Z" fill="white"/>
<path d="M27.7427 0.199689C27.4667 0.337931 27.344 0.537614 27.3133 0.906261C27.206 1.9354 28.3255 2.39621 28.9543 1.59747C29.3683 1.07522 29.353 0.829459 28.8929 0.384012C28.4789 -0.0460755 28.2948 -0.076796 27.7427 0.199689Z" fill="white"/>
<path d="M19.2314 0.491519C18.4033 0.967687 18.296 1.92002 18.9861 2.6266C19.4615 3.10276 19.8909 3.17956 20.4276 2.88772C20.949 2.61124 21.1331 2.28867 21.1484 1.64354C21.1484 0.599041 20.1209 -0.0153695 19.2314 0.491519Z" fill="white"/>
<path d="M14.1094 1.99684C10.8582 2.67269 9.06391 5.9905 10.1067 9.40048C10.7968 11.6584 11.5483 13.1023 14.4774 17.8486L15.6889 19.7994L16.1643 19.4307C16.8391 18.8624 17.6366 18.4784 18.48 18.2634C18.8941 18.1558 19.2621 18.0637 19.2775 18.0329C19.3082 18.0176 18.5874 16.8656 17.6672 15.4831C14.5081 10.7215 13.2199 7.48045 14.0327 6.32843C14.4621 5.71402 15.4896 5.92906 15.919 6.71244C16.1337 7.14252 15.965 7.51117 15.3822 7.94126L14.9988 8.2331L16.103 10.061C17.5599 12.5033 17.4679 12.4111 18.0813 11.812C19.5075 10.3682 20.0749 6.43595 19.1548 4.3316C18.388 2.58053 16.195 1.56675 14.1094 1.99684Z" fill="white"/>
<path d="M23.8322 2.0583C22.1146 2.48839 21.1638 3.3332 20.6884 4.85387C20.305 6.14413 20.2897 7.58799 20.6731 9.10866C21.0564 10.5525 21.4552 11.3666 22.0839 11.8889L22.5747 12.3036L23.1421 11.4127C23.4488 10.9212 24.0009 10.0149 24.3536 9.38514L25.0131 8.26384L24.5377 7.8184C23.8629 7.20399 23.8936 6.5435 24.6297 6.15949C25.1511 5.883 25.7032 5.95981 25.9639 6.32845C26.8533 7.58799 25.2738 11.3513 21.7772 16.3741C21.2558 17.1114 20.8418 17.8026 20.8418 17.9101C20.8418 18.0022 21.1638 18.1712 21.5472 18.2634C22.4213 18.4938 23.2495 18.9085 23.8782 19.4308L24.3383 19.8148L25.4578 18.0176C28.4943 13.1023 29.0463 12.0425 29.7364 9.99955C30.2732 8.41745 30.3499 6.63566 29.9665 5.52972C29.4144 3.94761 27.8195 2.51911 26.1326 2.07366C25.0744 1.81254 24.8597 1.79718 23.8322 2.0583Z" fill="white"/>
<path d="M8.46589 2.15045C7.37706 2.5959 7.77579 4.30089 8.97197 4.30089C10.0301 4.30089 10.4902 3.13351 9.72342 2.38086C9.34003 1.98149 9.03331 1.92005 8.46589 2.15045Z" fill="white"/>
<path d="M30.2118 2.54979C29.7824 3.10276 29.8131 3.47141 30.3345 4.00902C30.8866 4.54663 31.27 4.57735 31.8221 4.10118C32.6655 3.37925 32.1748 2.15043 31.04 2.15043C30.6719 2.15043 30.4419 2.25795 30.2118 2.54979Z" fill="white"/>
<path d="M7.45372 6.11337C6.93231 6.69706 7.22368 7.5726 7.99047 7.75692C8.31252 7.83372 8.49655 7.77228 8.78792 7.46508C9.01796 7.25003 9.18665 6.94283 9.18665 6.7585C9.18665 5.99049 7.97513 5.52968 7.45372 6.11337Z" fill="white"/>
<path d="M31.3006 6.08267C30.5645 6.58956 31.0399 7.83374 31.9754 7.83374C32.3281 7.83374 32.9569 7.18861 32.9569 6.83532C32.9569 6.48204 32.3281 5.83691 31.9754 5.83691C31.7914 5.83691 31.4847 5.94443 31.3006 6.08267Z" fill="white"/>
<path d="M8.20498 9.92273C7.63756 10.4911 8.18965 11.5048 8.95643 11.3052C9.17113 11.2437 9.43184 11.044 9.52385 10.829C9.87657 10.0303 8.81841 9.29296 8.20498 9.92273Z" fill="white"/>
<path d="M30.6872 10.0149C30.5799 10.1224 30.5032 10.3835 30.5032 10.5986C30.5032 11.1055 30.7639 11.3666 31.27 11.3666C31.776 11.3666 32.0367 11.1055 32.0367 10.5986C32.0367 10.0917 31.776 9.83055 31.27 9.83055C31.0553 9.83055 30.7946 9.90735 30.6872 10.0149Z" fill="white"/>
<path d="M6.27268 12.7336C4.58575 13.2866 3.77296 14.4233 3.7883 16.2358C3.80363 18.5398 5.75127 20.7978 8.64971 21.8884C9.75388 22.3031 11.8855 22.7946 13.2658 22.9329L14.0325 23.025L14.2166 22.3799C14.3086 22.0266 14.6306 21.3354 14.922 20.8285C15.2287 20.337 15.4741 19.9069 15.4741 19.8915C15.4741 19.7533 14.2319 19.4614 12.2383 19.1235C9.44717 18.6627 8.6037 18.4016 7.77558 17.7718C6.91678 17.1113 6.71741 16.5737 7.14681 16.0054C7.79091 15.1452 9.0331 15.4678 9.33982 16.5891C9.47784 17.1113 9.61586 17.2649 10.26 17.5875C11.2261 18.079 12.3149 18.248 12.6523 17.9561C13.2044 17.5107 12.2996 15.8518 10.674 14.3465C9.23247 13.0101 7.43819 12.3496 6.27268 12.7336Z" fill="white"/>
<path d="M31.6226 12.8873C30.2117 13.3634 28.8929 14.5154 27.758 16.2358C27.0526 17.2956 27.1599 18.1251 28.0034 18.1251C28.4328 18.1251 30.043 17.5414 30.3651 17.2649C30.5031 17.142 30.6871 16.7734 30.7945 16.4355C30.9938 15.7443 31.3159 15.5139 32.0827 15.5139C33.3402 15.5139 33.5242 16.927 32.3587 17.7257C31.5306 18.3094 30.2731 18.6781 27.574 19.1235C25.3656 19.4922 24.6755 19.6918 24.6755 19.9376C24.6755 20.0144 24.8442 20.3063 25.0589 20.5827C25.2736 20.8746 25.5957 21.5197 25.7797 21.9959C26.0864 22.8714 26.1018 22.8868 26.6998 22.8868C27.6353 22.8868 30.2884 22.3031 31.4999 21.8269C34.3524 20.721 36.1313 18.7088 36.3 16.4048C36.3613 15.5139 36.3153 15.2527 35.9626 14.5308C35.1345 12.8258 33.5242 12.2268 31.6226 12.8873Z" fill="white"/>
<path d="M18.6946 19.4461C18.1425 19.8301 17.1917 20.3831 16.5936 20.6596C15.9802 20.9514 15.4741 21.2125 15.4741 21.2433C15.4741 21.2893 15.9342 21.5351 16.4863 21.7962C17.0384 22.0573 17.9278 22.5642 18.4492 22.9329C18.9553 23.2862 19.4614 23.6395 19.5381 23.6855C19.6454 23.747 19.6914 22.9022 19.6914 21.2586C19.6914 19.8762 19.6914 18.7395 19.6914 18.7549C19.6914 18.7549 19.2467 19.0775 18.6946 19.4461Z" fill="white"/>
<path d="M20.4431 21.274L20.4277 23.7777L21.2099 23.1786C21.6393 22.8407 22.6054 22.2724 23.3569 21.9037L24.7064 21.2125L23.7096 20.7517C23.1575 20.5059 22.1913 19.9683 21.5779 19.5536L20.4431 18.7856V21.274Z" fill="white"/>
<path d="M2.43888 21.8884C-0.290872 22.7486 -0.858292 26.1585 1.39605 28.1861C2.3622 29.077 3.23634 29.3995 4.58588 29.3842C5.95075 29.3842 6.97824 29.1231 9.95336 28.0786C14.0173 26.6501 14.3547 26.4197 14.094 25.2676C14.0173 24.9297 13.9406 24.3614 13.9406 24.0235C13.9406 22.8868 13.3119 22.9022 10.7508 24.1003C7.1316 25.7899 5.5827 26.2814 4.66255 26.051C3.75775 25.8206 3.34369 24.7607 3.94178 24.2231C4.32517 23.8852 4.47853 23.9006 5.32199 24.346C5.90474 24.6532 6.25747 24.73 7.16227 24.73C8.2511 24.73 9.18658 24.4689 9.41662 24.1156C9.47796 24.0235 9.40128 23.8084 9.26326 23.6548C8.8952 23.2401 6.67153 22.1188 5.75139 21.873C4.75457 21.6119 3.32835 21.6119 2.43888 21.8884Z" fill="white"/>
<path d="M15.2441 22.2109C15.3668 22.9329 15.3822 25.836 15.2441 26.2661C15.1061 26.6961 15.2288 26.6654 16.425 25.8667C17.0231 25.4827 17.9432 24.9604 18.48 24.73C19.0167 24.4843 19.4614 24.2385 19.4614 24.2078C19.4614 24.1617 18.894 23.8391 18.2039 23.4858C17.4985 23.1326 16.6243 22.6257 16.241 22.3645C15.0754 21.5351 15.1061 21.5351 15.2441 22.2109Z" fill="white"/>
<path d="M24.0622 22.1956C23.6788 22.4874 22.728 23.0404 21.9459 23.4398C21.1638 23.8391 20.5657 24.1924 20.5963 24.2231C20.627 24.2692 21.5778 24.8222 22.7127 25.4673L24.7523 26.6501L24.7676 24.1617C24.7676 22.7793 24.7676 21.658 24.7676 21.6733C24.7523 21.6733 24.4456 21.9191 24.0622 22.1956Z" fill="white"/>
<path d="M34.199 21.9037C33.2329 22.1648 31.1165 23.2401 30.7331 23.6548C30.1811 24.2538 31.1625 24.73 32.9568 24.73C33.7236 24.73 34.1223 24.6378 34.6744 24.346C35.5332 23.8852 35.7479 23.8698 36.07 24.2385C36.4227 24.6225 36.392 25.283 36.0393 25.6363C35.2418 26.435 33.2789 26.051 29.951 24.4074C26.4852 22.7025 26.1018 22.7639 26.0251 24.9451C25.9791 26.2353 25.9944 26.3121 26.3625 26.5886C26.7919 26.9112 30.8098 28.4165 32.8035 28.9848C34.5517 29.4917 36.2847 29.5224 37.2661 29.077C40.0879 27.8021 40.916 24.4074 38.8457 22.5949C37.8642 21.7194 35.9319 21.4276 34.199 21.9037Z" fill="white"/>
<path d="M18.6179 25.2676C18.1119 25.6363 17.2071 26.1739 16.5936 26.4504C15.9802 26.7269 15.4895 27.0033 15.4741 27.0494C15.4741 27.1109 15.8268 27.2952 16.2562 27.4795C16.701 27.6485 17.6211 28.1861 18.3266 28.6469C19.0167 29.1077 19.6148 29.4917 19.6454 29.4917C19.6608 29.4917 19.6914 28.3858 19.6914 27.0341C19.6914 25.6824 19.6608 24.5764 19.6148 24.5918C19.5687 24.5918 19.124 24.899 18.6179 25.2676Z" fill="white"/>
<path d="M20.4431 27.0494C20.4584 28.3858 20.4737 29.4917 20.4891 29.4917C20.5197 29.4917 21.2712 29.0463 22.176 28.5086C23.0961 27.971 24.0316 27.4334 24.277 27.3105L24.7064 27.0801L23.5102 26.5118C22.8661 26.2046 21.9 25.6516 21.3785 25.2676L20.4277 24.5918L20.4431 27.0494Z" fill="white"/>
<path d="M13.1125 29.3688C12.4531 30.6591 11.7783 31.9033 11.6096 32.149C11.2262 32.6866 10.5668 33.0246 9.9227 33.0246C9.32461 33.0246 9.14058 32.917 8.89521 32.4409C8.74185 32.149 8.74185 32.0108 8.95655 31.7036C9.18659 31.3503 9.26327 31.3196 10.0147 31.4117C10.6588 31.5039 10.8582 31.4732 11.0269 31.2581C11.4563 30.7512 12.7138 28.6469 12.7138 28.4626C12.7138 28.0478 12.0237 27.8942 10.9962 28.0939C8.92588 28.4933 6.38016 30.2136 5.67472 31.7036C4.92327 33.2396 5.56737 35.1904 7.07026 35.9584C7.82171 36.3424 9.03323 36.327 10.2294 35.9277C13.0052 34.9907 16.7011 31.381 16.7011 29.6299C16.7011 29.3227 16.5477 29.077 16.149 28.7851C15.8576 28.5547 15.3975 28.0632 15.1522 27.6946C14.8915 27.3259 14.6001 27.0341 14.5081 27.0341C14.4007 27.0341 13.772 28.0939 13.1125 29.3688Z" fill="white"/>
<path d="M24.3228 28.2014C23.326 29.3074 23.28 29.4149 23.372 29.9372C23.6174 31.2428 25.4424 33.3625 27.5127 34.7449C29.4143 36.0045 31.868 36.5881 32.9262 36.0352C33.9537 35.4976 34.6438 34.3302 34.6438 33.1628C34.6438 31.4732 33.5089 30.0754 31.2239 28.9541C29.5676 28.14 28.2334 27.8174 27.6507 28.0939C27.1293 28.3243 27.1906 28.4779 28.2795 30.1522L29.1536 31.5193L30.0584 31.4117C30.9479 31.3042 30.9632 31.3196 31.1319 31.7497C31.4693 32.6098 30.6872 33.2857 29.675 32.9938C28.8622 32.7788 28.2488 31.9647 26.9759 29.461C26.2858 28.1246 25.6571 27.0341 25.5497 27.0341C25.4424 27.0341 24.8903 27.5563 24.3228 28.2014Z" fill="white"/>
<path d="M17.4218 30.0139C17.3758 30.1368 16.4863 31.5653 15.4588 33.1782C14.1246 35.2671 13.5879 36.2502 13.5879 36.5728C13.5879 36.9414 13.8026 37.264 14.6767 38.1395C15.3975 38.8615 15.8269 39.184 15.9189 39.0919C16.0109 38.9997 16.7777 37.4176 17.6212 35.559C19.8909 30.5669 19.9215 30.5055 20.0749 30.6591C20.1516 30.7359 21.087 32.6713 22.1299 34.9446C23.188 37.2179 24.1235 39.1072 24.2155 39.1379C24.4456 39.2147 26.3472 37.2025 26.4545 36.7571C26.5619 36.3424 26.5465 36.327 24.3229 32.7481C23.2954 31.1352 22.3906 29.7989 22.2832 29.7989C22.1912 29.7989 21.8078 29.9064 21.4551 30.0293C20.627 30.3211 19.5688 30.3211 18.6027 30.0293C17.6672 29.7528 17.5292 29.7375 17.4218 30.0139Z" fill="white"/>
<path d="M19.8295 34.3763C18.986 34.5145 18.6487 35.7433 19.2928 36.2809C19.7221 36.6189 20.3509 36.6342 20.811 36.3117C21.0564 36.1427 21.1484 35.9276 21.1484 35.4976C21.1484 34.6988 20.5963 34.238 19.8295 34.3763Z" fill="white"/>
<path d="M17.8973 36.8032C17.0385 37.264 17.2072 38.2778 18.1886 38.5082C18.7101 38.6311 18.7714 38.6925 18.8174 39.184C18.8787 39.8599 18.3727 40.5204 17.3452 41.1655L16.6704 41.5802L17.2225 41.6878C18.4647 41.9182 19.5995 40.6433 19.8602 38.7232C20.0903 37.0029 19.1701 36.112 17.8973 36.8032Z" fill="white"/>
<path d="M20.5502 36.926C20.2589 37.2332 20.1975 37.4636 20.2129 38.3085C20.2282 40.4435 21.5011 42.041 22.8966 41.657L23.326 41.5341L22.5439 41.0579C21.7311 40.5357 21.1483 39.783 21.1483 39.2147C21.1483 38.8461 21.3017 38.7078 21.9765 38.4774C22.2218 38.3853 22.4979 38.2163 22.5746 38.0781C22.8199 37.6941 22.5746 37.0489 22.0685 36.7878C21.4244 36.4652 20.949 36.496 20.5502 36.926Z" fill="white"/>
<path d="M12.1923 38.1088C11.8089 38.6311 11.4868 39.138 11.4868 39.2455C11.4868 39.4452 12.9284 40.8583 13.1277 40.8583C13.2504 40.8583 14.3699 39.5988 14.6 39.2148C14.7073 39.0458 13.5265 37.5251 13.1124 37.2947C12.959 37.2026 12.683 37.4483 12.1923 38.1088Z" fill="white"/>
<path d="M26.0865 38.1088L25.2891 39.0458L25.7338 39.5987C25.9792 39.906 26.3472 40.336 26.5619 40.5357L26.9607 40.889L27.7274 40.1671C28.1568 39.7677 28.5096 39.3376 28.5096 39.2147C28.5096 38.969 27.1754 37.1718 27.0067 37.1718C26.9453 37.1872 26.5313 37.6019 26.0865 38.1088Z" fill="white"/>
<path d="M13.8792 40.6125L13.1584 41.2884L13.3731 41.826C13.4958 42.1178 14.1093 43.1009 14.7074 44.0225C15.3361 44.9441 16.2563 46.6338 16.8083 47.8319C17.8512 50.1666 18.4033 51.0268 18.6793 50.7657C18.894 50.5506 19.7681 47.9701 19.7681 47.54C19.7681 47.371 19.2467 46.4341 18.6026 45.4664C17.9739 44.4987 16.9157 42.8551 16.2869 41.8106C15.5355 40.6279 15.0141 39.9367 14.8607 39.9367C14.7074 39.9367 14.278 40.2439 13.8792 40.6125Z" fill="white"/>
<path d="M24.7983 40.1978C24.2002 40.9044 20.2283 47.3096 20.2283 47.5554C20.2283 47.9855 21.2404 50.7503 21.4245 50.8117C21.6698 50.8885 22.1606 50.0744 23.3107 47.6629C23.8935 46.4187 24.8903 44.6216 25.5037 43.6999C27.022 41.4266 27.022 41.4573 26.1172 40.6125C25.289 39.8599 25.1357 39.8138 24.7983 40.1978Z" fill="white"/>
<path d="M10.0606 40.7969C9.84591 41.0119 9.95326 41.6263 10.2446 41.7799C10.674 42.0103 11.3335 41.4573 11.0881 41.058C10.9194 40.7661 10.26 40.6125 10.0606 40.7969Z" fill="white"/>
<path d="M28.6783 41.0734C28.3716 41.442 28.7397 41.9643 29.2457 41.9028C29.5985 41.8721 29.6598 41.7799 29.6598 41.3959C29.6598 41.0119 29.5985 40.9198 29.2611 40.889C29.0464 40.8583 28.7857 40.9505 28.6783 41.0734Z" fill="white"/>
<path d="M19.4156 41.7799C18.6641 42.379 18.7562 43.2699 19.615 43.6231C20.029 43.7921 20.167 43.7921 20.6271 43.5771C21.1332 43.3313 21.2405 43.0855 21.1639 42.3943C21.1179 42.0718 20.4277 41.4727 20.0904 41.4727C19.937 41.4727 19.6303 41.611 19.4156 41.7799Z" fill="white"/>
<path d="M11.947 43.0855C11.5482 43.5771 12.1463 44.3297 12.6831 43.9918C13.0511 43.746 13.0971 43.3006 12.7751 43.0548C12.4224 42.7937 12.177 42.8091 11.947 43.0855Z" fill="white"/>
<path d="M26.8992 43.3159C26.6845 43.9764 27.574 44.3451 27.942 43.7614C28.1874 43.362 27.9574 43.0087 27.4513 43.0087C27.1292 43.0087 26.9605 43.1009 26.8992 43.3159Z" fill="white"/>
<path d="M13.4807 45.9272C13.2506 46.3726 13.8181 46.9256 14.2628 46.6952C14.6769 46.4648 14.7842 46.1269 14.5542 45.8504C14.2781 45.5278 13.68 45.5585 13.4807 45.9272Z" fill="white"/>
<path d="M25.2737 45.9425C25.1203 46.2497 25.1357 46.3265 25.4424 46.5723C25.9024 46.9409 26.4085 46.6952 26.3318 46.1115C26.2705 45.5432 25.5497 45.4356 25.2737 45.9425Z" fill="white"/>
<path d="M15.1676 48.9992C15.0449 49.2296 15.0756 49.3679 15.3056 49.5983C15.6583 49.9516 16.1951 49.8748 16.3178 49.4293C16.5325 48.7842 15.4896 48.3848 15.1676 48.9992Z" fill="white"/>
<path d="M23.5869 49.0146C23.4336 49.3218 23.4489 49.3986 23.7556 49.6444C24.2157 50.013 24.7217 49.7673 24.6451 49.1836C24.5837 48.6152 23.863 48.5077 23.5869 49.0146Z" fill="white"/>
<path d="M19.4002 50.6581C19.0935 51.6412 18.8481 52.5935 18.8481 52.7625C18.8481 53.1311 19.8603 56.9866 19.983 57.1095C20.1363 57.2631 20.213 57.0787 20.7651 55.0512C21.2865 53.1926 21.3172 53.0083 21.1485 52.2249C20.8878 51.0729 20.2437 49.03 20.0903 48.9378C20.029 48.8917 19.7223 49.6751 19.4002 50.6581Z" fill="white"/>
</svg>
