<svg width="1448" height="139" viewBox="0 0 1448 139" fill="none" xmlns="http://www.w3.org/2000/svg">
<g clip-path="url(#clip0_152_182)">
<path d="M1448 69.5L1387.67 74.1664C1327.33 78.4357 1206.67 88.3643 1086 85.6836C965.333 83.4 844.667 69.5 724 69.5C603.333 69.5 482.667 83.4 362 95.0164C241.333 106.236 120.667 116.164 6.48499e-05 101.966C-120.667 88.3643 -241.333 50.6357 -362 32.4664C-482.667 13.9 -603.333 13.9 -724 18.5664C-844.667 22.8357 -965.333 32.7643 -1086 34.75C-1206.67 36.7357 -1327.33 32.7643 -1448 46.3664C-1568.67 60.5643 -1689.33 92.3357 -1810 95.0164C-1930.67 97.3 -2051.33 69.5 -2172 67.2164C-2292.67 64.5357 -2413.33 88.3643 -2534 101.966C-2654.67 116.164 -2775.33 120.136 -2896 122.816C-3016.67 125.1 -3137.33 125.1 -3258 113.484C-3378.67 102.264 -3499.33 78.4357 -3620 62.55C-3740.67 46.6643 -3861.33 36.7357 -3982 41.7C-4102.67 46.6643 -4223.33 64.5357 -4344 69.5C-4464.67 74.4643 -4585.33 64.5357 -4706 69.5C-4826.67 74.4643 -4947.33 92.3357 -5068 92.6336C-5188.67 92.3357 -5309.33 74.4643 -5430 64.8336C-5550.67 55.6 -5671.33 55.6 -5792 55.6C-5912.67 55.6 -6033.33 55.6 -6154 67.2164C-6274.67 78.4357 -6395.33 102.264 -6516 108.916C-6636.67 116.164 -6757.33 106.236 -6878 108.916C-6998.67 111.2 -7119.33 125.1 -7179.67 132.05L-7240 139V-2.14577e-06H-7179.67C-7119.33 -2.14577e-06 -6998.67 -2.14577e-06 -6878 -2.14577e-06C-6757.33 -2.14577e-06 -6636.67 -2.14577e-06 -6516 -2.14577e-06C-6395.33 -2.14577e-06 -6274.67 -2.14577e-06 -6154 -2.14577e-06C-6033.33 -2.14577e-06 -5912.67 -2.14577e-06 -5792 -2.14577e-06C-5671.33 -2.14577e-06 -5550.67 -2.14577e-06 -5430 -2.14577e-06C-5309.33 -2.14577e-06 -5188.67 -2.14577e-06 -5068 -2.14577e-06C-4947.33 -2.14577e-06 -4826.67 -2.14577e-06 -4706 -2.14577e-06C-4585.33 -2.14577e-06 -4464.67 -2.14577e-06 -4344 -2.14577e-06C-4223.33 -2.14577e-06 -4102.67 -2.14577e-06 -3982 -2.14577e-06C-3861.33 -2.14577e-06 -3740.67 -2.14577e-06 -3620 -2.14577e-06C-3499.33 -2.14577e-06 -3378.67 -2.14577e-06 -3258 -2.14577e-06C-3137.33 -2.14577e-06 -3016.67 -2.14577e-06 -2896 -2.14577e-06C-2775.33 -2.14577e-06 -2654.67 -2.14577e-06 -2534 -2.14577e-06C-2413.33 -2.14577e-06 -2292.67 -2.14577e-06 -2172 -2.14577e-06C-2051.33 -2.14577e-06 -1930.67 -2.14577e-06 -1810 -2.14577e-06C-1689.33 -2.14577e-06 -1568.67 -2.14577e-06 -1448 -2.14577e-06C-1327.33 -2.14577e-06 -1206.67 -2.14577e-06 -1086 -2.14577e-06C-965.333 -2.14577e-06 -844.667 -2.14577e-06 -724 -2.14577e-06C-603.333 -2.14577e-06 -482.667 -2.14577e-06 -362 -2.14577e-06C-241.333 -2.14577e-06 -120.667 -2.14577e-06 6.48499e-05 -2.14577e-06C120.667 -2.14577e-06 241.333 -2.14577e-06 362 -2.14577e-06C482.667 -2.14577e-06 603.333 -2.14577e-06 724 -2.14577e-06C844.667 -2.14577e-06 965.333 -2.14577e-06 1086 -2.14577e-06C1206.67 -2.14577e-06 1327.33 -2.14577e-06 1387.67 -2.14577e-06H1448V69.5Z" fill="#DFDFDF"/>
<path opacity="0.9" d="M1448 69.5L1387.67 64.8336C1327.33 60.5643 1206.67 50.6357 1086 55.6C965.333 60.5643 844.667 78.4357 724 90.35C603.333 102.264 482.667 106.236 362 101.966C241.333 97.3 120.667 83.4 6.48499e-05 85.6836C-120.667 88.3643 -241.333 106.236 -362 106.534C-482.667 106.236 -603.333 88.3643 -724 88.0664C-844.667 88.3643 -965.333 106.236 -1086 118.15C-1206.67 130.064 -1327.33 134.036 -1448 120.434C-1568.67 106.236 -1689.33 74.4643 -1810 69.5C-1930.67 64.5357 -2051.33 88.3643 -2172 88.0664C-2292.67 88.3643 -2413.33 64.5357 -2534 60.2664C-2654.67 55.6 -2775.33 69.5 -2896 85.6836C-3016.67 102.264 -3137.33 120.136 -3258 122.816C-3378.67 125.1 -3499.33 111.2 -3620 90.35C-3740.67 69.5 -3861.33 41.7 -3982 37.0336C-4102.67 32.7643 -4223.33 50.6357 -4344 64.8336C-4464.67 78.4357 -4585.33 88.3643 -4706 81.1164C-4826.67 74.4643 -4947.33 50.6357 -5068 46.3664C-5188.67 41.7 -5309.33 55.6 -5430 71.7836C-5550.67 88.3643 -5671.33 106.236 -5792 115.866C-5912.67 125.1 -6033.33 125.1 -6154 118.15C-6274.67 111.2 -6395.33 97.3 -6516 92.6336C-6636.67 88.3643 -6757.33 92.3357 -6878 83.4C-6998.67 74.4643 -7119.33 50.6357 -7179.67 39.4164L-7240 27.8V-1.49614e-05H-7179.67C-7119.33 -1.49614e-05 -6998.67 -1.49614e-05 -6878 -1.49614e-05C-6757.33 -1.49614e-05 -6636.67 -1.49614e-05 -6516 -1.49614e-05C-6395.33 -1.49614e-05 -6274.67 -1.49614e-05 -6154 -1.49614e-05C-6033.33 -1.49614e-05 -5912.67 -1.49614e-05 -5792 -1.49614e-05C-5671.33 -1.49614e-05 -5550.67 -1.49614e-05 -5430 -1.49614e-05C-5309.33 -1.49614e-05 -5188.67 -1.49614e-05 -5068 -1.49614e-05C-4947.33 -1.49614e-05 -4826.67 -1.49614e-05 -4706 -1.49614e-05C-4585.33 -1.49614e-05 -4464.67 -1.49614e-05 -4344 -1.49614e-05C-4223.33 -1.49614e-05 -4102.67 -1.49614e-05 -3982 -1.49614e-05C-3861.33 -1.49614e-05 -3740.67 -1.49614e-05 -3620 -1.49614e-05C-3499.33 -1.49614e-05 -3378.67 -1.49614e-05 -3258 -1.49614e-05C-3137.33 -1.49614e-05 -3016.67 -1.49614e-05 -2896 -1.49614e-05C-2775.33 -1.49614e-05 -2654.67 -1.49614e-05 -2534 -1.49614e-05C-2413.33 -1.49614e-05 -2292.67 -1.49614e-05 -2172 -1.49614e-05C-2051.33 -1.49614e-05 -1930.67 -1.49614e-05 -1810 -1.49614e-05C-1689.33 -1.49614e-05 -1568.67 -1.49614e-05 -1448 -1.49614e-05C-1327.33 -1.49614e-05 -1206.67 -1.49614e-05 -1086 -1.49614e-05C-965.333 -1.49614e-05 -844.667 -1.49614e-05 -724 -1.49614e-05C-603.333 -1.49614e-05 -482.667 -1.49614e-05 -362 -1.49614e-05C-241.333 -1.49614e-05 -120.667 -1.49614e-05 6.48499e-05 -1.49614e-05C120.667 -1.49614e-05 241.333 -1.49614e-05 362 -1.49614e-05C482.667 -1.49614e-05 603.333 -1.49614e-05 724 -1.49614e-05C844.667 -1.49614e-05 965.333 -1.49614e-05 1086 -1.49614e-05C1206.67 -1.49614e-05 1327.33 -1.49614e-05 1387.67 -1.49614e-05H1448V69.5Z" fill="#DFDFDF" fill-opacity="0.5"/>
</g>
<defs>
<clipPath id="clip0_152_182">
<rect width="1448" height="139" fill="white" transform="matrix(-1 0 0 -1 1448 139)"/>
</clipPath>
</defs>
</svg>
