<svg width="390" height="78" viewBox="0 0 390 78" fill="none" xmlns="http://www.w3.org/2000/svg">
<g clip-path="url(#clip0_155_233)">
<path d="M390 39L373.75 41.6186C357.5 44.0143 325 49.5857 292.5 48.0814C260 46.8 227.5 39 195 39C162.5 39 130 46.8 97.5 53.3186C65 59.6143 32.5 65.1857 -1.43051e-05 57.2186C-32.5 49.5857 -65 28.4143 -97.5 18.2186C-130 7.8 -162.5 7.8 -195 10.4186C-227.5 12.8143 -260 18.3857 -292.5 19.5C-325 20.6143 -357.5 18.3857 -390 26.0186C-422.5 33.9857 -455 51.8143 -487.5 53.3186C-520 54.6 -552.5 39 -585 37.7186C-617.5 36.2143 -650 49.5857 -682.5 57.2186C-715 65.1857 -747.5 67.4143 -780 68.9186C-812.5 70.2 -845 70.2 -877.5 63.6814C-910 57.3857 -942.5 44.0143 -975 35.1C-1007.5 26.1857 -1040 20.6143 -1072.5 23.4C-1105 26.1857 -1137.5 36.2143 -1170 39C-1202.5 41.7857 -1235 36.2143 -1267.5 39C-1300 41.7857 -1332.5 51.8143 -1365 51.9814C-1397.5 51.8143 -1430 41.7857 -1462.5 36.3814C-1495 31.2 -1527.5 31.2 -1560 31.2C-1592.5 31.2 -1625 31.2 -1657.5 37.7186C-1690 44.0143 -1722.5 57.3857 -1755 61.1186C-1787.5 65.1857 -1820 59.6143 -1852.5 61.1186C-1885 62.4 -1917.5 70.2 -1933.75 74.1L-1950 78V4.76837e-07H-1933.75C-1917.5 4.76837e-07 -1885 4.76837e-07 -1852.5 4.76837e-07C-1820 4.76837e-07 -1787.5 4.76837e-07 -1755 4.76837e-07C-1722.5 4.76837e-07 -1690 4.76837e-07 -1657.5 4.76837e-07C-1625 4.76837e-07 -1592.5 4.76837e-07 -1560 4.76837e-07C-1527.5 4.76837e-07 -1495 4.76837e-07 -1462.5 4.76837e-07C-1430 4.76837e-07 -1397.5 4.76837e-07 -1365 4.76837e-07C-1332.5 4.76837e-07 -1300 4.76837e-07 -1267.5 4.76837e-07C-1235 4.76837e-07 -1202.5 4.76837e-07 -1170 4.76837e-07C-1137.5 4.76837e-07 -1105 4.76837e-07 -1072.5 4.76837e-07C-1040 4.76837e-07 -1007.5 4.76837e-07 -975 4.76837e-07C-942.5 4.76837e-07 -910 4.76837e-07 -877.5 4.76837e-07C-845 4.76837e-07 -812.5 4.76837e-07 -780 4.76837e-07C-747.5 4.76837e-07 -715 4.76837e-07 -682.5 4.76837e-07C-650 4.76837e-07 -617.5 4.76837e-07 -585 4.76837e-07C-552.5 4.76837e-07 -520 4.76837e-07 -487.5 4.76837e-07C-455 4.76837e-07 -422.5 4.76837e-07 -390 4.76837e-07C-357.5 4.76837e-07 -325 4.76837e-07 -292.5 4.76837e-07C-260 4.76837e-07 -227.5 4.76837e-07 -195 4.76837e-07C-162.5 4.76837e-07 -130 4.76837e-07 -97.5 4.76837e-07C-65 4.76837e-07 -32.5 4.76837e-07 -1.43051e-05 4.76837e-07C32.5 4.76837e-07 65 4.76837e-07 97.5 4.76837e-07C130 4.76837e-07 162.5 4.76837e-07 195 4.76837e-07C227.5 4.76837e-07 260 4.76837e-07 292.5 4.76837e-07C325 4.76837e-07 357.5 4.76837e-07 373.75 4.76837e-07H390V39Z" fill="#DFDFDF"/>
<path opacity="0.9" d="M390 39L373.75 36.3814C357.5 33.9857 325 28.4143 292.5 31.2C260 33.9857 227.5 44.0143 195 50.7C162.5 57.3857 130 59.6143 97.5 57.2186C65 54.6 32.5 46.8 -1.43051e-05 48.0814C-32.5 49.5857 -65 59.6143 -97.5 59.7814C-130 59.6143 -162.5 49.5857 -195 49.4186C-227.5 49.5857 -260 59.6143 -292.5 66.3C-325 72.9857 -357.5 75.2143 -390 67.5814C-422.5 59.6143 -455 41.7857 -487.5 39C-520 36.2143 -552.5 49.5857 -585 49.4186C-617.5 49.5857 -650 36.2143 -682.5 33.8186C-715 31.2 -747.5 39 -780 48.0814C-812.5 57.3857 -845 67.4143 -877.5 68.9186C-910 70.2 -942.5 62.4 -975 50.7C-1007.5 39 -1040 23.4 -1072.5 20.7814C-1105 18.3857 -1137.5 28.4143 -1170 36.3814C-1202.5 44.0143 -1235 49.5857 -1267.5 45.5186C-1300 41.7857 -1332.5 28.4143 -1365 26.0186C-1397.5 23.4 -1430 31.2 -1462.5 40.2814C-1495 49.5857 -1527.5 59.6143 -1560 65.0186C-1592.5 70.2 -1625 70.2 -1657.5 66.3C-1690 62.4 -1722.5 54.6 -1755 51.9814C-1787.5 49.5857 -1820 51.8143 -1852.5 46.8C-1885 41.7857 -1917.5 28.4143 -1933.75 22.1186L-1950 15.6V-1.79831e-05H-1933.75C-1917.5 -1.79831e-05 -1885 -1.79831e-05 -1852.5 -1.79831e-05C-1820 -1.79831e-05 -1787.5 -1.79831e-05 -1755 -1.79831e-05C-1722.5 -1.79831e-05 -1690 -1.79831e-05 -1657.5 -1.79831e-05C-1625 -1.79831e-05 -1592.5 -1.79831e-05 -1560 -1.79831e-05C-1527.5 -1.79831e-05 -1495 -1.79831e-05 -1462.5 -1.79831e-05C-1430 -1.79831e-05 -1397.5 -1.79831e-05 -1365 -1.79831e-05C-1332.5 -1.79831e-05 -1300 -1.79831e-05 -1267.5 -1.79831e-05C-1235 -1.79831e-05 -1202.5 -1.79831e-05 -1170 -1.79831e-05C-1137.5 -1.79831e-05 -1105 -1.79831e-05 -1072.5 -1.79831e-05C-1040 -1.79831e-05 -1007.5 -1.79831e-05 -975 -1.79831e-05C-942.5 -1.79831e-05 -910 -1.79831e-05 -877.5 -1.79831e-05C-845 -1.79831e-05 -812.5 -1.79831e-05 -780 -1.79831e-05C-747.5 -1.79831e-05 -715 -1.79831e-05 -682.5 -1.79831e-05C-650 -1.79831e-05 -617.5 -1.79831e-05 -585 -1.79831e-05C-552.5 -1.79831e-05 -520 -1.79831e-05 -487.5 -1.79831e-05C-455 -1.79831e-05 -422.5 -1.79831e-05 -390 -1.79831e-05C-357.5 -1.79831e-05 -325 -1.79831e-05 -292.5 -1.79831e-05C-260 -1.79831e-05 -227.5 -1.79831e-05 -195 -1.79831e-05C-162.5 -1.79831e-05 -130 -1.79831e-05 -97.5 -1.79831e-05C-65 -1.79831e-05 -32.5 -1.79831e-05 -1.43051e-05 -1.79831e-05C32.5 -1.79831e-05 65 -1.79831e-05 97.5 -1.79831e-05C130 -1.79831e-05 162.5 -1.79831e-05 195 -1.79831e-05C227.5 -1.79831e-05 260 -1.79831e-05 292.5 -1.79831e-05C325 -1.79831e-05 357.5 -1.79831e-05 373.75 -1.79831e-05H390V39Z" fill="#DFDFDF" fill-opacity="0.5"/>
</g>
<defs>
<clipPath id="clip0_155_233">
<rect width="390" height="78" fill="white" transform="matrix(-1 0 0 -1 390 78)"/>
</clipPath>
</defs>
</svg>
