<svg width="208" height="58" viewBox="0 0 208 58" fill="none" xmlns="http://www.w3.org/2000/svg">
<g clip-path="url(#clip0_7_136)">
<path d="M39.9003 5.93135C35.8785 5.0086 34.4096 11.6134 38.4879 12.3196C42.5627 13.0259 43.4172 6.73698 39.9003 5.93135Z" stroke="#FF9B50" stroke-width="0.3"/>
<path d="M11.6523 6.64109C10.4271 6.0271 9.62905 7.78742 10.5895 8.41205C11.5499 9.03668 12.6339 7.1344 11.6523 6.64109Z" stroke="#FF9B50" stroke-width="0.3"/>
<path d="M13.7709 12.3196C14.2511 9.97366 10.473 8.72086 8.74278 10.8112C7.00906 12.9052 12.1043 13.1181 13.7709 12.3196Z" stroke="#FF9B50" stroke-width="0.3"/>
<path d="M15.5363 16.9333C15.4304 13.8492 9.22288 12.9407 7.09016 15.897C4.96096 18.8569 13.2694 17.4693 15.5363 16.9333Z" stroke="#FF9B50" stroke-width="0.3"/>
<path d="M37.4286 22.2568C39.8544 21.1708 40.3241 16.7274 43.7774 18.36C47.2272 19.9961 49.0597 17.9021 45.2039 16.5713C41.3516 15.2368 40.3241 16.4364 37.87 18.7965C35.416 21.1531 33.6752 21.6677 30.7445 19.7476C27.8173 17.8276 25.7304 20.7627 23.3929 21.9906C21.0519 23.215 19.3217 26.4447 16.4792 25.5681C13.6368 24.6879 10.5118 24.837 7.84946 25.8875C5.18708 26.938 1.41245 29.5359 5.21886 29.9866C9.02528 30.4373 11.3875 28.2547 14.8302 28.6451C18.273 29.0355 20.0702 26.7428 22.5102 25.3622C24.9501 23.9852 26.4402 21.295 29.0672 21.4334C31.6978 21.5718 34.4449 23.8503 37.0508 24.4111C39.6567 24.9754 42.2555 26.5582 44.8437 27.2255C41.2562 28.858 36.9625 29.0213 32.8631 29.3797C28.7636 29.7382 25.2114 30.3451 24.2863 34.6003C23.3576 38.8521 17.2843 37.0598 14.124 38.2275C10.9673 39.3986 5.83679 38.192 2.91312 40.8005C-0.0140765 43.4055 1.68433 47.7247 5.21886 49.3075C8.75339 50.894 13.3931 50.6775 17.2984 49.9357C21.2072 49.1975 24.7523 48.5977 28.5729 47.4266C32.397 46.2589 34.0601 42.788 33.9047 38.9444C33.7529 35.1043 39.9003 34.5613 42.4815 33.7237C45.0591 32.8826 50.0802 28.9361 47.3437 26.1324C44.6107 23.3286 40.3947 24.4891 37.4286 22.2568Z" stroke="#FF9B50" stroke-width="0.3"/>
<path d="M12.7116 19.0628C9.67493 18.6262 8.87692 20.0778 6.03094 21.2206C3.18495 22.3598 6.67358 24.8051 9.15587 23.2968C11.6382 21.7849 14.3041 23.6978 16.8605 22.1682C19.417 20.6421 13.845 19.226 12.7116 19.0628Z" stroke="#FF9B50" stroke-width="0.3"/>
<path d="M0.352999 37.5177C3.80632 37.2834 7.70807 37.3863 10.946 36.4529C14.1839 35.5195 18.2693 37.2124 21.1753 35.3776C24.0778 33.5392 17.2983 32.5135 15.1903 31.8321C13.0858 31.1507 9.01101 30.8135 6.95244 32.7939C4.89739 34.7778 0.0952359 33.8054 0.352999 37.5177Z" stroke="#FF9B50" stroke-width="0.3"/>
<path d="M41.3128 36.8079C38.9717 36.5169 35.1935 39.4697 36.2564 41.8901C37.3192 44.3106 41.3092 42.5573 43.8975 41.8901C46.4857 41.2229 43.6573 37.0989 41.3128 36.8079Z" stroke="#FF9B50" stroke-width="0.3"/>
<path d="M39.9003 5.93135C35.8785 5.0086 34.4096 11.6134 38.4879 12.3196C42.5627 13.0259 43.4172 6.73698 39.9003 5.93135Z" fill="#FF9B50"/>
<path d="M11.6523 6.64109C10.4271 6.0271 9.62905 7.78742 10.5895 8.41205C11.5499 9.03668 12.6339 7.1344 11.6523 6.64109Z" fill="#FF9B50"/>
<path d="M13.7709 12.3196C14.2511 9.97366 10.473 8.72086 8.74278 10.8112C7.00906 12.9052 12.1043 13.1181 13.7709 12.3196Z" fill="#FF9B50"/>
<path d="M15.5363 16.9333C15.4304 13.8492 9.22288 12.9407 7.09016 15.897C4.96096 18.8569 13.2694 17.4692 15.5363 16.9333Z" fill="#FF9B50"/>
<path d="M37.4286 22.2568C39.8544 21.1708 40.3241 16.7274 43.7774 18.36C47.2272 19.9961 49.0597 17.9021 45.2039 16.5713C41.3516 15.2368 40.3241 16.4364 37.87 18.7965C35.416 21.1531 33.6752 21.6677 30.7445 19.7476C27.8173 17.8276 25.7304 20.7627 23.3929 21.9906C21.0519 23.215 19.3217 26.4447 16.4792 25.5681C13.6368 24.6879 10.5118 24.837 7.84946 25.8875C5.18708 26.938 1.41245 29.5359 5.21886 29.9866C9.02528 30.4373 11.3875 28.2547 14.8302 28.6451C18.273 29.0355 20.0702 26.7428 22.5102 25.3622C24.9501 23.9852 26.4402 21.295 29.0672 21.4334C31.6978 21.5718 34.4449 23.8503 37.0508 24.4111C39.6567 24.9754 42.2555 26.5582 44.8437 27.2255C41.2562 28.858 36.9625 29.0213 32.8631 29.3797C28.7636 29.7382 25.2114 30.3451 24.2863 34.6003C23.3576 38.8521 17.2843 37.0598 14.124 38.2275C10.9673 39.3986 5.83679 38.192 2.91312 40.8005C-0.0140765 43.4055 1.68433 47.7247 5.21886 49.3075C8.75339 50.894 13.3931 50.6775 17.2984 49.9357C21.2072 49.1975 24.7523 48.5977 28.5729 47.4265C32.397 46.2589 34.0601 42.788 33.9047 38.9444C33.7529 35.1043 39.9003 34.5613 42.4815 33.7237C45.0591 32.8826 50.0802 28.9361 47.3437 26.1324C44.6107 23.3286 40.3947 24.4891 37.4286 22.2568Z" fill="#FF9B50"/>
<path d="M12.7116 19.0628C9.67493 18.6262 8.87692 20.0778 6.03094 21.2206C3.18495 22.3598 6.67358 24.8051 9.15587 23.2968C11.6382 21.7849 14.3041 23.6978 16.8605 22.1682C19.417 20.6421 13.845 19.226 12.7116 19.0628Z" fill="#FF9B50"/>
<path d="M0.352999 37.5177C3.80632 37.2834 7.70807 37.3863 10.946 36.4529C14.1839 35.5195 18.2693 37.2124 21.1753 35.3776C24.0778 33.5392 17.2983 32.5135 15.1903 31.8321C13.0858 31.1507 9.01101 30.8135 6.95244 32.7939C4.89739 34.7778 0.0952359 33.8054 0.352999 37.5177Z" fill="#FF9B50"/>
<path d="M41.3128 36.8079C38.9717 36.5169 35.1935 39.4697 36.2564 41.8901C37.3192 44.3106 41.3092 42.5573 43.8975 41.8901C46.4857 41.2229 43.6573 37.0989 41.3128 36.8079Z" fill="#FF9B50"/>
</g>
<path d="M64.908 5.7093C64.908 5.91591 65.1198 5.99104 65.6783 5.99104H66.4487V14.5936C66.4487 21.0361 66.3909 23.2525 66.2176 23.4215C66.0827 23.553 65.7361 23.6469 65.4472 23.6469C65.1583 23.6469 64.908 23.7221 64.908 23.8348C64.908 23.9475 66.4487 24.0226 69.1641 24.0226C74.4988 24.0226 75.1536 23.8911 76.5787 22.4073C77.6572 21.3179 77.8498 20.7544 77.8305 18.9888C77.8305 18.3502 77.6765 17.6928 77.3876 17.1481C76.9254 16.2277 75.6736 15.0068 75.2114 15.0068C74.7684 15.0068 74.8647 14.6499 75.3654 14.4621C75.9047 14.2555 77.3876 12.659 77.6572 12.0016C77.7535 11.7386 77.8498 10.9685 77.8498 10.2735C77.8498 8.13229 76.7521 6.57331 74.6914 5.80321C73.7862 5.46512 73.2085 5.42756 69.2989 5.42756C65.5242 5.42756 64.908 5.46512 64.908 5.7093ZM68.9138 14.7626L68.856 23.553H67.8931H66.9301L66.8723 14.7626L66.8338 5.99104H67.8931H68.9523L68.9138 14.7626ZM75.5195 6.74236C76.5787 7.55002 76.8869 7.94446 77.1757 8.90238C77.8498 11.0061 76.8676 13.1849 74.8262 14.0865C74.2292 14.3682 73.5744 14.4433 71.8026 14.4433H69.53V10.1984V5.95348L72.1107 6.02861L74.6914 6.08496L75.5195 6.74236ZM74.364 15.1946C75.9817 15.6266 77.4261 17.5425 77.4261 19.233C77.4261 20.1721 76.8676 21.5057 76.2128 22.1819C75.1728 23.2337 74.2484 23.5154 71.7833 23.5342L69.6263 23.553L69.5686 19.2705L69.53 15.0068H71.5907C72.7462 15.0068 73.9788 15.1007 74.364 15.1946Z" fill="black"/>
<path d="M80.7387 14.6687L80.7965 23.9286L85.3223 23.985C90.5221 24.0413 91.9858 23.7784 87.2482 23.6469L84.0705 23.553L84.0127 19.0827L83.9742 14.6311H87.0363C88.8274 14.6311 90.1562 14.556 90.2333 14.4433C90.3103 14.3306 89.1933 14.2367 87.2096 14.2179L84.0705 14.1616L84.0127 10.0669L83.9742 5.99102H87.1519C89.8481 5.99102 90.3295 5.95346 90.3295 5.70928C90.3295 5.4651 89.6747 5.42754 85.5149 5.42754H80.7002L80.7387 14.6687ZM83.3579 14.7626L83.3001 23.553L82.472 23.6093C82.0098 23.6469 81.5091 23.5718 81.355 23.4403C81.1239 23.2525 81.0854 21.8438 81.0854 14.6124V5.99102H82.2409H83.3964L83.3579 14.7626Z" fill="black"/>
<path d="M96.5499 5.82192C95.3173 6.27271 93.9692 7.53116 93.43 8.67691C92.987 9.61606 92.8715 11.2502 93.2567 11.2502C93.3722 11.2502 93.6033 11.3816 93.7766 11.5319C93.95 11.701 94.9514 12.4523 96.0106 13.2224C97.0699 13.9737 98.0713 14.7438 98.2447 14.894C98.418 15.0631 98.6491 15.1946 98.7646 15.1946C98.8995 15.1946 98.9957 15.2697 98.9957 15.3448C98.9957 15.4387 99.612 15.9083 100.344 16.3967C101.095 16.9038 101.692 17.3734 101.692 17.4673C101.692 17.5612 101.788 17.6363 101.904 17.6363C102.212 17.6363 103.618 18.8009 103.618 19.0638C103.618 19.1953 103.425 19.7588 103.213 20.3411C102.751 21.5056 101.808 22.5011 100.633 23.0834C99.5928 23.5905 97.3588 23.6093 96.338 23.1021C94.8936 22.3884 93.6033 20.6228 93.6033 19.3831C93.6033 19.0451 93.4878 18.7633 93.3144 18.6882C93.0833 18.613 93.0256 18.7445 93.0256 19.2892C93.0448 21.0172 94.8551 23.1773 96.7425 23.722C98.9572 24.3606 100.787 23.9286 102.347 22.4447C103.695 21.1675 104.003 20.2096 104.003 17.4297C104.003 15.5327 103.984 15.3824 103.579 15.1758C103.348 15.0631 102.982 14.8001 102.77 14.5935C102.559 14.4057 101.923 13.9361 101.365 13.5605C100.806 13.1848 100.344 12.8091 100.344 12.7152C100.344 12.6401 100.267 12.565 100.151 12.565C100.055 12.565 98.7839 11.6822 97.3588 10.5928C95.9336 9.50336 94.6818 8.62056 94.5662 8.62056C94.1811 8.62056 94.3929 7.9256 94.9129 7.47481C96.1262 6.3854 96.8773 6.10366 98.5143 6.10366C100.248 6.12244 101.114 6.46054 102.116 7.53116C102.79 8.24491 103.618 9.91658 103.618 10.5176C103.618 10.8369 103.676 10.8933 103.83 10.743C104.099 10.4801 103.676 8.52665 103.29 8.22612C103.156 8.11343 103.04 7.9256 103.04 7.8129C103.04 7.41846 101.403 6.17879 100.382 5.80314C99.1113 5.33356 97.8402 5.33356 96.5499 5.82192ZM94.4122 8.95866C94.4507 9.03379 96.2032 10.3674 98.3217 11.9076C100.44 13.4478 102.27 14.7813 102.366 14.8565C102.482 14.9504 102.79 15.1758 103.098 15.4012C103.56 15.7393 103.618 15.9083 103.618 16.885C103.618 18.2374 103.656 18.2562 101.21 16.4342C100.228 15.7017 99.2076 14.9504 98.9572 14.7813C96.7617 13.2036 94.7781 11.7573 94.4122 11.438C94.1618 11.2314 93.8729 11.0623 93.7766 11.0623C93.5841 11.0623 93.5455 9.87902 93.7189 9.22162C93.8344 8.82718 94.2774 8.65813 94.4122 8.95866Z" fill="black"/>
<path d="M106.892 14.7251C106.892 20.7919 106.95 24.0226 107.084 24.0226C107.2 24.0226 107.277 22.426 107.277 19.6274C107.277 17.2044 107.335 15.1759 107.431 15.1383C107.508 15.0819 109.684 17.0729 112.284 19.5335C116.425 23.4779 117.484 24.3607 117.484 23.9099C117.484 23.8348 116.04 22.4073 114.287 20.7356C111.302 17.8806 111.11 17.6552 111.321 17.2608C111.668 16.6221 111.784 14.0489 111.533 12.7904L111.302 11.6635L114.538 8.54551C116.675 6.47939 117.638 5.42756 117.369 5.46512C117.137 5.50269 114.903 7.47489 112.284 9.97301C109.723 12.4336 107.547 14.4433 107.45 14.4433C107.354 14.4433 107.277 12.5087 107.277 9.93544C107.277 7.06166 107.2 5.42756 107.084 5.42756C106.95 5.42756 106.892 8.65821 106.892 14.7251ZM111.11 14.556C111.129 16.1526 110.975 17.0729 110.667 17.0729C110.378 17.0729 108.24 14.9692 108.24 14.7063C108.24 14.5936 108.818 13.955 109.53 13.2976L110.821 12.0955L110.955 12.659C111.032 12.9595 111.09 13.8235 111.11 14.556Z" fill="black"/>
<path d="M120.566 5.7093C120.566 5.93469 120.893 5.99104 122.299 5.99104H124.032V14.5185C124.032 19.2142 123.974 23.1774 123.917 23.3464C123.82 23.5906 123.474 23.6469 122.183 23.6469C121.24 23.6469 120.566 23.7221 120.566 23.8348C120.566 23.9475 121.914 24.0226 124.225 24.0226C126.536 24.0226 127.884 23.9475 127.884 23.8348C127.884 23.7221 127.287 23.6469 126.459 23.6469C125.669 23.6469 124.899 23.5906 124.726 23.5342C124.456 23.4403 124.417 22.4824 124.417 14.7063V5.99104H126.151C127.557 5.99104 127.884 5.93469 127.884 5.7093C127.884 5.46512 127.345 5.42756 124.225 5.42756C121.105 5.42756 120.566 5.46512 120.566 5.7093Z" fill="black"/>
<path d="M130.773 5.70929C130.773 5.9159 130.985 5.99103 131.543 5.99103H132.313L132.275 14.7626L132.217 23.553L131.505 23.6093C131.1 23.6469 130.773 23.7408 130.773 23.8535C130.773 24.1728 137.186 24.0601 138.63 23.7033C144.889 22.1818 147.778 14.8941 144.177 9.71003C143.233 8.35767 143.118 8.24497 142.135 7.47487C140.055 5.85955 138.322 5.42754 134.008 5.42754C131.254 5.42754 130.773 5.46511 130.773 5.70929ZM135.01 14.5936C135.01 21.0361 134.952 23.2525 134.779 23.4215C134.644 23.553 134.181 23.6469 133.719 23.6469H132.891V14.819V5.99103H133.95H135.01V14.5936ZM138.996 6.3479C139.189 6.44182 139.844 6.74234 140.441 7.02409C142.232 7.86931 143.792 9.55977 144.677 11.6447C145.024 12.4899 145.101 13.0346 145.101 14.8378C145.12 16.979 145.12 17.0166 144.389 18.4628C142.848 21.4869 140.055 23.3088 136.685 23.4966L135.491 23.553L135.433 14.7438L135.395 5.93468L137.013 6.04738C137.918 6.10373 138.804 6.23521 138.996 6.3479Z" fill="black"/>
<path d="M148.491 5.7093C148.491 5.95348 149.223 5.99104 153.979 5.99104H159.487L158.987 6.77992C158.736 7.23071 158.409 7.7942 158.274 8.05716C158.139 8.32012 157.985 8.56429 157.908 8.62064C157.85 8.67699 157.754 8.84604 157.677 8.9963C157.6 9.14656 157.33 9.61613 157.061 10.0294C156.791 10.4426 156.483 10.9873 156.348 11.2502C156.213 11.5132 156.059 11.7574 156.002 11.8137C155.944 11.8701 154.846 13.6169 153.594 15.7206C150.725 20.4351 151.033 19.9279 150.147 21.4869C149.723 22.2194 149.338 22.8393 149.28 22.8956C149.126 23.0083 148.683 23.7972 148.683 23.9287C148.683 23.985 152.073 24.0226 156.194 24.0226C161.067 24.0226 163.705 23.9475 163.705 23.8348C163.705 23.7221 161.779 23.6469 158.313 23.6469C155.347 23.6469 152.92 23.5906 152.92 23.4967C152.939 23.4215 153.171 22.9707 153.459 22.4824C154.345 20.9798 159.353 12.7529 159.815 12.0391C160.046 11.6635 160.296 11.2127 160.373 11.0624C160.431 10.9121 160.72 10.4426 160.99 10.0294C161.876 8.67699 161.972 8.52673 162.222 8.05716C162.338 7.7942 162.742 7.17436 163.089 6.64844C163.416 6.1413 163.705 5.65295 163.705 5.57782C163.705 5.4839 160.277 5.42756 156.098 5.42756C149.473 5.42756 148.491 5.46512 148.491 5.7093ZM162.511 6.68601C162.28 7.08045 162.03 7.43732 161.972 7.49367C161.914 7.55002 161.76 7.7942 161.625 8.05716C161.49 8.32012 161.182 8.86482 160.913 9.27804C160.643 9.69126 160.373 10.1608 160.296 10.3111C160.219 10.4614 160.084 10.668 159.988 10.7807C159.815 10.9873 153.556 21.3179 153.113 22.1443C152.439 23.384 152.054 23.6469 150.802 23.6469C149.434 23.6469 149.357 23.4779 150.185 22.2758C150.494 21.8438 150.994 21.0173 151.322 20.4538C152.131 19.0076 152.419 18.538 152.631 18.275C152.747 18.1435 153.999 16.0774 155.424 13.692C156.849 11.3066 158.216 9.03386 158.467 8.65821C158.717 8.28255 158.948 7.81298 159.025 7.62515C159.083 7.4561 159.179 7.30584 159.256 7.30584C159.333 7.30584 159.545 7.00532 159.719 6.64844L160.046 5.99104H161.49H162.915L162.511 6.68601Z" fill="black"/>
<path d="M166.594 14.7251C166.594 20.7919 166.652 24.0226 166.787 24.0226C166.902 24.0226 166.979 22.3885 166.979 19.5147C166.979 15.2698 166.998 15.0068 167.326 15.1759C167.499 15.2698 169.695 17.2983 172.179 19.6837C176.281 23.6094 177.186 24.3607 177.186 23.8535C177.186 23.7596 175.8 22.3885 174.086 20.8107L171.004 17.9182L171.101 17.1668C171.409 15.2134 171.447 13.7671 171.216 12.7529L170.985 11.6822L174.201 8.60186C176.358 6.53574 177.302 5.50269 177.109 5.46512C176.917 5.42756 175.973 6.17887 174.76 7.34341C173.643 8.41403 171.524 10.4426 170.041 11.8513C168.558 13.2788 167.268 14.4433 167.172 14.4433C167.056 14.4433 166.979 12.7529 166.979 9.93544C166.979 7.06166 166.902 5.42756 166.787 5.42756C166.652 5.42756 166.594 8.65821 166.594 14.7251ZM170.735 12.565C170.966 12.9219 170.889 16.115 170.638 16.6973L170.388 17.2795L169.155 16.115C168.501 15.4576 167.942 14.8565 167.942 14.7626C167.942 14.5185 170.195 12.3772 170.426 12.3772C170.523 12.3772 170.677 12.4523 170.735 12.565Z" fill="black"/>
<path d="M189.396 6.21643C189.203 6.55453 187.22 10.4614 184.947 14.9129C182.694 19.3457 180.749 23.1398 180.653 23.3088C180.402 23.7408 180.402 24.0226 180.653 24.0226C180.749 24.0226 181.616 22.4824 182.578 20.6041C183.541 18.7258 184.427 17.1105 184.562 17.0354C184.851 16.8475 191.072 16.8475 191.36 17.0354C191.457 17.1105 192.343 18.6883 193.286 20.5478L195.039 23.9287L197.08 23.985C198.217 24.0038 199.141 23.9662 199.141 23.8911C199.141 23.7221 189.878 5.61538 189.781 5.61538C189.743 5.61538 189.569 5.89713 189.396 6.21643ZM194.114 15.0444C196.464 19.6086 198.371 23.4027 198.371 23.4967C198.371 23.5906 197.697 23.6469 196.888 23.6094L195.386 23.553L191.88 16.7161C189.935 12.9407 188.356 9.67248 188.356 9.44709C188.356 9.22169 188.472 8.90238 188.626 8.7709C188.761 8.62064 188.953 8.30133 189.03 8.05715C189.184 7.60637 189.685 6.74235 189.8 6.74235C189.839 6.74235 191.784 10.4801 194.114 15.0444ZM189.569 13.2788C190.378 14.8941 191.052 16.284 191.052 16.3592C191.052 16.4531 189.666 16.5094 187.971 16.5094C186.007 16.5094 184.89 16.4343 184.89 16.3216C184.89 16.0211 187.798 10.3111 187.932 10.3111C188.009 10.3111 188.741 11.6447 189.569 13.2788Z" fill="black"/>
<path d="M64.908 39.6123C64.908 46.7498 64.9657 50.5063 65.1005 50.5063C65.2161 50.5063 65.2931 48.7032 65.2931 45.4538C65.2931 42.6739 65.3509 40.2697 65.4087 40.1006C65.4857 39.894 66.9109 41.1525 70.4545 44.571C76.155 50.0556 76.7328 50.5627 77.1372 50.4688C77.3491 50.4312 76.1358 49.154 73.6707 46.7498C70.2811 43.4816 69.896 43.0496 70.0115 42.6175C70.5508 40.589 70.5508 37.565 70.0308 36.4004C69.9345 36.175 70.3582 35.6679 71.5907 34.4846C77.9268 28.4365 77.6765 28.7182 77.118 28.7182C76.9061 28.7182 74.4603 30.9158 71.167 34.0526C68.1049 37.0015 65.5242 39.3493 65.4472 39.3118C65.3509 39.2554 65.2931 36.8512 65.2931 33.9587C65.2931 30.5965 65.2161 28.7182 65.1005 28.7182C64.9657 28.7182 64.908 32.4748 64.908 39.6123ZM69.6456 37.302C69.7226 37.6964 69.7997 38.6919 69.7997 39.5184C69.7997 41.3215 69.5878 42.4297 69.2797 42.4297C69.1449 42.4297 68.413 41.8099 67.6234 41.0398L66.2176 39.6686L67.739 38.1472C68.5671 37.3208 69.2989 36.6258 69.376 36.6258C69.453 36.607 69.5686 36.9263 69.6456 37.302Z" fill="black"/>
<path d="M80.8926 39.556V50.4125L83.6851 44.9842C85.2065 41.9978 86.4969 39.5372 86.5354 39.4996C86.5739 39.4621 87.1131 39.5184 87.7679 39.6311C88.5768 39.7814 89.2509 39.7626 90.0597 39.6311C91.4078 39.3869 91.3693 39.3494 92.3515 41.3028C93.0256 42.6364 93.6611 43.8573 94.027 44.4959C94.104 44.6461 94.2581 44.9842 94.3737 45.2472C94.47 45.5102 94.6433 45.8482 94.7588 45.9985C94.8551 46.1488 95.2788 46.9564 95.6833 47.7829C97.224 50.8257 97.0699 51.7273 97.0699 39.556C97.0699 30.0706 97.0314 28.7183 96.781 28.7183C96.5306 28.7183 96.4921 29.9579 96.4536 38.2412L96.3958 47.7829L92.7559 40.683C90.7338 36.7949 89.039 33.6018 88.962 33.6018C88.9042 33.6018 87.2094 36.7949 85.2065 40.683L81.5666 47.7641L81.4703 38.3163C81.3933 30.9722 81.3163 28.831 81.1429 28.7558C80.9504 28.6995 80.8926 30.9347 80.8926 39.556ZM89.4627 35.6116C89.636 36.006 90.0405 36.7949 90.3486 37.3772C91.2345 39.0489 91.2152 39.0489 88.9812 39.0489C87.3057 39.0489 87.0554 39.0113 87.0554 38.7295C87.0554 38.3539 88.7886 34.9166 88.9812 34.9166C89.0583 34.9166 89.2701 35.2359 89.4627 35.6116Z" fill="black"/>
<path d="M125.9 28.8309C125.554 29.1878 126.247 29.2817 128.866 29.2817H131.736V39.894V50.5063H133.662H135.587L135.626 39.9316L135.684 29.3756L138.63 29.3193C141.057 29.2817 141.558 29.2254 141.558 29C141.558 28.7558 140.498 28.7182 133.796 28.7182C129.521 28.7182 125.958 28.7746 125.9 28.8309ZM134.702 29.3944C134.971 29.5071 135.01 30.5777 135.01 39.7438V49.9616L133.719 49.9053L132.41 49.8489L132.352 39.725C132.313 31.7423 132.352 29.5635 132.545 29.432C132.833 29.2629 134.278 29.2254 134.702 29.3944Z" fill="black"/>
<path d="M144.832 39.6123V50.5063H150.32C155.039 50.5063 155.809 50.4688 155.809 50.2246C155.809 49.9992 155.231 49.9429 152.208 49.9053L148.587 49.8489V44.6837V39.5184L152.208 39.462C154.326 39.4432 155.809 39.3493 155.809 39.2366C155.809 39.1239 154.326 39.03 152.208 39.0112L148.587 38.9549V34.1653V29.3756L152.208 29.3193C155.231 29.2817 155.809 29.2254 155.809 29C155.809 28.7558 155.039 28.7182 150.32 28.7182H144.832V39.6123ZM147.874 39.6499L147.913 49.9429H146.661H145.409V39.7438C145.409 34.1277 145.467 29.4695 145.544 29.3944C145.621 29.3193 146.16 29.2817 146.757 29.3193L147.817 29.3756L147.874 39.6499Z" fill="black"/>
<path d="M159.083 28.9812C159.083 29.2066 159.256 29.2817 159.738 29.2817C161.124 29.2817 161.009 28.3801 161.009 40.0067C161.009 49.2103 161.047 50.5063 161.298 50.5063C161.548 50.5063 161.587 49.9241 161.587 46.468V42.4297H162.973H164.379L168.539 46.4868C171.524 49.3982 172.814 50.5251 173.065 50.4688C173.334 50.4312 172.449 49.4545 169.386 46.468L165.342 42.5236L166.979 42.4109C169.098 42.2795 170.465 41.6596 171.794 40.2321C173.296 38.6356 173.604 37.8091 173.604 35.5552C173.604 34.447 173.527 33.5454 173.392 33.3952C173.277 33.2449 173.123 32.9256 173.046 32.6814C172.891 32.1743 172.853 32.1179 171.871 31.0097C171.158 30.2209 170.889 30.033 169.29 29.2629C168.481 28.8685 168.096 28.8309 163.763 28.7558C159.564 28.6807 159.083 28.7182 159.083 28.9812ZM163.975 29.3944C164.244 29.4883 164.283 30.2209 164.283 35.6867V41.8662H162.935H161.587V35.7055C161.587 32.3058 161.644 29.4695 161.721 29.4132C161.876 29.2442 163.57 29.2442 163.975 29.3944ZM169.348 29.9016C170.58 30.4463 171.852 31.6859 172.506 32.9444C172.911 33.7145 173.007 34.1653 173.026 35.4988C173.046 37.4898 172.545 38.7107 171.177 40.0255C169.868 41.284 168.789 41.716 166.652 41.8287L164.861 41.9038V35.7242C164.861 32.3245 164.918 29.4695 165.015 29.3944C165.304 29.0751 168.327 29.432 169.348 29.9016Z" fill="black"/>
<path d="M111.398 29.0751C111.244 29.169 110.378 30.8219 109.164 33.32C108.972 33.7333 108.721 34.2028 108.625 34.3531C108.529 34.5034 106.622 38.2036 104.388 42.5612C101.268 48.722 100.421 50.5063 100.691 50.5063C100.922 50.5063 101.596 49.3794 103.117 46.3741L105.216 42.2419H109.318H113.401L115.25 45.7919C116.252 47.7265 117.234 49.586 117.426 49.9241L117.773 50.5063H120.142C121.432 50.5063 122.491 50.45 122.491 50.3561C122.491 49.9804 111.533 28.9624 111.398 29.0751ZM116.579 39.9504C119.294 45.2847 121.528 49.7363 121.528 49.8114C121.528 49.8865 120.739 49.9241 119.757 49.9053L118.004 49.8489L113.902 41.8662C111.629 37.471 109.781 33.752 109.781 33.6018C109.781 33.2825 111.341 30.2209 111.514 30.2209C111.572 30.2396 113.844 34.6161 116.579 39.9504ZM111.225 37.9406C112.188 39.8001 112.997 41.3967 113.016 41.5094C113.055 41.6033 111.61 41.6784 109.415 41.6784C106.603 41.6784 105.736 41.6221 105.736 41.4342C105.717 41.0586 109.087 34.5597 109.299 34.5597C109.415 34.5409 110.281 36.0623 111.225 37.9406Z" fill="black"/>
<path d="M188.01 29.1503C187.913 29.263 187.104 30.7656 186.238 32.4748C179.555 45.4726 177.032 50.4312 177.109 50.4876C177.379 50.7693 177.976 49.849 179.786 46.299L181.866 42.2419H185.968H190.051L190.59 43.2186C190.879 43.7633 191.245 44.4583 191.38 44.7776C191.534 45.0781 191.726 45.4726 191.823 45.6228C191.919 45.7731 192.189 46.2802 192.401 46.7498C192.612 47.2194 192.921 47.8016 193.055 48.0646C193.209 48.3276 193.556 48.985 193.826 49.5109L194.307 50.5064H196.714C198.063 50.5064 199.141 50.45 199.141 50.3561C199.141 50.281 196.676 45.435 193.672 39.5748C189.801 32.024 188.144 28.9812 188.01 29.1503ZM198.178 49.7926C198.178 49.8865 197.389 49.9241 196.426 49.9053L194.673 49.849L193.729 48.0646C193.209 47.0879 192.612 45.9046 192.401 45.435C192.169 44.9654 191.572 43.7821 191.052 42.8054C190.532 41.8287 190.089 40.9271 190.089 40.7956C190.089 40.6829 190.032 40.5515 189.955 40.5139C189.743 40.4388 186.43 33.9023 186.43 33.583C186.43 33.2825 187.624 30.9159 187.99 30.4839C188.164 30.2772 189.184 32.118 193.19 39.9128C195.944 45.2472 198.178 49.6987 198.178 49.7926ZM186.469 35.142C187.894 37.9031 189.704 41.5094 189.704 41.5845C189.704 41.6409 188.067 41.6784 186.045 41.6784C183.407 41.6784 182.386 41.6221 182.386 41.453C182.386 41.0774 185.756 34.5597 185.949 34.541C186.064 34.541 186.296 34.8227 186.469 35.142Z" fill="black"/>
<defs>
<clipPath id="clip0_7_136">
<rect width="51.5526" height="56.0747" fill="white" transform="translate(0 0.962646)"/>
</clipPath>
</defs>
</svg>
