<svg width="150" height="42" viewBox="0 0 150 42" fill="none" xmlns="http://www.w3.org/2000/svg">
<g clip-path="url(#clip0_258_182)">
<path d="M28.774 3.88515C25.8737 3.2197 24.8144 7.98274 27.7554 8.49206C30.694 9.00139 31.3102 4.46613 28.774 3.88515Z" stroke="white" stroke-opacity="0.7" stroke-width="0.3"/>
<path d="M8.4032 4.39701C7.5196 3.95424 6.94411 5.2237 7.63673 5.67415C8.32935 6.12461 9.11109 4.75277 8.4032 4.39701Z" stroke="white" stroke-opacity="0.7" stroke-width="0.3"/>
<path d="M9.93078 8.49199C10.2771 6.80022 7.55245 5.89676 6.30472 7.40424C5.05444 8.91429 8.72889 9.06785 9.93078 8.49199Z" stroke="white" stroke-opacity="0.7" stroke-width="0.3"/>
<path d="M11.2041 11.8192C11.1277 9.59508 6.65114 8.93987 5.11312 11.0718C3.57765 13.2064 9.56931 12.2057 11.2041 11.8192Z" stroke="white" stroke-opacity="0.7" stroke-width="0.3"/>
<path d="M26.9919 15.6583C28.7413 14.8751 29.08 11.6708 31.5703 12.8481C34.0582 14.028 35.3797 12.5179 32.5991 11.5581C29.821 10.5958 29.08 11.4609 27.3102 13.1629C25.5405 14.8623 24.2851 15.2334 22.1716 13.8488C20.0606 12.4642 18.5557 14.5808 16.87 15.4663C15.1817 16.3493 13.934 18.6784 11.8842 18.0462C9.83432 17.4115 7.58076 17.519 5.66078 18.2766C3.7408 19.0341 1.01871 20.9076 3.76372 21.2327C6.50873 21.5577 8.21227 19.9837 10.695 20.2652C13.1777 20.5468 14.4738 18.8934 16.2334 17.8978C17.993 16.9047 19.0675 14.9647 20.9621 15.0645C22.8591 15.1643 24.8402 16.8075 26.7194 17.2119C28.5987 17.6188 30.4728 18.7603 32.3393 19.2415C29.7522 20.4188 26.6558 20.5365 23.6994 20.795C20.7431 21.0535 18.1814 21.4912 17.5142 24.5599C16.8445 27.626 12.4647 26.3336 10.1857 27.1756C7.90925 28.0202 4.20934 27.15 2.10093 29.0312C-0.0100312 30.9098 1.21478 34.0245 3.76372 35.166C6.31266 36.3101 9.65862 36.154 12.4749 35.619C15.2938 35.0867 17.8504 34.6542 20.6056 33.8096C23.3633 32.9675 24.5627 30.4644 24.4506 27.6926C24.3411 24.9233 28.7744 24.5317 30.6358 23.9277C32.4947 23.3211 36.1156 20.4751 34.1422 18.4532C32.1713 16.4312 29.1309 17.2682 26.9919 15.6583Z" stroke="white" stroke-opacity="0.7" stroke-width="0.3"/>
<path d="M9.16708 13.3549C6.97718 13.0401 6.4017 14.0869 4.3493 14.911C2.29691 15.7326 4.81275 17.496 6.60286 16.4083C8.39297 15.318 10.3155 16.6975 12.1591 15.5944C14.0027 14.4939 9.98447 13.4727 9.16708 13.3549Z" stroke="white" stroke-opacity="0.7" stroke-width="0.3"/>
<path d="M0.254757 26.6638C2.74513 26.4949 5.55889 26.5691 7.89393 25.896C10.229 25.2229 13.1752 26.4437 15.2708 25.1205C17.364 23.7947 12.4749 23.0551 10.9547 22.5637C9.43705 22.0723 6.49851 21.8291 5.01396 23.2573C3.53196 24.688 0.0688699 23.9867 0.254757 26.6638Z" stroke="white" stroke-opacity="0.7" stroke-width="0.3"/>
<path d="M29.7926 26.1518C28.1043 25.942 25.3797 28.0714 26.1461 29.8169C26.9126 31.5624 29.79 30.2981 31.6565 29.8169C33.523 29.3357 31.4834 26.3617 29.7926 26.1518Z" stroke="white" stroke-opacity="0.7" stroke-width="0.3"/>
<path d="M28.774 3.88515C25.8737 3.2197 24.8144 7.98274 27.7554 8.49206C30.694 9.00139 31.3102 4.46613 28.774 3.88515Z" fill="white" fill-opacity="0.7"/>
<path d="M8.4032 4.39701C7.5196 3.95424 6.94411 5.2237 7.63673 5.67415C8.32935 6.12461 9.11109 4.75277 8.4032 4.39701Z" fill="white" fill-opacity="0.7"/>
<path d="M9.93078 8.49199C10.2771 6.80022 7.55245 5.89676 6.30472 7.40424C5.05444 8.91429 8.72889 9.06785 9.93078 8.49199Z" fill="white" fill-opacity="0.7"/>
<path d="M11.2041 11.8192C11.1277 9.59508 6.65114 8.93987 5.11312 11.0718C3.57765 13.2064 9.56931 12.2057 11.2041 11.8192Z" fill="white" fill-opacity="0.7"/>
<path d="M26.9919 15.6583C28.7413 14.8751 29.08 11.6708 31.5703 12.8481C34.0582 14.028 35.3797 12.5179 32.5991 11.5581C29.821 10.5958 29.08 11.4609 27.3102 13.1629C25.5405 14.8623 24.2851 15.2334 22.1716 13.8488C20.0606 12.4642 18.5557 14.5808 16.87 15.4663C15.1817 16.3493 13.934 18.6784 11.8842 18.0462C9.83432 17.4115 7.58076 17.519 5.66078 18.2766C3.7408 19.0341 1.01871 20.9076 3.76372 21.2327C6.50873 21.5577 8.21227 19.9837 10.695 20.2652C13.1777 20.5468 14.4738 18.8934 16.2334 17.8978C17.993 16.9047 19.0675 14.9647 20.9621 15.0645C22.8591 15.1643 24.8402 16.8075 26.7194 17.2119C28.5987 17.6188 30.4728 18.7603 32.3393 19.2415C29.7522 20.4188 26.6558 20.5365 23.6994 20.795C20.7431 21.0535 18.1814 21.4912 17.5142 24.5599C16.8445 27.626 12.4647 26.3336 10.1857 27.1756C7.90925 28.0202 4.20934 27.15 2.10093 29.0312C-0.0100312 30.9098 1.21478 34.0245 3.76372 35.166C6.31266 36.3101 9.65862 36.154 12.4749 35.619C15.2938 35.0867 17.8504 34.6542 20.6056 33.8096C23.3633 32.9675 24.5627 30.4644 24.4506 27.6926C24.3411 24.9233 28.7744 24.5317 30.6358 23.9277C32.4947 23.3211 36.1156 20.4751 34.1422 18.4532C32.1713 16.4312 29.1309 17.2682 26.9919 15.6583Z" fill="white" fill-opacity="0.7"/>
<path d="M9.16708 13.3549C6.97718 13.0401 6.4017 14.0869 4.3493 14.911C2.29691 15.7326 4.81275 17.496 6.60286 16.4083C8.39297 15.318 10.3155 16.6975 12.1591 15.5944C14.0027 14.4939 9.98447 13.4727 9.16708 13.3549Z" fill="white" fill-opacity="0.7"/>
<path d="M0.254757 26.6638C2.74513 26.4949 5.55889 26.5691 7.89393 25.896C10.229 25.2229 13.1752 26.4437 15.2708 25.1205C17.364 23.7947 12.4749 23.0551 10.9547 22.5637C9.43705 22.0723 6.49851 21.8291 5.01396 23.2573C3.53196 24.688 0.0688699 23.9867 0.254757 26.6638Z" fill="white" fill-opacity="0.7"/>
<path d="M29.7926 26.1518C28.1043 25.942 25.3797 28.0714 26.1461 29.8169C26.9126 31.5624 29.79 30.2981 31.6565 29.8169C33.523 29.3357 31.4834 26.3617 29.7926 26.1518Z" fill="white" fill-opacity="0.7"/>
</g>
<path d="M46.8091 3.72495C46.8091 3.87395 46.9619 3.92813 47.3646 3.92813H47.9202V10.1319C47.9202 14.7779 47.8785 16.3763 47.7535 16.4982C47.6563 16.593 47.4063 16.6607 47.198 16.6607C46.9896 16.6607 46.8091 16.7149 46.8091 16.7962C46.8091 16.8775 47.9202 16.9316 49.8784 16.9316C53.7255 16.9316 54.1978 16.8368 55.2255 15.7667C56.0033 14.9811 56.1421 14.5748 56.1283 13.3015C56.1283 12.841 56.0171 12.3669 55.8088 11.9741C55.4755 11.3103 54.5727 10.4299 54.2394 10.4299C53.92 10.4299 53.9894 10.1725 54.3505 10.0371C54.7394 9.88807 55.8088 8.73672 56.0033 8.26263C56.0727 8.073 56.1421 7.51764 56.1421 7.01646C56.1421 5.4723 55.3505 4.34803 53.8644 3.79268C53.2117 3.54886 52.795 3.52177 49.9757 3.52177C47.2535 3.52177 46.8091 3.54886 46.8091 3.72495ZM49.6979 10.2538L49.6562 16.593H48.9618H48.2674L48.2257 10.2538L48.1979 3.92813H48.9618H49.7257L49.6979 10.2538ZM54.4616 4.46994C55.2255 5.05239 55.4477 5.33684 55.656 6.02765C56.1421 7.54473 55.4338 9.11599 53.9616 9.76616C53.5311 9.96934 53.0589 10.0235 51.7812 10.0235H50.1423V6.96228V3.90104L52.0034 3.95522L53.8644 3.99586L54.4616 4.46994ZM53.6283 10.5653C54.795 10.8769 55.8366 12.2585 55.8366 13.4776C55.8366 14.1548 55.4338 15.1166 54.9616 15.6042C54.2116 16.3627 53.545 16.5659 51.7673 16.5795L50.2118 16.593L50.1701 13.5047L50.1423 10.4299H51.6284C52.4617 10.4299 53.3506 10.4976 53.6283 10.5653Z" fill="white"/>
<path d="M58.2255 10.1861L58.2672 16.8639L61.531 16.9045C65.2809 16.9452 66.3364 16.7555 62.9198 16.6607L60.6282 16.593L60.5866 13.3692L60.5588 10.159H62.7671C64.0587 10.159 65.017 10.1048 65.0726 10.0235C65.1281 9.94223 64.3226 9.87451 62.8921 9.86096L60.6282 9.82033L60.5866 6.86745L60.5588 3.92811H62.8504C64.7948 3.92811 65.142 3.90102 65.142 3.72493C65.142 3.54884 64.6698 3.52175 61.6699 3.52175H58.1978L58.2255 10.1861ZM60.1144 10.2538L60.0727 16.593L59.4755 16.6336C59.1422 16.6607 58.7811 16.6065 58.67 16.5117C58.5033 16.3763 58.4755 15.3604 58.4755 10.1454V3.92811H59.3088H60.1421L60.1144 10.2538Z" fill="white"/>
<path d="M69.6281 3.8063C68.7392 4.13139 67.767 5.03893 67.3781 5.86519C67.0587 6.54246 66.9754 7.7209 67.2531 7.7209C67.3365 7.7209 67.5031 7.81572 67.6281 7.92408C67.7531 8.04599 68.4753 8.5878 69.2392 9.14316C70.0031 9.68497 70.7253 10.2403 70.8503 10.3487C70.9753 10.4706 71.1419 10.5654 71.2253 10.5654C71.3225 10.5654 71.3919 10.6196 71.3919 10.6738C71.3919 10.7415 71.8363 11.0801 72.3641 11.4323C72.9058 11.798 73.3363 12.1367 73.3363 12.2044C73.3363 12.2721 73.4057 12.3263 73.4891 12.3263C73.7113 12.3263 74.7251 13.1661 74.7251 13.3558C74.7251 13.4506 74.5863 13.8569 74.4335 14.2768C74.1002 15.1166 73.4196 15.8345 72.5724 16.2545C71.8225 16.6202 70.2114 16.6337 69.4753 16.268C68.4337 15.7533 67.5031 14.48 67.5031 13.586C67.5031 13.3422 67.4198 13.139 67.2948 13.0848C67.1282 13.0307 67.0865 13.1255 67.0865 13.5183C67.1004 14.7645 68.4059 16.3222 69.767 16.715C71.3641 17.1755 72.6835 16.864 73.8085 15.7939C74.7807 14.8728 75.0029 14.182 75.0029 12.1773C75.0029 10.8092 74.989 10.7009 74.6974 10.5519C74.5307 10.4706 74.2668 10.281 74.1141 10.132C73.9613 9.99651 73.503 9.65788 73.1002 9.38697C72.6974 9.11607 72.3641 8.84516 72.3641 8.77743C72.3641 8.72325 72.3086 8.66907 72.2252 8.66907C72.1558 8.66907 71.2391 8.03244 70.2114 7.24681C69.1836 6.46118 68.2809 5.82455 68.1976 5.82455C67.9198 5.82455 68.0726 5.32338 68.4476 4.99829C69.3225 4.21266 69.8642 4.00948 71.0447 4.00948C72.2947 4.02303 72.9196 4.26684 73.6418 5.03893C74.1279 5.55365 74.7251 6.75918 74.7251 7.19263C74.7251 7.4229 74.7668 7.46354 74.8779 7.35518C75.0724 7.16554 74.7668 5.75683 74.489 5.5401C74.3918 5.45883 74.3085 5.32338 74.3085 5.24211C74.3085 4.95765 73.128 4.06366 72.3919 3.79276C71.4752 3.45412 70.5586 3.45412 69.6281 3.8063ZM68.0865 6.06837C68.1142 6.12255 69.3781 7.08427 70.9058 8.19499C72.4335 9.3057 73.753 10.2674 73.8224 10.3216C73.9057 10.3893 74.1279 10.5519 74.3502 10.7144C74.6835 10.9582 74.7251 11.0801 74.7251 11.7845C74.7251 12.7598 74.7529 12.7733 72.9891 11.4594C72.2808 10.9311 71.5447 10.3893 71.3641 10.2674C69.7809 9.12961 68.3503 8.08662 68.0865 7.85635C67.9059 7.70735 67.6976 7.58545 67.6281 7.58545C67.4893 7.58545 67.4615 6.73209 67.5865 6.258C67.6698 5.97355 67.9892 5.85164 68.0865 6.06837Z" fill="white"/>
<path d="M77.0859 10.2267C77.0859 14.6018 77.1276 16.9316 77.2248 16.9316C77.3082 16.9316 77.3637 15.7803 77.3637 13.762C77.3637 12.0147 77.4054 10.5518 77.4748 10.5247C77.5304 10.4841 79.0998 11.9199 80.9747 13.6943C83.9607 16.5388 84.7246 17.1755 84.7246 16.8504C84.7246 16.7962 83.683 15.7667 82.4191 14.5612C80.2664 12.5023 80.1275 12.3398 80.2803 12.0553C80.5303 11.5948 80.6136 9.73907 80.4331 8.83154L80.2664 8.01882L82.5997 5.77029C84.1413 4.28031 84.8357 3.52177 84.6413 3.54886C84.4746 3.57595 82.8635 4.99821 80.9747 6.79974C79.1275 8.57418 77.5581 10.0235 77.4887 10.0235C77.4193 10.0235 77.3637 8.62836 77.3637 6.77265C77.3637 4.70021 77.3082 3.52177 77.2248 3.52177C77.1276 3.52177 77.0859 5.85156 77.0859 10.2267ZM80.1275 10.1048C80.1414 11.2561 80.0303 11.9199 79.8081 11.9199C79.5998 11.9199 78.0581 10.4028 78.0581 10.2132C78.0581 10.1319 78.4748 9.67135 78.9887 9.19726L79.9192 8.33036L80.0164 8.73672C80.072 8.95344 80.1136 9.57653 80.1275 10.1048Z" fill="white"/>
<path d="M86.9468 3.72495C86.9468 3.88749 87.1829 3.92813 88.1967 3.92813H89.4467V10.0777C89.4467 13.464 89.405 16.3221 89.3634 16.444C89.2939 16.6201 89.0439 16.6607 88.1134 16.6607C87.4329 16.6607 86.9468 16.7149 86.9468 16.7962C86.9468 16.8775 87.919 16.9316 89.5856 16.9316C91.2522 16.9316 92.2244 16.8775 92.2244 16.7962C92.2244 16.7149 91.7939 16.6607 91.1967 16.6607C90.6272 16.6607 90.0717 16.6201 89.9467 16.5795C89.7523 16.5117 89.7245 15.8209 89.7245 10.2132V3.92813H90.9744C91.9883 3.92813 92.2244 3.88749 92.2244 3.72495C92.2244 3.54886 91.8355 3.52177 89.5856 3.52177C87.3357 3.52177 86.9468 3.54886 86.9468 3.72495Z" fill="white"/>
<path d="M94.3076 3.72506C94.3076 3.87405 94.4604 3.92824 94.8632 3.92824H95.4187L95.3909 10.2539L95.3493 16.5931L94.8354 16.6337C94.5437 16.6608 94.3076 16.7286 94.3076 16.8098C94.3076 17.0401 98.9325 16.9588 99.9741 16.7015C104.488 15.6043 106.571 10.3487 103.974 6.61021C103.293 5.63495 103.21 5.55367 102.502 4.99832C101.002 3.83342 99.7519 3.52188 96.6409 3.52188C94.6548 3.52188 94.3076 3.54897 94.3076 3.72506ZM97.3631 10.132C97.3631 14.778 97.3214 16.3764 97.1964 16.4983C97.0992 16.5931 96.7659 16.6608 96.4326 16.6608H95.8354V10.2945V3.92824H96.5992H97.3631V10.132ZM100.238 4.1856C100.377 4.25332 100.849 4.47005 101.28 4.67323C102.571 5.28277 103.696 6.50185 104.335 8.00538C104.585 8.61492 104.641 9.00773 104.641 10.3081C104.655 11.8522 104.655 11.8793 104.127 12.9223C103.016 15.1031 101.002 16.417 98.5714 16.5525L97.7103 16.5931L97.6686 10.2404L97.6409 3.8876L98.8075 3.96887C99.4602 4.00951 100.099 4.10432 100.238 4.1856Z" fill="white"/>
<path d="M107.085 3.72495C107.085 3.90104 107.613 3.92813 111.043 3.92813H115.015L114.654 4.49703C114.474 4.82212 114.238 5.22848 114.14 5.41811C114.043 5.60775 113.932 5.78384 113.876 5.82447C113.835 5.86511 113.765 5.98702 113.71 6.09538C113.654 6.20374 113.46 6.54238 113.265 6.84037C113.071 7.13837 112.849 7.53119 112.751 7.72082C112.654 7.91045 112.543 8.08654 112.501 8.12718C112.46 8.16782 111.668 9.42753 110.765 10.9446C108.696 14.3445 108.918 13.9788 108.279 15.103C107.974 15.6313 107.696 16.0783 107.654 16.1189C107.543 16.2002 107.224 16.7691 107.224 16.8639C107.224 16.9045 109.668 16.9316 112.64 16.9316C116.154 16.9316 118.057 16.8775 118.057 16.7962C118.057 16.7149 116.668 16.6607 114.168 16.6607C112.029 16.6607 110.279 16.6201 110.279 16.5524C110.293 16.4982 110.46 16.1731 110.668 15.8209C111.307 14.7373 114.918 8.80445 115.251 8.28972C115.418 8.01882 115.599 7.69373 115.654 7.58537C115.696 7.477 115.904 7.13837 116.099 6.84037C116.737 5.86511 116.807 5.75675 116.987 5.41811C117.071 5.22848 117.362 4.78148 117.612 4.40221C117.849 4.03649 118.057 3.68431 118.057 3.63013C118.057 3.5624 115.585 3.52177 112.571 3.52177C107.793 3.52177 107.085 3.54886 107.085 3.72495ZM117.196 4.42931C117.029 4.71376 116.849 4.97112 116.807 5.01175C116.765 5.05239 116.654 5.22848 116.557 5.41811C116.46 5.60775 116.237 6.00056 116.043 6.29856C115.849 6.59656 115.654 6.93519 115.599 7.04355C115.543 7.15192 115.446 7.30091 115.376 7.38219C115.251 7.53119 110.738 14.9811 110.418 15.5771C109.932 16.4711 109.654 16.6607 108.752 16.6607C107.765 16.6607 107.71 16.5388 108.307 15.6719C108.529 15.3604 108.89 14.7644 109.127 14.358C109.71 13.315 109.918 12.9764 110.071 12.7868C110.154 12.692 111.057 11.202 112.085 9.48171C113.113 7.76146 114.099 6.12247 114.279 5.85156C114.46 5.58066 114.626 5.24203 114.682 5.10657C114.724 4.98466 114.793 4.8763 114.849 4.8763C114.904 4.8763 115.057 4.65958 115.182 4.40221L115.418 3.92813H116.46H117.487L117.196 4.42931Z" fill="white"/>
<path d="M120.14 10.2267C120.14 14.6018 120.182 16.9316 120.279 16.9316C120.362 16.9316 120.418 15.7532 120.418 13.6808C120.418 10.6195 120.432 10.4299 120.668 10.5518C120.793 10.6195 122.376 12.0824 124.168 13.8027C127.126 16.6336 127.779 17.1755 127.779 16.8097C127.779 16.742 126.779 15.7532 125.543 14.6154L123.321 12.5294L123.39 11.9876C123.612 10.5789 123.64 9.53589 123.473 8.80445L123.307 8.03236L125.626 5.81093C127.182 4.32094 127.862 3.57595 127.723 3.54886C127.584 3.52177 126.904 4.06358 126.029 4.90339C125.223 5.67548 123.696 7.13837 122.626 8.15427C121.557 9.18371 120.626 10.0235 120.557 10.0235C120.473 10.0235 120.418 8.80445 120.418 6.77265C120.418 4.70021 120.362 3.52177 120.279 3.52177C120.182 3.52177 120.14 5.85156 120.14 10.2267ZM123.126 8.66899C123.293 8.92635 123.237 11.2291 123.057 11.649L122.876 12.0689L121.987 11.2291C121.515 10.755 121.112 10.3215 121.112 10.2538C121.112 10.0777 122.737 8.53354 122.904 8.53354C122.973 8.53354 123.084 8.58772 123.126 8.66899Z" fill="white"/>
<path d="M136.584 4.09067C136.445 4.33449 135.015 7.15192 133.376 10.3622C131.751 13.5589 130.348 16.295 130.279 16.4169C130.098 16.7285 130.098 16.9316 130.279 16.9316C130.348 16.9316 130.973 15.8209 131.668 14.4664C132.362 13.1119 133.001 11.947 133.098 11.8928C133.307 11.7573 137.793 11.7573 138.001 11.8928C138.07 11.947 138.709 13.0848 139.39 14.4258L140.654 16.8639L142.126 16.9045C142.945 16.9181 143.612 16.891 143.612 16.8368C143.612 16.7149 136.932 3.65722 136.862 3.65722C136.834 3.65722 136.709 3.8604 136.584 4.09067ZM139.987 10.457C141.681 13.7485 143.056 16.4846 143.056 16.5524C143.056 16.6201 142.57 16.6607 141.987 16.6336L140.904 16.593L138.376 11.6625C136.973 8.9399 135.834 6.58301 135.834 6.42047C135.834 6.25792 135.918 6.02765 136.029 5.93284C136.126 5.82447 136.265 5.5942 136.32 5.41811C136.432 5.09303 136.793 4.46994 136.876 4.46994C136.904 4.46994 138.307 7.16546 139.987 10.457ZM136.709 9.18371C137.293 10.3486 137.779 11.351 137.779 11.4051C137.779 11.4729 136.779 11.5135 135.557 11.5135C134.14 11.5135 133.334 11.4593 133.334 11.3781C133.334 11.1613 135.432 7.04355 135.529 7.04355C135.584 7.04355 136.112 8.00527 136.709 9.18371Z" fill="white"/>
<path d="M46.8091 28.1742C46.8091 33.3215 46.8507 36.0305 46.948 36.0305C47.0313 36.0305 47.0869 34.7302 47.0869 32.3868C47.0869 30.3821 47.1285 28.6483 47.1702 28.5264C47.2257 28.3774 48.2535 29.2849 50.809 31.7502C54.92 35.7054 55.3366 36.0712 55.6283 36.0034C55.781 35.9763 54.9061 35.0553 53.1283 33.3215C50.684 30.9646 50.4062 30.653 50.4895 30.3415C50.8784 28.8786 50.8784 26.6978 50.5034 25.858C50.434 25.6954 50.7395 25.3297 51.6284 24.4764C56.1977 20.1148 56.0171 20.3179 55.6144 20.3179C55.4616 20.3179 53.6978 21.9027 51.3228 24.1648C49.1146 26.2914 47.2535 27.9846 47.198 27.9575C47.1285 27.9169 47.0869 26.1831 47.0869 24.0971C47.0869 21.6725 47.0313 20.3179 46.948 20.3179C46.8507 20.3179 46.8091 23.027 46.8091 28.1742ZM50.2256 26.5082C50.2812 26.7926 50.3368 27.5105 50.3368 28.1065C50.3368 29.4069 50.184 30.206 49.9618 30.206C49.8645 30.206 49.3368 29.759 48.7674 29.2037L47.7535 28.2149L48.8507 27.1177C49.4479 26.5217 49.9757 26.0205 50.0312 26.0205C50.0868 26.007 50.1701 26.2372 50.2256 26.5082Z" fill="white"/>
<path d="M58.3364 28.1337V35.9629L60.3503 32.0483C61.4474 29.8946 62.378 28.1201 62.4058 28.0931C62.4335 28.066 62.8224 28.1066 63.2946 28.1879C63.8779 28.2962 64.364 28.2827 64.9473 28.1879C65.9195 28.0118 65.8918 27.9847 66.6001 29.3934C67.0862 30.3551 67.5445 31.2356 67.8084 31.6961C67.8639 31.8045 67.975 32.0483 68.0584 32.2379C68.1278 32.4276 68.2528 32.6714 68.3361 32.7797C68.4056 32.8881 68.7111 33.4706 69.0028 34.0665C70.1139 36.2609 70.0027 36.9111 70.0027 28.1337C70.0027 21.2933 69.975 20.318 69.7944 20.318C69.6139 20.318 69.5861 21.212 69.5583 27.1855L69.5167 34.0665L66.8917 28.9464C65.4334 26.1425 64.2113 23.8398 64.1557 23.8398C64.114 23.8398 62.8918 26.1425 61.4474 28.9464L58.8225 34.053L58.7531 27.2397C58.6975 21.9435 58.642 20.3993 58.517 20.3451C58.3781 20.3045 58.3364 21.9164 58.3364 28.1337ZM64.5168 25.2892C64.6418 25.5736 64.9335 26.1425 65.1557 26.5624C65.7945 27.768 65.7807 27.768 64.1696 27.768C62.9613 27.768 62.7807 27.7409 62.7807 27.5377C62.7807 27.2668 64.0307 24.788 64.1696 24.788C64.2251 24.788 64.3779 25.0183 64.5168 25.2892Z" fill="white"/>
<path d="M90.7937 20.3992C90.5437 20.6566 91.0437 20.7243 92.9325 20.7243H95.0019V28.3774V36.0305H96.3908H97.7796L97.8074 28.4045L97.8491 20.792L99.974 20.7514C101.724 20.7243 102.085 20.6837 102.085 20.5211C102.085 20.345 101.321 20.3179 96.488 20.3179C93.4047 20.3179 90.8354 20.3586 90.7937 20.3992ZM97.1407 20.8056C97.3352 20.8868 97.363 21.6589 97.363 28.269V35.6377L96.4324 35.5971L95.488 35.5564L95.4463 28.2555C95.4186 22.4987 95.4463 20.9275 95.5852 20.8327C95.7936 20.7108 96.8352 20.6837 97.1407 20.8056Z" fill="white"/>
<path d="M104.446 28.1742V36.0305H108.405C111.807 36.0305 112.363 36.0034 112.363 35.8273C112.363 35.6648 111.946 35.6242 109.766 35.5971L107.155 35.5564V31.8315V28.1065L109.766 28.0659C111.293 28.0523 112.363 27.9846 112.363 27.9033C112.363 27.8221 111.293 27.7543 109.766 27.7408L107.155 27.7001V24.2461V20.792L109.766 20.7514C111.946 20.7243 112.363 20.6837 112.363 20.5211C112.363 20.345 111.807 20.3179 108.405 20.3179H104.446V28.1742ZM106.641 28.2013L106.668 35.6242H105.766H104.863V28.269C104.863 24.219 104.905 20.8598 104.96 20.8056C105.016 20.7514 105.405 20.7243 105.835 20.7514L106.599 20.792L106.641 28.2013Z" fill="white"/>
<path d="M114.724 20.5076C114.724 20.6701 114.849 20.7243 115.196 20.7243C116.196 20.7243 116.112 20.0741 116.112 28.4587C116.112 35.0959 116.14 36.0305 116.321 36.0305C116.501 36.0305 116.529 35.6106 116.529 33.1183V30.206H117.529H118.543L121.543 33.1318C123.696 35.2313 124.626 36.0441 124.807 36.0034C125.001 35.9763 124.362 35.272 122.154 33.1183L119.237 30.2738L120.418 30.1925C121.946 30.0977 122.932 29.6507 123.89 28.6212C124.973 27.4699 125.196 26.8739 125.196 25.2484C125.196 24.4493 125.14 23.7991 125.043 23.6907C124.959 23.5824 124.848 23.3521 124.793 23.176C124.682 22.8103 124.654 22.7696 123.946 21.9705C123.432 21.4016 123.237 21.2661 122.085 20.7108C121.501 20.4263 121.223 20.3992 118.099 20.345C115.071 20.2908 114.724 20.3179 114.724 20.5076ZM118.251 20.8056C118.446 20.8733 118.474 21.4016 118.474 25.3433V29.7997H117.501H116.529V25.3568C116.529 22.9051 116.571 20.8598 116.626 20.8191C116.737 20.6972 117.96 20.6972 118.251 20.8056ZM122.126 21.1713C123.015 21.5641 123.932 22.4581 124.404 23.3656C124.696 23.921 124.765 24.2461 124.779 25.2078C124.793 26.6436 124.432 27.5241 123.446 28.4722C122.501 29.3798 121.723 29.6913 120.182 29.7726L118.89 29.8268V25.3703C118.89 22.9186 118.932 20.8598 119.001 20.8056C119.21 20.5753 121.39 20.8327 122.126 21.1713Z" fill="white"/>
<path d="M80.3359 20.5753C80.2248 20.643 79.5998 21.835 78.7249 23.6365C78.586 23.9345 78.4054 24.2732 78.336 24.3815C78.2665 24.4899 76.8916 27.1583 75.2805 30.3008C73.0306 34.7437 72.4195 36.0305 72.6139 36.0305C72.7806 36.0305 73.2667 35.2178 74.3639 33.0505L75.8777 30.0706H78.836H81.7803L83.1136 32.6306C83.8358 34.0258 84.5441 35.3668 84.683 35.6106L84.933 36.0305H86.6413C87.5718 36.0305 88.3357 35.9899 88.3357 35.9222C88.3357 35.6512 80.4331 20.494 80.3359 20.5753ZM84.0719 28.418C86.0302 32.2649 87.6413 35.4752 87.6413 35.5293C87.6413 35.5835 87.0718 35.6106 86.3635 35.5971L85.0997 35.5564L82.1414 29.7997C80.5026 26.6301 79.1693 23.9481 79.1693 23.8397C79.1693 23.6095 80.2943 21.4016 80.4193 21.4016C80.4609 21.4151 82.0998 24.5712 84.0719 28.418ZM80.2109 26.9687C80.9054 28.3097 81.4887 29.461 81.5026 29.5423C81.5303 29.61 80.4887 29.6642 78.9054 29.6642C76.8777 29.6642 76.2527 29.6236 76.2527 29.4881C76.2388 29.2172 78.6693 24.5305 78.8221 24.5305C78.9054 24.517 79.5304 25.6142 80.2109 26.9687Z" fill="white"/>
<path d="M135.584 20.6296C135.515 20.7108 134.932 21.7945 134.307 23.0271C129.487 32.4005 127.668 35.9764 127.723 36.0171C127.918 36.2202 128.348 35.5565 129.654 32.9965L131.154 30.0707H134.112H137.056L137.445 30.775C137.654 31.1678 137.918 31.669 138.015 31.8993C138.126 32.116 138.265 32.4005 138.334 32.5088C138.404 32.6172 138.598 32.9829 138.751 33.3215C138.904 33.6602 139.126 34.0801 139.223 34.2697C139.334 34.4593 139.584 34.9334 139.779 35.3127L140.126 36.0306H141.862C142.834 36.0306 143.612 35.99 143.612 35.9222C143.612 35.8681 141.834 32.3734 139.667 28.1472C136.876 22.702 135.681 20.5077 135.584 20.6296ZM142.917 35.5159C142.917 35.5836 142.348 35.6107 141.654 35.5972L140.39 35.5565L139.709 34.2697C139.334 33.5654 138.904 32.712 138.751 32.3734C138.584 32.0347 138.154 31.1814 137.779 30.477C137.404 29.7727 137.084 29.1225 137.084 29.0277C137.084 28.9464 137.043 28.8516 136.987 28.8245C136.834 28.7703 134.445 24.0565 134.445 23.8263C134.445 23.6095 135.307 21.9028 135.57 21.5913C135.695 21.4423 136.431 22.7697 139.32 28.391C141.306 32.2379 142.917 35.4482 142.917 35.5159ZM134.473 24.9505C135.501 26.9417 136.806 29.5424 136.806 29.5966C136.806 29.6372 135.626 29.6643 134.168 29.6643C132.265 29.6643 131.529 29.6237 131.529 29.5018C131.529 29.2309 133.959 24.5306 134.098 24.5171C134.182 24.5171 134.348 24.7203 134.473 24.9505Z" fill="white"/>
<defs>
<clipPath id="clip0_258_182">
<rect width="37.1773" height="40.4385" fill="white" transform="translate(0 0.302002)"/>
</clipPath>
</defs>
</svg>
