<svg width="195" height="57" viewBox="0 0 195 57" fill="none" xmlns="http://www.w3.org/2000/svg">
<g clip-path="url(#clip0_419_289)">
<g clip-path="url(#clip1_419_289)">
<path d="M50.2123 0.891654C45.4534 -0.210878 43.7154 7.6807 48.541 8.52456C53.3625 9.36843 54.3736 1.85425 50.2123 0.891654Z" stroke="#FF9B50" stroke-width="0.3"/>
<path d="M16.7877 1.73976C15.3379 1.00615 14.3936 3.10944 15.5301 3.85577C16.6665 4.6021 17.9492 2.32919 16.7877 1.73976Z" stroke="#FF9B50" stroke-width="0.3"/>
<path d="M19.2945 8.52453C19.8627 5.72155 15.3922 4.22466 13.3449 6.72231C11.2935 9.22421 17.3224 9.47864 19.2945 8.52453Z" stroke="#FF9B50" stroke-width="0.3"/>
<path d="M21.3836 14.0372C21.2582 10.3522 13.9132 9.26663 11.3896 12.799C8.87022 16.3356 18.7012 14.6775 21.3836 14.0372Z" stroke="#FF9B50" stroke-width="0.3"/>
<path d="M47.2876 20.398C50.1579 19.1004 50.7136 13.7913 54.7998 15.7419C58.8818 17.6968 61.0502 15.1949 56.4877 13.6047C51.9294 12.0103 50.7136 13.4436 47.8098 16.2635C44.9061 19.0792 42.8463 19.6941 39.3785 17.4C35.9148 15.1059 33.4456 18.6128 30.6797 20.08C27.9096 21.543 25.8624 25.4018 22.499 24.3544C19.1357 23.3028 15.438 23.4809 12.2878 24.7361C9.1375 25.9913 4.67113 29.0953 9.1751 29.6338C13.6791 30.1724 16.4742 27.5645 20.5478 28.0309C24.6215 28.4974 26.7481 25.758 29.6352 24.1085C32.5222 22.4631 34.2854 19.2488 37.3939 19.4142C40.5065 19.5796 43.7571 22.302 46.8405 22.972C49.9239 23.6463 52.999 25.5375 56.0615 26.3347C51.8166 28.2854 46.7361 28.4804 41.8853 28.9087C37.0346 29.337 32.8314 30.0621 31.7367 35.1465C30.6379 40.2266 23.4516 38.0852 19.7122 39.4803C15.977 40.8797 9.90627 39.4379 6.44682 42.5547C2.98319 45.6672 4.99284 50.8279 9.1751 52.7192C13.3574 54.6147 18.8474 54.356 23.4683 53.4697C28.0935 52.5877 32.2883 51.8711 36.8089 50.4717C41.3338 49.0766 43.3017 44.9293 43.1178 40.3369C42.9382 35.7487 50.2122 35.0999 53.2664 34.0991C56.3164 33.0941 62.2576 28.3787 59.0196 25.0287C55.7858 21.6787 50.7972 23.0653 47.2876 20.398Z" stroke="#FF9B50" stroke-width="0.3"/>
<path d="M18.0411 16.5815C14.448 16.06 13.5037 17.7943 10.1362 19.1598C6.76866 20.521 10.8966 23.4427 13.8338 21.6405C16.771 19.834 19.9254 22.1196 22.9504 20.292C25.9753 18.4686 19.3823 16.7766 18.0411 16.5815Z" stroke="#FF9B50" stroke-width="0.3"/>
<path d="M3.41782 38.6321C7.50398 38.3523 12.1208 38.4752 15.9521 37.36C19.7834 36.2447 24.6174 38.2674 28.056 36.0751C31.4903 33.8785 23.4684 32.653 20.9741 31.8388C18.484 31.0247 13.6625 30.6218 11.2267 32.988C8.79501 35.3585 3.11282 34.1966 3.41782 38.6321Z" stroke="#FF9B50" stroke-width="0.3"/>
<path d="M51.8835 37.7841C49.1135 37.4364 44.6429 40.9645 45.9005 43.8565C47.1581 46.7485 51.8793 44.6537 54.9419 43.8565C58.0044 43.0593 54.6578 38.1318 51.8835 37.7841Z" stroke="#FF9B50" stroke-width="0.3"/>
<path d="M50.2123 0.891654C45.4534 -0.210878 43.7154 7.6807 48.541 8.52456C53.3625 9.36843 54.3736 1.85425 50.2123 0.891654Z" fill="#FF9B50"/>
<path d="M16.7877 1.73976C15.3379 1.00615 14.3936 3.10944 15.5301 3.85577C16.6665 4.6021 17.9492 2.32919 16.7877 1.73976Z" fill="#FF9B50"/>
<path d="M19.2945 8.52453C19.8627 5.72155 15.3922 4.22466 13.3449 6.72231C11.2935 9.22421 17.3224 9.47864 19.2945 8.52453Z" fill="#FF9B50"/>
<path d="M21.3836 14.0372C21.2582 10.3522 13.9132 9.26663 11.3896 12.799C8.87022 16.3356 18.7012 14.6775 21.3836 14.0372Z" fill="#FF9B50"/>
<path d="M47.2876 20.398C50.1579 19.1004 50.7136 13.7913 54.7998 15.7419C58.8818 17.6968 61.0502 15.1949 56.4877 13.6047C51.9294 12.0103 50.7136 13.4436 47.8098 16.2635C44.9061 19.0792 42.8463 19.6941 39.3785 17.4C35.9148 15.1059 33.4456 18.6128 30.6797 20.08C27.9096 21.543 25.8624 25.4018 22.499 24.3544C19.1357 23.3028 15.438 23.4809 12.2878 24.7361C9.1375 25.9913 4.67113 29.0953 9.1751 29.6338C13.6791 30.1724 16.4742 27.5645 20.5478 28.0309C24.6215 28.4974 26.7481 25.758 29.6352 24.1085C32.5222 22.4631 34.2854 19.2488 37.3939 19.4142C40.5065 19.5796 43.7571 22.302 46.8405 22.972C49.9239 23.6463 52.999 25.5375 56.0615 26.3347C51.8166 28.2854 46.7361 28.4804 41.8853 28.9087C37.0346 29.337 32.8314 30.0621 31.7367 35.1465C30.6379 40.2266 23.4516 38.0852 19.7122 39.4803C15.977 40.8797 9.90627 39.4379 6.44682 42.5547C2.98319 45.6672 4.99284 50.8279 9.1751 52.7192C13.3574 54.6147 18.8474 54.356 23.4683 53.4697C28.0935 52.5877 32.2883 51.8711 36.8089 50.4717C41.3338 49.0766 43.3017 44.9293 43.1178 40.3369C42.9382 35.7487 50.2122 35.0999 53.2664 34.0991C56.3164 33.0941 62.2576 28.3787 59.0196 25.0287C55.7858 21.6787 50.7972 23.0653 47.2876 20.398Z" fill="#FF9B50"/>
<path d="M18.0411 16.5815C14.448 16.06 13.5037 17.7943 10.1362 19.1598C6.76866 20.521 10.8966 23.4427 13.8338 21.6405C16.771 19.834 19.9254 22.1196 22.9504 20.292C25.9753 18.4686 19.3823 16.7766 18.0411 16.5815Z" fill="#FF9B50"/>
<path d="M3.41782 38.6321C7.50398 38.3523 12.1208 38.4752 15.9521 37.36C19.7834 36.2447 24.6174 38.2674 28.056 36.0751C31.4903 33.8785 23.4684 32.653 20.9741 31.8388C18.484 31.0247 13.6625 30.6218 11.2267 32.988C8.79501 35.3585 3.11282 34.1966 3.41782 38.6321Z" fill="#FF9B50"/>
<path d="M51.8835 37.7841C49.1135 37.4364 44.6429 40.9645 45.9005 43.8565C47.1581 46.7485 51.8793 44.6537 54.9419 43.8565C58.0044 43.0593 54.6578 38.1318 51.8835 37.7841Z" fill="#FF9B50"/>
</g>
<path d="M90.5786 3.85639C90.7286 3.98318 90.7661 4.20506 90.6536 4.36355C90.5036 4.55373 90.3161 4.77561 90.1286 4.9341C87.8411 7.15292 85.8536 9.56192 83.6786 11.8441C83.5661 11.9709 83.4911 12.0977 83.3786 12.2562C84.1286 13.0803 84.6911 14.0313 85.2911 14.9505C86.6036 17.0742 87.8036 19.293 88.8911 21.5119C89.2661 22.2409 89.6411 22.9382 90.0161 23.6673C90.2036 24.0159 90.1286 24.3012 89.5286 24.428C88.7786 24.5865 88.0661 24.5231 87.3911 24.2695C87.0536 24.1744 86.7911 23.9842 86.6036 23.699C86.4161 23.3503 86.1911 22.9699 85.9661 22.6213C84.6161 20.1489 83.2286 17.7082 81.8786 15.2675C81.7286 15.0139 81.6911 14.7286 81.3161 14.5701C80.8661 15.0456 80.4161 15.5527 80.0786 16.0916C79.8911 16.4403 79.6661 16.6621 79.2161 16.7255C79.1036 16.7255 79.0286 16.7889 78.9161 16.8523C78.8786 17.0425 78.8411 17.2644 78.8411 17.4546C78.7661 19.3881 78.7286 21.3217 78.6911 23.2552V23.6673C78.7286 24.1427 78.4661 24.428 77.9411 24.5865C77.0036 24.8401 76.0661 24.8401 75.1286 24.5548C74.6786 24.428 74.3786 24.1744 74.3786 23.7307C74.3786 23.4454 74.3411 23.1918 74.3036 22.9065C74.1911 20.339 73.8911 17.7716 74.0411 15.1724C74.1911 13.1437 74.3786 11.1151 74.5286 9.05477C74.6036 7.78687 74.7161 6.48727 74.7911 5.21938C74.8286 4.77561 74.9036 4.36355 74.9411 3.91978C74.9786 3.57111 75.2036 3.31753 75.6161 3.19074C76.4786 2.90547 77.3411 2.90547 78.2036 3.22244C78.5411 3.34923 78.7661 3.57111 78.8036 3.88809C78.8786 4.26846 78.9536 4.61713 78.9911 4.9975C79.1411 6.96274 79.1786 8.92798 79.0661 10.8932C79.0286 11.1468 79.0661 11.4004 79.0661 11.654C79.1411 11.6857 79.1786 11.6857 79.2536 11.7173L79.8161 11.0517C81.7661 8.611 83.9036 6.26539 86.1536 3.98318C86.8286 3.31753 87.6161 3.09565 88.5911 3.19074C89.0411 3.25414 89.5286 3.34923 89.9786 3.47602C90.2036 3.53941 90.3911 3.6979 90.5786 3.85639ZM75.9911 5.94842C76.0286 5.82163 76.0286 5.69484 75.9911 5.56805C75.9911 5.53635 75.9161 5.50465 75.8411 5.47296C75.8036 5.47296 75.7286 5.50465 75.6911 5.53635C75.6536 5.75823 75.5786 5.94842 75.5411 6.1703C75.2411 9.37174 75.0536 12.6049 75.0161 15.8063C74.9786 17.8983 75.0161 19.9904 75.0161 22.0824C75.0536 22.1141 75.0911 22.1141 75.0911 22.1141C75.2036 20.3073 75.3536 18.4689 75.4286 16.6621C75.5411 14.3165 75.6161 11.9392 75.7286 9.59362C75.8036 8.38912 75.9161 7.18462 75.9911 5.94842ZM88.5161 22.0824C88.2911 21.4168 87.6536 20.4975 87.1661 19.8002C87.2411 19.8002 87.1661 19.7685 87.1661 19.8002C87.5411 20.9413 88.1411 22.019 88.5536 22.3677C88.5911 22.2726 88.5536 22.1458 88.5161 22.0824ZM87.0536 19.5466C87.0161 19.5783 87.0161 19.61 87.0161 19.6417L87.1661 19.7685C87.1661 19.7368 87.1286 19.6417 87.1286 19.61C87.1286 19.5783 87.0911 19.4832 87.0536 19.5466ZM86.8286 4.71222C87.0536 4.45864 86.5661 4.26846 86.3411 4.49034C84.5411 6.32879 82.4411 8.6744 80.7536 10.6079C80.5286 10.8615 80.6786 10.8932 80.8661 10.6396L81.3161 10.1642H81.3536V10.1325C81.5036 9.97399 81.6161 9.8472 81.7661 9.68871C81.9161 9.56192 82.0286 9.49853 82.1036 9.37174C82.1411 9.34004 82.1786 9.30834 82.1786 9.27665C82.2536 9.18155 82.3286 9.11816 82.4036 9.02307C82.4786 8.99137 82.5161 8.95967 82.5911 8.92798C83.3786 8.16724 84.1661 7.3748 84.9911 6.58237C85.1786 6.39218 85.3661 6.202 85.5536 6.04351C85.7786 5.82163 86.0036 5.63144 86.2286 5.40956C86.3411 5.31447 86.4161 5.18768 86.5286 5.06089C86.6411 4.9658 86.7536 4.83901 86.8286 4.71222ZM110.858 11.9709C111.345 12.0977 111.458 12.2879 111.345 12.7634C111.158 13.4924 110.933 14.2214 110.708 14.9822C109.995 17.2327 109.32 19.4832 108.608 21.7337C108.383 22.336 108.158 23.0016 107.858 23.6039C107.295 24.7133 105.495 25.1888 104.37 24.3963C104.07 24.2061 103.845 23.8575 103.77 23.5405C103.358 22.6213 103.058 21.6386 102.72 20.7194C102.608 20.4658 102.495 20.244 102.345 19.927C102.12 20.339 101.97 20.656 101.783 20.973C101.408 21.7337 100.958 22.4628 100.545 23.2235C99.9076 24.6182 98.4451 24.5548 97.3951 24.3012C96.9451 24.2061 96.7201 23.9526 96.6451 23.5405C96.6076 23.3186 96.6076 23.0967 96.6076 22.8431C96.4201 20.1172 96.4951 17.3912 96.6076 14.6652C96.6076 14.5384 96.6451 14.3799 96.6451 14.2848C96.7201 13.4607 96.9826 13.2071 97.8826 13.1437C98.1826 13.112 98.4826 13.1437 98.7826 13.1754C99.4576 13.3022 99.6826 13.4924 99.6826 14.1264C99.6826 15.2675 99.6826 16.5037 99.6451 17.6765V18.0885C99.9451 18.1202 99.9826 17.93 100.058 17.8033C100.433 17.1059 100.77 16.4086 101.07 15.6795C101.408 15.0139 101.97 14.7286 102.758 14.7286C103.058 14.7286 103.358 14.792 103.695 14.8237C104.145 14.9188 104.52 15.2041 104.595 15.6795C104.82 16.6938 105.045 17.7082 105.308 18.7542C105.383 19.1979 105.42 19.61 105.645 19.9904C106.058 19.927 106.02 19.6417 106.058 19.4832C106.508 18.0568 106.92 16.5988 107.408 15.1724C107.67 14.3482 108.045 13.5558 108.308 12.7951C108.458 12.1611 108.908 11.8758 109.583 11.8441C109.958 11.8124 110.408 11.8758 110.858 11.9709ZM97.0951 22.8748C97.0951 23.5088 97.4326 23.0333 97.4326 23.0967C97.3951 22.1141 97.3576 21.0681 97.3576 20.0855C97.2826 19.1028 97.0951 17.8666 97.0201 16.9157C97.0201 16.884 96.9826 16.9157 96.9826 16.884C97.0201 17.8666 96.9826 18.9761 97.0201 19.9587C97.0201 20.9413 97.0201 21.9239 97.0951 22.8748ZM103.808 15.2041C103.958 15.2358 104.033 15.2358 103.845 15.1724C103.095 14.9188 101.933 14.9822 101.408 15.6478C101.22 15.8697 101.52 15.8697 101.558 15.7429C102.008 15.2041 103.133 15.0139 103.808 15.2041ZM107.333 23.6673C107.37 23.6039 107.145 23.6356 107.108 23.699C106.845 24.2061 105.795 24.4597 105.27 24.2378C105.158 24.2061 105.008 24.3329 105.083 24.3646C105.795 24.6499 107.033 24.3012 107.333 23.6673ZM109.133 12.6049C109.17 12.5098 109.095 12.4781 109.095 12.5098C108.345 14.158 107.558 15.7429 107.145 17.518C107.07 17.9617 107.183 18.1202 107.333 17.6131C107.82 15.9331 108.383 14.1897 109.133 12.6049ZM127.762 15.1724C127.837 16.1867 127.874 17.1693 127.837 18.1836C127.724 20.0855 127.612 21.9873 127.462 23.8892V24.3012C127.424 24.5231 127.274 24.6499 127.087 24.7133C126.637 24.9035 126.187 24.9352 125.699 24.9035C124.837 24.8084 124.649 24.5865 124.649 23.8892C124.612 23.6039 124.649 23.2869 124.649 22.9699C124.387 23.065 124.237 23.065 124.162 23.1284C124.012 23.2235 123.862 23.2869 123.749 23.382C122.212 24.4597 120.524 24.5865 118.687 24.1427C117.224 23.7941 116.474 22.8748 116.212 21.6703C116.024 20.4658 116.624 19.4832 117.824 18.7859C118.237 18.5323 118.799 18.3421 119.362 18.2153C120.937 17.8033 122.624 17.7716 124.237 17.93C124.387 17.93 124.612 17.93 124.762 17.9934C124.912 17.3595 124.949 15.2992 124.799 14.4116C124.687 13.9679 124.649 13.4924 124.312 13.0486C124.162 13.0803 123.974 13.0803 123.824 13.1437C123.112 13.5875 122.437 13.9996 121.724 14.4433C120.974 14.9188 120.187 14.9188 119.399 14.6652C119.099 14.5384 118.987 14.3165 119.212 14.1264C119.249 14.0313 119.287 13.9679 119.399 13.9045C120.374 12.9852 121.574 12.3196 122.962 11.8441C123.749 11.6223 124.612 11.5589 125.399 11.654C126.374 11.7807 127.049 12.1928 127.387 12.9852C127.612 13.7143 127.762 14.4116 127.762 15.1724ZM123.074 12.4147C123.449 12.2879 123.224 12.0343 122.962 12.0977C121.687 12.5732 120.524 13.2388 119.662 14.158C119.549 14.2531 119.662 14.2848 119.699 14.2214C120.524 13.3339 121.762 12.7951 123.074 12.4147ZM117.112 20.5609C117.524 18.6591 120.974 18.1836 122.812 18.1519C123.074 18.1519 123.074 18.0568 122.812 18.0568C120.787 18.0568 117.112 18.5323 116.662 20.5609C116.662 20.6243 117.074 20.656 117.112 20.5609ZM124.687 21.3217C124.687 20.8779 124.762 20.4658 124.762 19.9587C123.599 19.6417 122.624 19.5149 121.724 20.2757C121.049 20.8145 120.599 21.5119 120.974 22.4311C121.612 22.2409 122.174 21.9873 122.812 21.8288C123.412 21.6386 124.049 21.5119 124.687 21.3217ZM127.087 24.3963C127.274 23.0967 127.274 21.6703 127.162 20.3707C127.162 20.339 127.087 20.339 127.087 20.3707C127.162 21.6703 126.974 22.8748 126.749 24.1427C126.637 24.4597 127.087 24.3963 127.087 24.3963ZM142.378 11.7807C142.491 11.8124 142.603 11.9709 142.603 12.1294C142.641 12.2245 142.491 12.3513 142.416 12.383C142.041 12.5098 141.703 12.6049 141.366 12.6366C140.578 12.7 139.791 12.7317 139.003 12.7951C138.778 13.112 138.816 13.4607 138.778 13.7777C138.591 16.3769 138.441 18.9127 138.253 21.4802C138.216 21.9873 138.141 22.5579 138.103 23.065C138.066 23.382 137.841 23.6039 137.466 23.6673C137.091 23.7307 136.753 23.7307 136.378 23.7307C135.591 23.6673 135.403 23.5088 135.403 22.7797C135.478 19.8636 135.591 16.9791 135.628 14.063C135.666 13.7143 135.666 13.3973 135.666 12.9852H133.903C133.491 12.9852 133.041 12.8902 132.666 12.7317C132.403 12.5732 132.403 12.2245 132.666 12.1294C133.003 12.0343 133.378 11.9075 133.678 11.8441C134.316 11.7807 134.991 11.749 135.666 11.6857C135.703 11.4004 135.741 11.1785 135.741 10.9249C135.816 9.9106 135.853 8.86458 135.928 7.85026C135.928 7.72347 135.928 7.59668 135.966 7.46989C136.116 6.61406 136.378 6.39218 137.391 6.32879C137.653 6.29709 137.953 6.32879 138.216 6.36049C139.003 6.48727 139.153 6.64576 139.153 7.31141C139.116 8.10384 139.078 8.92798 139.041 9.75211C139.003 10.3227 139.003 10.8932 138.966 11.4955C139.191 11.5589 139.378 11.5906 139.603 11.5906C140.128 11.5906 140.691 11.5589 141.216 11.5906C141.591 11.5906 141.966 11.6857 142.378 11.7807ZM136.416 9.08646C136.416 8.45251 136.566 7.88196 136.491 7.12122C136.341 7.27971 136.378 7.12122 136.378 7.18462C135.891 11.0834 135.891 15.109 136.041 18.9761C136.116 18.3421 136.191 17.7082 136.228 17.0425C136.266 16.4086 136.266 15.7429 136.303 15.109C136.341 14.475 136.303 13.8094 136.341 13.1754C136.378 12.5098 136.341 11.749 136.378 11.1151C136.416 10.4178 136.416 9.78381 136.416 9.08646ZM142.041 12.0977C142.078 12.1294 142.266 12.2562 142.228 12.1294C142.153 11.9075 141.891 11.8441 141.591 11.8124C141.066 11.749 140.503 11.8124 139.978 11.8124C139.903 11.8441 140.128 11.9075 140.166 11.9075C140.578 11.8758 141.703 11.7173 142.041 12.0977ZM155.42 11.9709C156.582 12.1294 157.032 12.3513 158.345 13.2705C158.495 13.3656 158.607 13.5558 158.495 13.7143C158.382 13.9996 158.12 14.1897 157.895 14.4116C156.882 15.4893 155.795 16.5037 154.745 17.6131C153.92 18.5006 153.057 19.4515 152.232 20.339C152.307 20.9413 152.645 21.3851 153.02 21.7971C153.507 22.3994 154.332 22.5896 155.232 22.3677C155.757 22.2409 156.245 22.1775 156.77 22.0824C157.032 22.0507 157.332 22.0824 157.557 22.1775C157.895 22.2092 158.232 22.336 158.307 22.7164C158.345 23.0016 158.157 23.1918 157.895 23.3503C157.332 23.699 156.62 23.8892 155.907 24.0159C154.07 24.2695 152.232 24.111 150.432 23.5722C149.457 23.2869 148.745 22.7797 148.295 21.9873C147.057 20.0538 146.682 18.0251 147.32 15.9331C147.995 13.7143 149.757 12.4464 152.382 12.0343C153.432 11.9075 154.445 11.8124 155.42 11.9709ZM155.307 23.5405C155.157 23.5405 154.782 23.8575 154.97 23.8258C155.945 23.8258 156.882 23.5405 157.67 23.065C157.895 22.9065 157.82 22.748 157.52 22.9065C156.882 23.2869 156.095 23.5405 155.307 23.5405ZM147.92 18.2787C147.507 16.1867 148.895 14.0313 151.332 13.1754C151.67 13.0803 151.407 12.6683 151.107 12.7951C148.445 13.7143 147.357 16.0282 147.77 18.3421C147.807 18.564 147.995 18.564 147.92 18.2787ZM151.707 17.4546C152.195 17.1059 154.67 14.5067 155.045 13.9996C154.07 13.2705 153.507 13.2705 152.72 14.0313C152.57 14.1897 152.457 14.4116 152.307 14.5701C151.745 15.3942 151.52 16.3135 151.557 17.2644C151.557 17.4229 151.67 17.518 151.707 17.4546ZM157.857 13.5875C157.97 13.6826 157.857 13.4924 157.857 13.4924C157.745 13.429 157.707 13.3339 157.595 13.2705C157.182 12.9535 156.732 12.7317 156.207 12.6049C155.945 12.5415 155.907 12.6366 155.907 12.6683C155.795 12.8585 156.245 12.9219 156.545 12.9535C157.032 13.0169 157.482 13.3022 157.857 13.5875ZM175.624 16.5671C175.736 16.6938 175.736 16.884 175.624 16.9474C175.436 17.0742 175.211 17.1693 174.986 17.201C173.711 17.5497 172.511 17.201 171.761 16.2818C171.461 16.0282 171.274 15.7112 171.049 15.4259C170.974 15.2675 170.899 15.109 170.749 14.9505C170.524 15.109 170.486 15.2992 170.374 15.4893C170.036 16.2501 169.774 17.0108 169.549 17.8666C169.249 19.2613 168.911 20.6243 168.611 22.019C168.536 22.4628 168.386 22.9382 168.199 23.4137C168.011 24.0159 167.711 24.1744 166.961 24.2061H166.624C165.836 24.1744 165.611 23.9843 165.461 23.3503C165.386 22.7164 165.236 22.0507 165.199 21.4168C165.124 20.5292 165.049 19.6417 165.011 18.7225C164.936 17.0742 164.824 15.4259 164.749 13.746V13.112C164.749 12.9535 164.824 12.8268 165.011 12.7634C165.574 12.5732 166.061 12.5732 166.549 12.7634C166.849 12.8268 166.924 13.0169 166.924 13.2705C166.961 13.8411 167.074 14.4116 167.111 14.9822C167.111 15.2992 167.111 15.5527 167.149 15.8697C167.149 15.9648 167.186 16.0599 167.299 16.2501C167.411 15.8697 167.524 15.6161 167.674 15.3309C167.824 14.8237 168.124 14.3482 168.424 13.8728C169.324 12.7317 170.899 12.2879 172.399 12.7634C172.849 12.9219 173.186 13.1437 173.411 13.4924C173.524 13.6826 173.599 13.8728 173.711 14.063C173.974 14.6018 174.236 15.109 174.499 15.6161C174.761 15.9648 174.986 16.2818 175.436 16.4403C175.511 16.4403 175.549 16.5354 175.624 16.5671ZM165.424 21.4168C165.424 21.5435 165.686 21.5435 165.686 21.4168C165.574 19.3247 165.424 17.2961 165.349 15.2041C165.349 15.0773 165.049 15.0773 165.049 15.2041C165.161 17.2961 165.311 19.3247 165.424 21.4168ZM165.611 22.5579C165.649 22.7164 165.986 22.6213 165.874 22.4628C165.799 22.2726 165.799 22.1458 165.761 21.8922C165.761 21.7337 165.461 21.7337 165.461 21.8922C165.461 22.1458 165.536 22.3677 165.611 22.5579ZM168.836 14.2848C168.911 14.2531 168.836 14.1897 168.761 14.2214C168.199 14.6018 167.899 15.3626 167.786 15.9965C167.786 16.0599 167.936 16.0916 167.936 16.0282C168.011 15.4576 168.311 14.6969 168.836 14.2848ZM173.074 13.8094C173.111 13.9362 173.374 13.9045 173.336 13.746C173.074 12.8268 171.874 12.7317 170.974 12.8268C170.786 12.8268 170.786 13.0803 170.974 13.0803C171.761 12.9852 172.774 13.0169 173.074 13.8094ZM194.928 13.6826C195.078 15.4259 194.965 17.1693 194.853 18.9127C194.74 20.3073 194.553 21.7337 194.403 23.1284C194.365 23.6039 194.253 24.0476 194.178 24.4597C193.99 25.6325 193.203 26.5517 192.003 27.154C191.478 27.4393 190.953 27.6928 190.428 27.8196C189.415 28.1366 188.365 28.4536 187.353 28.7389C186.34 28.9607 185.29 29.0875 184.24 28.8023C183.64 28.6438 183.228 28.3902 183.303 28.1366C183.415 27.7562 183.79 27.5978 184.203 27.5344C185.328 27.2808 186.378 26.8687 187.465 26.4249C188.928 25.791 189.753 24.8718 189.978 23.5722C190.24 22.1775 190.428 20.8145 190.615 19.4515C190.653 18.9761 190.803 18.5006 190.615 17.9617C190.278 18.1202 189.94 18.247 189.603 18.3421C188.515 18.7859 187.353 18.9127 186.153 18.7542C185.665 18.7225 185.178 18.564 184.765 18.3421C182.665 17.4863 181.353 14.792 182.103 12.9852C182.365 12.4464 182.778 12.0977 183.453 11.9709C184.053 11.8758 184.578 11.8441 185.103 12.0026C185.815 12.1611 185.928 12.3196 185.778 12.9852C185.328 14.5067 185.815 15.838 187.128 17.0742C187.353 16.9157 187.653 16.8206 187.765 16.6621C188.253 16.0282 188.778 15.4259 189.265 14.792C189.64 14.2531 189.978 13.6826 190.315 13.112C190.653 12.5098 191.253 12.1928 192.003 12.1294C192.34 12.0977 192.678 12.0977 192.978 12.1294C194.628 12.2562 194.89 12.7 194.928 13.6826ZM183.228 16.155C183.378 16.2501 183.415 16.2818 183.303 16.155C182.253 15.4259 182.665 13.429 183.265 12.5098C183.303 12.4147 183.078 12.3196 183.003 12.4464C182.553 13.0803 182.515 13.7777 182.515 14.475C182.553 15.1407 182.665 15.7429 183.228 16.155ZM193.915 22.1141C194.178 20.2757 194.553 18.4689 194.515 16.6304C194.515 16.5988 194.44 16.5988 194.44 16.5988C194.215 18.3421 193.915 20.0855 193.69 21.8288C193.578 22.7164 193.428 23.5722 193.203 24.3963C192.978 25.1254 192.528 25.9178 191.815 26.4566C191.815 26.4566 191.178 27.0906 192.04 26.8053C192.865 26.4883 193.165 25.4423 193.353 24.7767C193.653 23.9209 193.84 23.0016 193.915 22.1141Z" fill="#545454"/>
<path d="M86.0083 40.2483C87.115 40.4043 87.3455 40.5991 87.115 41.6125C86.7461 43.4055 86.3311 45.2764 85.8699 47.1083C85.5471 48.0827 85.2244 48.9792 84.8094 49.9536C84.5788 50.4993 84.256 51.084 83.7949 51.5907C82.5499 53.2277 80.152 53.8903 78.077 53.3446C77.2009 53.1497 76.6014 52.76 76.0481 52.1363C75.218 51.2399 74.6647 50.1485 74.388 48.9792C73.7886 46.7185 73.973 44.4968 74.3419 42.1972C74.4802 41.4566 74.9414 41.0279 75.7253 40.9499C76.0481 40.911 76.3247 40.872 76.5553 40.872C77.8925 40.911 78.2153 41.2228 78.2153 42.3921C78.2153 43.7173 78.2153 45.0425 78.2614 46.4067C78.3075 47.654 78.5381 48.8623 79.1376 50.0316C79.2298 50.3434 79.5065 50.5773 79.737 51.006C80.0137 50.6552 80.1981 50.3824 80.3365 50.1485C80.7515 49.0961 81.1665 48.0048 81.4893 46.9524C81.9965 45.1984 82.5037 43.4445 83.0571 41.7685C83.426 40.5602 83.8871 40.2483 85.3166 40.2094C85.5471 40.2094 85.7777 40.2094 86.0083 40.2483ZM75.2641 45.0425C75.3103 43.8342 75.4486 42.9767 75.4486 42.3141C74.7569 43.2106 74.7108 45.3154 75.3564 47.8489C75.3103 46.7965 75.218 45.9 75.2641 45.0425ZM84.256 49.6418C85.2244 47.0693 85.7777 44.3409 86.1466 41.6905C86.1466 41.5736 86.0083 41.6515 86.0083 41.7295C85.7316 43.7173 85.1321 45.6272 84.4405 47.4981L84.1177 48.1997C84.1177 48.2386 83.8871 48.6674 83.8871 48.7064C83.7488 49.0572 83.6565 49.1741 83.5643 49.4859C83.2877 50.9281 84.2099 49.7198 84.256 49.6418ZM139.708 49.33C140.077 49.5639 140.077 49.9926 139.662 50.2265C139.293 50.4214 138.878 50.6162 138.463 50.6942C137.771 50.8111 137.08 50.8891 136.388 50.8891C134.175 50.9281 132.007 50.9281 129.84 50.9281C126.243 50.9281 122.647 51.2399 119.142 51.7855C118.128 51.9025 117.205 52.1363 116.237 52.2923C115.176 52.4482 114.162 52.4092 113.148 52.1753C112.779 52.0974 112.364 51.9415 112.041 51.7855C111.488 51.4737 111.349 51.084 111.626 50.6162C111.764 50.4214 111.903 50.2654 112.041 50.0706C114.208 47.5371 116.283 44.9646 118.543 42.4311C121.678 38.9231 125.229 35.6491 129.148 32.6868L130.532 31.6344C130.578 31.5954 130.578 31.5175 130.624 31.4395C130.578 31.2447 130.393 31.2836 130.255 31.2836C127.304 30.9718 124.399 30.8939 121.494 31.0498C120.94 31.0887 120.387 31.1667 119.88 31.2057C119.188 31.2836 118.497 31.2836 117.805 31.0887C117.62 31.0498 117.436 30.9718 117.252 30.8939C116.744 30.66 116.698 30.2312 117.159 29.9584C117.39 29.8025 117.713 29.6856 117.989 29.6076C118.543 29.4517 119.142 29.2958 119.695 29.2568C120.802 29.1399 121.909 29.023 123.016 28.984C126.474 28.906 129.932 29.1009 133.345 29.5297C134.036 29.6076 134.774 29.6466 135.42 29.8025C135.881 29.8805 136.296 30.0753 136.665 30.2702C137.172 30.582 137.31 30.9718 137.034 31.4395C136.895 31.7124 136.711 31.9462 136.48 32.1411C136.204 32.4919 135.881 32.8037 135.512 33.0766C130.624 37.2081 126.243 41.6905 122.186 46.4067C121.632 47.1083 121.033 47.7709 120.433 48.4335C120.295 48.5505 120.249 48.7064 120.064 48.9402C120.341 48.9402 120.479 48.9792 120.618 48.9402C125.552 48.4335 130.486 48.3166 135.466 48.5505C136.065 48.5894 136.665 48.5894 137.31 48.6284C137.818 48.7064 138.371 48.7843 138.878 48.9012C139.155 48.9792 139.478 49.1351 139.708 49.33ZM124.261 29.3348C124.399 29.3348 124.399 29.2568 124.307 29.2568C122.047 29.0619 119.788 29.3738 117.667 29.9974C116.929 30.2312 117.482 30.5041 117.759 30.3872C119.742 29.5297 121.955 29.2958 124.261 29.3348ZM118.589 43.9901C122.047 40.6381 125.552 37.3251 129.379 34.2459C129.471 34.1679 129.61 34.051 129.702 33.9341C129.794 33.8171 129.84 33.7002 129.61 33.5443C129.425 33.6612 129.148 33.7782 128.918 33.9341C128.457 34.2459 127.996 34.5967 127.581 34.9864C125.367 36.9743 123.2 38.9231 120.987 40.911C119.511 42.2752 118.22 43.7563 116.975 45.2764C116.79 45.5102 116.56 45.7831 116.375 46.0559C116.56 46.0949 116.698 46.0169 116.837 45.9C117.436 45.2764 117.989 44.6138 118.589 43.9901ZM134.682 48.9402C135.42 49.0572 137.08 49.33 136.988 49.1351C136.803 48.7843 134.451 48.6284 132.561 48.6674C133.299 48.7064 133.944 48.8233 134.682 48.9402ZM161.601 42.9378C161.739 43.3665 161.739 43.8342 161.785 44.185C161.693 46.5237 161.002 48.5894 159.434 50.4603C157.589 52.643 155.053 53.6954 151.825 53.5005C149.335 53.3836 147.583 52.2922 146.707 50.2654C146.2 49.1741 146.107 48.0438 146.2 46.9134C146.384 45.1984 146.891 43.5614 147.721 42.0023C148.182 41.1838 148.736 40.4043 149.427 39.7416C150.857 38.4164 152.655 37.9097 154.638 38.1826C155.745 38.2995 156.759 38.5723 157.774 38.8452C160.033 39.5468 161.186 41.0279 161.601 42.9378ZM147.306 47.654C147.306 46.0169 147.721 44.4189 148.551 42.8988C149.335 41.4956 150.396 39.3519 152.148 38.7282C152.517 38.5723 152.379 38.4944 152.056 38.6503C150.304 39.2349 149.059 40.9889 148.228 42.3921C147.214 44.0291 146.753 45.861 146.707 47.7319C146.707 48.3556 147.306 48.5505 147.306 47.654ZM154.546 50.4603C156.436 48.3166 157.313 45.9 156.898 43.2886C156.713 42.1972 156.16 41.2228 155.099 40.4432C154.361 40.4822 153.762 40.5602 153.162 40.6381C153.07 40.7161 152.978 40.833 152.84 40.9499C151.226 43.3665 150.534 46.0169 150.857 48.7843C150.949 49.5639 151.272 50.2654 151.779 50.9281C152.056 51.2399 152.24 51.5517 152.747 51.6296C153.531 51.4737 154.131 51.006 154.546 50.4603ZM161.002 46.2508C161.186 44.7307 161.739 42.7819 160.633 41.4956C160.494 41.3007 160.356 41.4177 160.494 41.6515C161.186 42.9378 160.679 44.7697 160.402 46.1729C160.31 46.8744 160.955 46.8355 161.002 46.2508ZM181.419 46.7575C182.018 47.4201 182.064 48.2386 181.788 49.0572C181.511 49.7977 181.05 50.4214 180.404 50.9281C178.191 52.9159 175.516 53.8513 172.427 53.9293C171.505 53.9293 170.582 53.9293 169.66 53.5785C168.185 53.0328 167.677 52.0974 168.092 50.6942C168.507 49.252 169.476 48.1217 170.767 47.3032C171.781 46.6796 172.934 46.6796 174.041 46.9134C174.456 46.9914 174.825 47.1863 174.871 47.615C174.917 48.0048 174.686 48.3556 174.179 48.4725C172.934 48.8233 172.519 49.7977 172.012 50.7721C171.92 51.006 171.92 51.2788 171.92 51.5127C171.874 52.0974 172.243 52.3312 172.888 52.2533C174.779 51.9025 176.208 51.006 177.13 49.4469C177.776 48.4335 177.545 47.5371 176.623 46.7965C175.885 46.3288 175.148 45.9 174.364 45.5102C173.534 45.0815 172.658 44.7307 171.874 44.302C171.32 44.0291 170.813 43.6783 170.398 43.2496C169.66 42.587 169.614 41.7685 170.167 41.0279C171.413 39.5468 172.98 38.5334 175.101 38.4164C176.116 38.3774 177.084 38.4944 178.007 38.7672C178.468 38.9231 178.837 39.079 179.252 39.2349C179.713 39.5078 179.943 39.7806 179.805 40.0535C179.713 40.4432 179.344 40.5991 178.929 40.6381C178.053 40.833 177.315 40.794 176.485 40.4432C176.024 40.2483 175.701 40.4043 175.286 40.6771C173.995 41.7685 174.041 42.3141 175.516 43.0937C176.254 43.4834 177.038 43.8342 177.73 44.224C178.606 44.6528 179.482 45.0815 180.22 45.5882C180.727 45.9 181.142 46.3288 181.419 46.7575ZM175.701 38.9621C175.516 39.0011 175.701 39.118 175.747 39.079C176.393 39.0011 177.038 39.0011 177.592 39.157C177.96 39.196 178.514 39.3129 178.744 39.6247C178.837 39.7027 179.067 39.6247 179.067 39.5857C178.744 39.196 177.96 39.079 177.499 38.9621C176.854 38.8842 176.3 38.9231 175.701 38.9621ZM169.891 49.1351C170.675 47.9268 171.781 47.1083 173.257 47.3422C173.441 47.3811 173.441 47.3032 173.303 47.3032C171.735 46.9914 170.398 47.693 169.522 48.8623C169.199 49.252 169.522 49.6808 169.891 49.1351ZM181.188 49.408C181.557 48.6674 181.511 47.8489 180.958 47.1863C180.45 46.4067 179.62 46.1339 178.837 45.6662C178.652 45.5492 178.375 45.3543 178.514 45.5102C179.067 45.9 179.989 46.4847 180.404 46.9524C181.05 47.615 181.327 48.4725 180.912 49.291C180.819 49.4469 181.142 49.5639 181.188 49.408ZM193.767 39.9755C194.182 40.0924 194.458 40.3263 194.458 40.755C194.458 40.9889 194.458 41.2228 194.412 41.4566C194.043 44.8866 193.997 48.2776 194.182 51.6686C194.228 52.3312 193.951 52.643 193.213 52.799C192.844 52.8379 192.475 52.8769 192.106 52.8379C191.046 52.76 190.631 52.4482 190.539 51.5517C190.446 50.8111 190.4 50.0706 190.354 49.369V46.3288V42.2752C190.4 41.7295 190.493 41.2228 190.585 40.7161C190.631 40.3263 190.954 40.0924 191.369 39.9755C192.153 39.7416 192.983 39.7416 193.767 39.9755ZM190.861 42.1582C190.769 44.5358 190.861 46.9134 191 49.291C191.046 48.3166 191.046 47.3422 191.046 46.3677C191.092 45.4323 191.138 44.4968 191.138 43.5614C191.138 42.6259 191.323 41.6515 191.323 40.5991C191.046 40.5212 191.046 40.833 191.046 40.911C190.954 41.3007 190.908 41.7295 190.861 42.1582ZM193.029 52.5261C193.075 52.4482 192.936 52.4871 192.844 52.4871C192.429 52.4871 191.784 52.5261 191.553 52.0194C191.276 51.3958 190.954 51.7466 191.046 52.0194C191.323 52.643 192.199 52.5651 192.752 52.6041C192.798 52.6041 193.029 52.6041 193.029 52.5261ZM194.965 35.1424C195.058 35.766 194.965 36.3896 194.689 36.9743C194.55 37.364 194.32 37.7538 193.951 38.0267C193.305 38.6113 192.245 38.6113 191.599 37.9877C191.369 37.7538 191.184 37.481 191.092 37.1692C190.815 36.1947 191.092 35.3372 191.968 34.5577C192.475 34.129 193.075 34.012 193.72 33.9341C194.089 33.8561 194.366 34.012 194.55 34.2069C194.827 34.4797 194.965 34.8305 194.965 35.1424ZM192.106 35.688C191.784 36.2337 191.784 36.2337 192.014 36.7014C191.876 36.3506 192.337 36.0778 192.106 35.688ZM192.706 37.5979C192.752 37.5589 192.798 37.52 192.844 37.52C192.614 37.403 192.429 37.2861 192.199 37.1302C192.153 37.1692 192.153 37.2081 192.153 37.2471L192.706 37.5979Z" fill="#545454"/>
</g>
<defs>
<clipPath id="clip0_419_289">
<rect width="195" height="56.91" fill="white"/>
</clipPath>
<clipPath id="clip1_419_289">
<rect width="61" height="67" fill="white" transform="translate(3 -5.04504)"/>
</clipPath>
</defs>
</svg>
