<svg width="390" height="78" viewBox="0 0 390 78" fill="none" xmlns="http://www.w3.org/2000/svg">
<g clip-path="url(#clip0_155_236)">
<path d="M390 39L373.75 36.3814C357.5 33.9857 325 28.4143 292.5 29.9186C260 31.2 227.5 39 195 39C162.5 39 130 31.2 97.5 24.6814C65 18.3857 32.5 12.8143 -1.43051e-05 20.7814C-32.5 28.4143 -65 49.5857 -97.5 59.7814C-130 70.2 -162.5 70.2 -195 67.5814C-227.5 65.1857 -260 59.6143 -292.5 58.5C-325 57.3857 -357.5 59.6143 -390 51.9814C-422.5 44.0143 -455 26.1857 -487.5 24.6814C-520 23.4 -552.5 39 -585 40.2814C-617.5 41.7857 -650 28.4143 -682.5 20.7814C-715 12.8143 -747.5 10.5857 -780 9.08143C-812.5 7.8 -845 7.8 -877.5 14.3186C-910 20.6143 -942.5 33.9857 -975 42.9C-1007.5 51.8143 -1040 57.3857 -1072.5 54.6C-1105 51.8143 -1137.5 41.7857 -1170 39C-1202.5 36.2143 -1235 41.7857 -1267.5 39C-1300 36.2143 -1332.5 26.1857 -1365 26.0186C-1397.5 26.1857 -1430 36.2143 -1462.5 41.6186C-1495 46.8 -1527.5 46.8 -1560 46.8C-1592.5 46.8 -1625 46.8 -1657.5 40.2814C-1690 33.9857 -1722.5 20.6143 -1755 16.8814C-1787.5 12.8143 -1820 18.3857 -1852.5 16.8814C-1885 15.6 -1917.5 7.8 -1933.75 3.9L-1950 0V78H-1933.75C-1917.5 78 -1885 78 -1852.5 78C-1820 78 -1787.5 78 -1755 78C-1722.5 78 -1690 78 -1657.5 78C-1625 78 -1592.5 78 -1560 78C-1527.5 78 -1495 78 -1462.5 78C-1430 78 -1397.5 78 -1365 78C-1332.5 78 -1300 78 -1267.5 78C-1235 78 -1202.5 78 -1170 78C-1137.5 78 -1105 78 -1072.5 78C-1040 78 -1007.5 78 -975 78C-942.5 78 -910 78 -877.5 78C-845 78 -812.5 78 -780 78C-747.5 78 -715 78 -682.5 78C-650 78 -617.5 78 -585 78C-552.5 78 -520 78 -487.5 78C-455 78 -422.5 78 -390 78C-357.5 78 -325 78 -292.5 78C-260 78 -227.5 78 -195 78C-162.5 78 -130 78 -97.5 78C-65 78 -32.5 78 -1.43051e-05 78C32.5 78 65 78 97.5 78C130 78 162.5 78 195 78C227.5 78 260 78 292.5 78C325 78 357.5 78 373.75 78H390V39Z" fill="white"/>
<path opacity="0.9" d="M390 39L373.75 41.6186C357.5 44.0143 325 49.5857 292.5 46.8C260 44.0143 227.5 33.9857 195 27.3C162.5 20.6143 130 18.3857 97.5 20.7814C65 23.4 32.5 31.2 -1.43051e-05 29.9186C-32.5 28.4143 -65 18.3857 -97.5 18.2186C-130 18.3857 -162.5 28.4143 -195 28.5814C-227.5 28.4143 -260 18.3857 -292.5 11.7C-325 5.01428 -357.5 2.78571 -390 10.4186C-422.5 18.3857 -455 36.2143 -487.5 39C-520 41.7857 -552.5 28.4143 -585 28.5814C-617.5 28.4143 -650 41.7857 -682.5 44.1814C-715 46.8 -747.5 39 -780 29.9186C-812.5 20.6143 -845 10.5857 -877.5 9.08142C-910 7.79999 -942.5 15.6 -975 27.3C-1007.5 39 -1040 54.6 -1072.5 57.2186C-1105 59.6143 -1137.5 49.5857 -1170 41.6186C-1202.5 33.9857 -1235 28.4143 -1267.5 32.4814C-1300 36.2143 -1332.5 49.5857 -1365 51.9814C-1397.5 54.6 -1430 46.8 -1462.5 37.7186C-1495 28.4143 -1527.5 18.3857 -1560 12.9814C-1592.5 7.79999 -1625 7.79999 -1657.5 11.7C-1690 15.6 -1722.5 23.4 -1755 26.0186C-1787.5 28.4143 -1820 26.1857 -1852.5 31.2C-1885 36.2143 -1917.5 49.5857 -1933.75 55.8814L-1950 62.4V78H-1933.75C-1917.5 78 -1885 78 -1852.5 78C-1820 78 -1787.5 78 -1755 78C-1722.5 78 -1690 78 -1657.5 78C-1625 78 -1592.5 78 -1560 78C-1527.5 78 -1495 78 -1462.5 78C-1430 78 -1397.5 78 -1365 78C-1332.5 78 -1300 78 -1267.5 78C-1235 78 -1202.5 78 -1170 78C-1137.5 78 -1105 78 -1072.5 78C-1040 78 -1007.5 78 -975 78C-942.5 78 -910 78 -877.5 78C-845 78 -812.5 78 -780 78C-747.5 78 -715 78 -682.5 78C-650 78 -617.5 78 -585 78C-552.5 78 -520 78 -487.5 78C-455 78 -422.5 78 -390 78C-357.5 78 -325 78 -292.5 78C-260 78 -227.5 78 -195 78C-162.5 78 -130 78 -97.5 78C-65 78 -32.5 78 -1.43051e-05 78C32.5 78 65 78 97.5 78C130 78 162.5 78 195 78C227.5 78 260 78 292.5 78C325 78 357.5 78 373.75 78H390V39Z" fill="white" fill-opacity="0.5"/>
</g>
<defs>
<clipPath id="clip0_155_236">
<rect width="390" height="78" fill="white" transform="matrix(-1 0 0 1 390 0)"/>
</clipPath>
</defs>
</svg>
