<svg width="38" height="26" viewBox="0 0 38 26" fill="none" xmlns="http://www.w3.org/2000/svg">
<path d="M2 22.4067H30M16 5.98V1.5M16 5.98H12.8889C10.8261 5.98 8.84779 6.76666 7.38917 8.16694C5.93055 9.56721 5.11111 11.4664 5.11111 13.4467V17.9267H26.8889V13.4467C26.8889 11.4664 26.0694 9.56721 24.6108 8.16694C23.1522 6.76666 21.1739 5.98 19.1111 5.98H16ZM16 1.5H12.8889M16 1.5H19.1111" stroke="#FF9B50" stroke-width="1.5" stroke-linecap="round" stroke-linejoin="round"/>
<path d="M34.2501 11.5049C35.3814 12.1581 36.3224 13.0953 36.98 14.2239C37.6377 15.3525 37.9892 16.6333 37.9998 17.9395C38.0103 19.2457 37.6795 20.532 37.0402 21.6711C36.4008 22.8101 35.4751 23.7625 34.3546 24.4338C33.2341 25.1052 31.9576 25.4722 30.6517 25.4986C29.3457 25.5251 28.0555 25.21 26.9087 24.5845C25.762 23.9591 24.7984 23.045 24.1135 21.9327C23.4286 20.8204 23.0461 19.5486 23.0038 18.243L23 18L23.0038 17.757C23.0458 16.4617 23.4227 15.1994 24.0977 14.0932C24.7728 12.987 25.723 12.0745 26.8557 11.4448C27.9884 10.8152 29.2649 10.4897 30.5608 10.5002C31.8568 10.5108 33.1278 10.8569 34.2501 11.5049ZM30.5001 13.5C30.3164 13.5 30.1391 13.5674 30.0018 13.6895C29.8645 13.8116 29.7768 13.9798 29.7553 14.1622L29.7501 14.25V18L29.7568 18.0983C29.7739 18.2284 29.8249 18.3517 29.9046 18.456L29.9698 18.531L32.2199 20.781L32.2904 20.8425C32.4219 20.9446 32.5836 21 32.7501 21C32.9166 21 33.0783 20.9446 33.2099 20.8425L33.2804 20.7803L33.3426 20.7098C33.4447 20.5783 33.5001 20.4165 33.5001 20.25C33.5001 20.0836 33.4447 19.9218 33.3426 19.7903L33.2804 19.7198L31.2501 17.6888V14.25L31.2449 14.1622C31.2234 13.9798 31.1357 13.8116 30.9984 13.6895C30.8611 13.5674 30.6838 13.5 30.5001 13.5Z" fill="#FF9B50"/>
</svg>
