<svg width="36" height="29" viewBox="0 0 36 29" fill="none" xmlns="http://www.w3.org/2000/svg">
<path d="M18.6667 6.99992C18.6667 4.79959 18.6667 3.70059 17.983 3.01692C17.2994 2.33325 16.2004 2.33325 14 2.33325C11.7997 2.33325 10.7007 2.33325 10.017 3.01692C9.33337 3.70059 9.33337 4.79959 9.33337 6.99992" stroke="#FF9B50" stroke-width="1.5"/>
<path d="M11.6667 17.5H7.00004C6.45054 17.5 6.17521 17.5 6.00371 17.6703C5.83337 17.8418 5.83337 18.1183 5.83337 18.6667V19.8333C5.83337 20.3828 5.83337 20.6582 6.00371 20.8297C6.17521 21 6.45171 21 7.00004 21H11.6667C12.2162 21 12.4915 21 12.663 20.8297C12.8334 20.6582 12.8334 20.3817 12.8334 19.8333V18.6667C12.8334 18.1172 12.8334 17.8418 12.663 17.6703C12.4915 17.5 12.215 17.5 11.6667 17.5Z" stroke="#FF9B50" stroke-width="1.5" stroke-linejoin="round"/>
<path d="M7.00004 7.58333V17.5M7.00004 25.0833V21.5833M21 7.58333V11.6667M21 25.0833V16.3333M2.33337 16.3333C2.33337 11.9338 2.33337 9.7335 3.70071 8.36733C5.06687 7 7.26721 7 11.6667 7H16.3334C20.7329 7 22.9332 7 24.2994 8.36733C25.0624 9.12917 25.3995 10.15 25.5477 11.6667M25.6667 16.3333C25.6667 20.7328 25.6667 22.9332 24.2994 24.2993C22.9332 25.6667 20.7329 25.6667 16.3334 25.6667H11.6667C7.26721 25.6667 5.06687 25.6667 3.70071 24.2993C2.93771 23.5375 2.60054 22.5167 2.45237 21" stroke="#FF9B50" stroke-width="1.5" stroke-linecap="round"/>
<path d="M32.2501 15.0049C33.3814 15.6581 34.3224 16.5953 34.98 17.7239C35.6377 18.8525 35.9892 20.1333 35.9998 21.4395C36.0103 22.7457 35.6795 24.032 35.0402 25.1711C34.4008 26.3101 33.4751 27.2625 32.3546 27.9338C31.2341 28.6052 29.9576 28.9722 28.6517 28.9986C27.3457 29.0251 26.0555 28.71 24.9087 28.0845C23.762 27.4591 22.7984 26.545 22.1135 25.4327C21.4286 24.3204 21.0461 23.0486 21.0038 21.743L21 21.5L21.0038 21.257C21.0458 19.9617 21.4227 18.6994 22.0977 17.5932C22.7728 16.487 23.723 15.5745 24.8557 14.9448C25.9884 14.3152 27.2649 13.9897 28.5608 14.0002C29.8568 14.0108 31.1278 14.3569 32.2501 15.0049ZM28.5001 17C28.3164 17 28.1391 17.0674 28.0018 17.1895C27.8645 17.3116 27.7768 17.4798 27.7553 17.6622L27.7501 17.75V21.5L27.7568 21.5983C27.7739 21.7284 27.8249 21.8517 27.9046 21.956L27.9698 22.031L30.2199 24.281L30.2904 24.3425C30.4219 24.4446 30.5836 24.5 30.7501 24.5C30.9166 24.5 31.0783 24.4446 31.2099 24.3425L31.2804 24.2803L31.3426 24.2098C31.4447 24.0783 31.5001 23.9165 31.5001 23.75C31.5001 23.5836 31.4447 23.4218 31.3426 23.2903L31.2804 23.2198L29.2501 21.1888V17.75L29.2449 17.6622C29.2234 17.4798 29.1357 17.3116 28.9984 17.1895C28.8611 17.0674 28.6838 17 28.5001 17Z" fill="#FF9B50"/>
</svg>
