<svg width="37" height="29" viewBox="0 0 37 29" fill="none" xmlns="http://www.w3.org/2000/svg">
<path d="M21.3168 3.99951H2.66458C2.31123 3.99951 1.97235 4.13998 1.7225 4.39C1.47264 4.64003 1.33228 4.97914 1.33228 5.33273V18.6649C1.33228 19.0185 1.47264 19.3576 1.7225 19.6076C1.97235 19.8577 2.31123 19.9981 2.66458 19.9981H21.3168C21.6702 19.9981 22.009 19.8577 22.2589 19.6076C22.5088 19.3576 22.6491 19.0185 22.6491 18.6649V5.33273C22.6491 4.97914 22.5088 4.64003 22.2589 4.39C22.009 4.13998 21.6702 3.99951 21.3168 3.99951ZM20.2909 18.6649H3.77039L8.43345 13.8387L7.47419 12.9121L2.66458 17.8917V6.34598L10.9448 14.5919C11.1945 14.8402 11.5321 14.9796 11.8841 14.9796C12.2361 14.9796 12.5738 14.8402 12.8234 14.5919L21.3168 6.13933V17.805L16.4139 12.8987L15.4747 13.8387L20.2909 18.6649ZM3.53724 5.33273H20.2376L11.8841 13.6454L3.53724 5.33273Z" fill="#FF9B50"/>
<path fill-rule="evenodd" clip-rule="evenodd" d="M31.5609 7.54224C34.7113 7.54224 37.7295 10.2093 36.843 13.6913C35.9489 17.1842 34.133 20.3724 31.5852 22.9221C29.0374 25.4717 25.8516 27.2892 22.3611 28.1841C18.8813 29.0688 16.2161 26.0486 16.2161 22.8973V21.7161C16.2161 20.385 17.2796 19.4188 18.4588 19.3018C19.4255 19.2064 20.3744 18.9778 21.2787 18.6227C21.4923 18.5387 21.7258 18.5189 21.9506 18.5657C22.1753 18.6125 22.3815 18.7238 22.544 18.8861L23.7279 20.0696C25.8266 18.8931 27.5594 17.1591 28.7351 15.0591L27.5523 13.8732C27.3902 13.7107 27.2789 13.5043 27.2321 13.2794C27.1854 13.0545 27.2052 12.8208 27.2891 12.607C27.6441 11.7018 27.8725 10.7518 27.9678 9.78407C28.0847 8.60764 29.0502 7.54224 30.3805 7.54224H31.5609Z" fill="#FF9B50"/>
</svg>
