<svg width="25" height="25" viewBox="0 0 25 25" fill="none" xmlns="http://www.w3.org/2000/svg">
<path fill-rule="evenodd" clip-rule="evenodd" d="M16.7795 10.258C16.7795 11.1144 16.6108 11.9624 16.2831 12.7537C15.9553 13.5449 15.475 14.2638 14.8694 14.8694C14.2638 15.475 13.5449 15.9553 12.7537 16.2831C11.9624 16.6108 11.1144 16.7795 10.258 16.7795C9.40156 16.7795 8.55353 16.6108 7.7623 16.2831C6.97108 15.9553 6.25215 15.475 5.64657 14.8694C5.04099 14.2638 4.56062 13.5449 4.23288 12.7537C3.90514 11.9624 3.73646 11.1144 3.73646 10.258C3.73646 8.52837 4.42355 6.86959 5.64657 5.64657C6.86959 4.42355 8.52837 3.73646 10.258 3.73646C11.9876 3.73646 13.6464 4.42355 14.8694 5.64657C16.0924 6.86959 16.7795 8.52837 16.7795 10.258ZM15.5911 17.1273C13.8439 18.4838 11.6454 19.1233 9.44322 18.9159C7.24103 18.7084 5.20068 17.6694 3.73755 16.0105C2.27441 14.3516 1.49849 12.1975 1.56774 9.98661C1.63699 7.77575 2.54621 5.67438 4.11029 4.11029C5.67438 2.54621 7.77575 1.63699 9.98661 1.56774C12.1975 1.49849 14.3516 2.27441 16.0105 3.73755C17.6694 5.20068 18.7084 7.24103 18.9159 9.44322C19.1233 11.6454 18.4838 13.8439 17.1273 15.5911L21.1707 19.6345C21.2774 19.734 21.3631 19.854 21.4225 19.9873C21.4819 20.1206 21.5139 20.2646 21.5164 20.4105C21.519 20.5564 21.4922 20.7014 21.4375 20.8368C21.3828 20.9721 21.3015 21.095 21.1982 21.1982C21.095 21.3015 20.9721 21.3828 20.8368 21.4375C20.7014 21.4922 20.5564 21.519 20.4105 21.5164C20.2646 21.5139 20.1206 21.4819 19.9873 21.4225C19.854 21.3631 19.734 21.2774 19.6345 21.1707L15.5911 17.1273Z" fill="white"/>
</svg>
