<svg width="60" height="66" viewBox="0 0 60 66" fill="none" xmlns="http://www.w3.org/2000/svg">
<g clip-path="url(#clip0_419_380)">
<path d="M46.4384 5.83939C41.7575 4.75493 40.048 12.5171 44.7945 13.3472C49.537 14.1772 50.5315 6.7862 46.4384 5.83939Z" stroke="#FF9B50" stroke-width="0.3"/>
<path d="M13.5618 6.67353C12.1358 5.95195 11.207 8.02076 12.3248 8.75486C13.4426 9.48895 14.7042 7.2533 13.5618 6.67353Z" stroke="#FF9B50" stroke-width="0.3"/>
<path d="M16.0272 13.3472C16.5861 10.5902 12.1889 9.11783 10.1752 11.5745C8.15738 14.0354 14.0875 14.2857 16.0272 13.3472Z" stroke="#FF9B50" stroke-width="0.3"/>
<path d="M18.0822 18.7695C17.9589 15.1449 10.7342 14.0771 8.25204 17.5516C5.77396 21.0302 15.4438 19.3993 18.0822 18.7695Z" stroke="#FF9B50" stroke-width="0.3"/>
<path d="M43.5617 25.0259C46.385 23.7496 46.9316 18.5275 50.9508 20.4462C54.9659 22.369 57.0987 19.9081 52.6111 18.344C48.1275 16.7757 46.9316 18.1855 44.0754 20.9592C41.2193 23.7287 39.1932 24.3335 35.7823 22.077C32.3754 19.8205 29.9467 23.2699 27.2261 24.7131C24.5015 26.1521 22.4878 29.9477 19.1795 28.9174C15.8713 27.883 12.2343 28.0582 9.13571 29.2928C6.03708 30.5274 1.64393 33.5806 6.07407 34.1103C10.5042 34.64 13.2535 32.0749 17.2604 32.5337C21.2672 32.9925 23.359 30.298 26.1987 28.6755C29.0385 27.0572 30.7727 23.8956 33.8302 24.0582C36.8919 24.2209 40.0891 26.8987 43.122 27.5577C46.1549 28.2209 49.1795 30.0811 52.1919 30.8653C48.0165 32.7839 43.0193 32.9758 38.248 33.3971C33.4768 33.8183 29.3426 34.5316 28.2658 39.5326C27.185 44.5295 20.1165 42.4231 16.4385 43.7954C12.7645 45.1718 6.79324 43.7536 3.3905 46.8193C-0.0163459 49.8808 1.96037 54.9569 6.07407 56.8172C10.1878 58.6816 15.5878 58.4272 20.133 57.5555C24.6823 56.6879 28.8083 55.983 33.2549 54.6066C37.7056 53.2343 39.6412 49.1551 39.4604 44.6379C39.2837 40.1249 46.4385 39.4867 49.4426 38.5024C52.4426 37.5138 58.2864 32.8757 55.1015 29.5806C51.9206 26.2855 47.0138 27.6495 43.5617 25.0259Z" stroke="#FF9B50" stroke-width="0.3"/>
<path d="M14.7947 21.272C11.2604 20.759 10.3317 22.4649 7.01935 23.808C3.70702 25.1469 7.7673 28.0207 10.6563 26.248C13.5454 24.4712 16.6481 26.7193 19.6235 24.9216C22.5988 23.1281 16.1139 21.4639 14.7947 21.272Z" stroke="#FF9B50" stroke-width="0.3"/>
<path d="M0.411031 42.9612C4.43021 42.6859 8.9713 42.8068 12.7398 41.7099C16.5083 40.6129 21.2631 42.6025 24.6453 40.4461C28.0234 38.2855 20.1329 37.0801 17.6795 36.2792C15.2302 35.4784 10.4877 35.0822 8.09185 37.4096C5.70007 39.7412 0.111031 38.5983 0.411031 42.9612Z" stroke="#FF9B50" stroke-width="0.3"/>
<path d="M48.0824 42.1269C45.3577 41.7849 40.9605 45.2552 42.1975 48.0998C43.4345 50.9444 48.0783 48.8839 51.0906 48.0998C54.1029 47.3157 50.8112 42.469 48.0824 42.1269Z" stroke="#FF9B50" stroke-width="0.3"/>
<path d="M46.4384 5.83939C41.7575 4.75493 40.048 12.5171 44.7945 13.3472C49.537 14.1772 50.5315 6.7862 46.4384 5.83939Z" fill="#FF9B50"/>
<path d="M13.5618 6.67353C12.1358 5.95195 11.207 8.02076 12.3248 8.75486C13.4426 9.48895 14.7042 7.2533 13.5618 6.67353Z" fill="#FF9B50"/>
<path d="M16.0272 13.3472C16.5861 10.5902 12.1889 9.11783 10.1752 11.5745C8.15738 14.0354 14.0875 14.2857 16.0272 13.3472Z" fill="#FF9B50"/>
<path d="M18.0822 18.7695C17.9589 15.1449 10.7342 14.0771 8.25204 17.5516C5.77396 21.0302 15.4438 19.3993 18.0822 18.7695Z" fill="#FF9B50"/>
<path d="M43.5617 25.0259C46.385 23.7496 46.9316 18.5275 50.9508 20.4462C54.9659 22.369 57.0987 19.9081 52.6111 18.344C48.1275 16.7757 46.9316 18.1855 44.0754 20.9592C41.2193 23.7287 39.1932 24.3335 35.7823 22.077C32.3754 19.8205 29.9467 23.2699 27.2261 24.7131C24.5015 26.1521 22.4878 29.9477 19.1795 28.9174C15.8713 27.883 12.2343 28.0582 9.13571 29.2928C6.03708 30.5274 1.64393 33.5806 6.07407 34.1103C10.5042 34.64 13.2535 32.0749 17.2604 32.5337C21.2672 32.9925 23.359 30.298 26.1987 28.6755C29.0385 27.0572 30.7727 23.8956 33.8302 24.0582C36.8919 24.2209 40.0891 26.8987 43.122 27.5577C46.1549 28.2209 49.1795 30.0811 52.1919 30.8653C48.0165 32.7839 43.0193 32.9758 38.248 33.3971C33.4768 33.8183 29.3426 34.5316 28.2658 39.5326C27.185 44.5295 20.1165 42.4231 16.4385 43.7954C12.7645 45.1718 6.79324 43.7536 3.3905 46.8193C-0.0163459 49.8808 1.96037 54.9569 6.07407 56.8172C10.1878 58.6816 15.5878 58.4272 20.133 57.5555C24.6823 56.6879 28.8083 55.983 33.2549 54.6066C37.7056 53.2343 39.6412 49.1551 39.4604 44.6379C39.2837 40.1249 46.4385 39.4867 49.4426 38.5024C52.4426 37.5138 58.2864 32.8757 55.1015 29.5806C51.9206 26.2855 47.0138 27.6495 43.5617 25.0259Z" fill="#FF9B50"/>
<path d="M14.7947 21.272C11.2604 20.759 10.3317 22.4649 7.01935 23.808C3.70702 25.1469 7.7673 28.0207 10.6563 26.248C13.5454 24.4712 16.6481 26.7193 19.6235 24.9216C22.5988 23.1281 16.1139 21.4639 14.7947 21.272Z" fill="#FF9B50"/>
<path d="M0.411031 42.9612C4.43021 42.6859 8.9713 42.8068 12.7398 41.7099C16.5083 40.6129 21.2631 42.6025 24.6453 40.4461C28.0234 38.2855 20.1329 37.0801 17.6795 36.2792C15.2302 35.4784 10.4877 35.0822 8.09185 37.4096C5.70007 39.7412 0.111031 38.5983 0.411031 42.9612Z" fill="#FF9B50"/>
<path d="M48.0824 42.1269C45.3577 41.7849 40.9605 45.2552 42.1975 48.0998C43.4345 50.9444 48.0783 48.8839 51.0906 48.0998C54.1029 47.3157 50.8112 42.469 48.0824 42.1269Z" fill="#FF9B50"/>
</g>
<defs>
<clipPath id="clip0_419_380">
<rect width="60" height="65.9016" fill="white"/>
</clipPath>
</defs>
</svg>
